<svg id="Layer_1" data-name="Layer 1" xmlns="http://www.w3.org/2000/svg" viewBox="0 0 601.35 227.34"><defs><style>.cls-1{fill:#15284b;}</style></defs><path class="cls-1" d="M65,184c0,1.95.36,3.46,2,4.64a2.21,2.21,0,0,0,1.42.57H89.86a4.89,4.89,0,0,0,4.42-1.81,2.27,2.27,0,0,0,.62-1.51q0-12,0-24.07c0-1.21,0-1.2,1.26-1.2h65.92a2.25,2.25,0,0,0,1.74-.7q8-7.87,16.1-15.71a2,2,0,0,0,.68-1.56V87.5A1.93,1.93,0,0,0,180,86q-8.11-7.87-16.18-15.77a2.55,2.55,0,0,0-1.95-.8H70.26c-1.92,0-3.39.35-4.57,1.84A2.67,2.67,0,0,0,65,73Zm31-49c-1,0-1,0-1-1V96.12c0-.78.24-.94,1-.94h48.07a2,2,0,0,1,1.54.62c1.6,1.6,3.25,3.15,4.84,4.75a1.65,1.65,0,0,1,.44,1v27a1.69,1.69,0,0,1-.47,1.09c-1.61,1.63-3.28,3.2-4.9,4.81A1.81,1.81,0,0,1,144,135Z" transform="translate(-64.95 -15.65)"/><path class="cls-1" d="M321.87,87.64a2.24,2.24,0,0,0-.75-1.77Q313,78,305,70.15a2.41,2.41,0,0,0-1.82-.73H225a2.47,2.47,0,0,0-1.88.78q-8,7.78-16,15.54a2.67,2.67,0,0,0-.91,2.09v96.36c0,1.87.38,3.3,1.92,4.44a2.16,2.16,0,0,0,1.41.58h21.6a4.87,4.87,0,0,0,4.3-1.74,2.44,2.44,0,0,0,.67-1.65V161.71c0-1.08,0-1.08,1.13-1.08H291c1.08,0,1.06,0,1.06,1.06v22.54c0,1.84.33,3.25,1.86,4.38a2.33,2.33,0,0,0,1.48.6h21.82a4.44,4.44,0,0,0,3.79-1.49,3.09,3.09,0,0,0,.91-2.24ZM237.17,135c-1,0-1,0-1-1v-32.3a1.72,1.72,0,0,1,.61-1.43c1.63-1.5,3.21-3,4.85-4.54a1.85,1.85,0,0,1,1.13-.45h42.9a1.83,1.83,0,0,1,1.12.45c1.62,1.52,3.21,3.06,4.76,4.65a1.9,1.9,0,0,1,.54,1.22V134c0,.74-.22.91-.94.91Z" transform="translate(-64.95 -15.65)"/><path class="cls-1" d="M347.52,184.15c0,1.93.34,3.45,2,4.55a2.61,2.61,0,0,0,1.26.52h94.08a1.75,1.75,0,0,0,1.34-.54q8.16-8,16.37-16a1.83,1.83,0,0,0,.6-1.45V87.48a1.94,1.94,0,0,0-.64-1.51q-8.11-7.87-16.19-15.78a2.46,2.46,0,0,0-1.88-.77H352.52a4.9,4.9,0,0,0-4.18,1.68,2.82,2.82,0,0,0-.82,2Zm29.89-87.93c0-1,0-1,1-1H426.7a1.91,1.91,0,0,1,1.48.58c1.53,1.54,3.11,3,4.63,4.56a1.85,1.85,0,0,1,.5,1.16v55.76a1.79,1.79,0,0,1-.49,1.15c-1.51,1.55-3.09,3-4.62,4.56a2.06,2.06,0,0,1-1.62.64H378.47c-1.06,0-1.06,0-1.06-1Z" transform="translate(-64.95 -15.65)"/><g id="Group_56" data-name="Group 56"><g id="Group_55-2" data-name="Group 55-2"><path id="Path_48" data-name="Path 48" class="cls-1" d="M584.58,190.84c-20.7,0-33.66-9-40.88-16.56l-1.81-1.89L554.64,160l2.07,2.12a36.81,36.81,0,0,0,27.87,12c13.29,0,22.93-8.45,22.93-20.11v-.49c0-12.19-11.57-19.45-30.93-19.45h-7L566.7,123,598,87.29h-49.8V69.42H602.8l18,17.86-28.31,32.28c21.74,3.67,34.62,16.06,34.62,33.49v.49C627.11,175.15,609.22,190.84,584.58,190.84Z" transform="translate(-64.95 -15.65)"/></g></g><path id="Path_49" data-name="Path 49" class="cls-1" d="M505.74,87.29,493,99.57l-11.77-12.3L499.7,69.42h27.74v119.8H510.26V87.29Z" transform="translate(-64.95 -15.65)"/><path class="cls-1" d="M552.62,243A113.67,113.67,0,1,1,666.29,129.32,113.8,113.8,0,0,1,552.62,243Zm0-219.34A105.67,105.67,0,1,0,658.29,129.32,105.79,105.79,0,0,0,552.62,23.65Z" transform="translate(-64.95 -15.65)"/></svg>