<?xml version="1.0" encoding="UTF-8"?>
<svg version="1.1" xmlns="http://www.w3.org/2000/svg" width="2451" height="517">
<path d="M0 0 C42.57 0 85.14 0 129 0 C129 46.53 129 93.06 129 141 C140.55 141 152.1 141 164 141 C164 94.47 164 47.94 164 0 C218.12 0 272.24 0 328 0 C328 57.09 328 114.18 328 173 C317.44 173 306.88 173 296 173 C296 126.47 296 79.94 296 32 C284.78 32 273.56 32 262 32 C262 78.53 262 125.06 262 173 C251.44 173 240.88 173 230 173 C230 126.47 230 79.94 230 32 C218.78 32 207.56 32 196 32 C196 78.53 196 125.06 196 173 C163.33 173 130.66 173 97 173 C97 126.47 97 79.94 97 32 C85.78 32 74.56 32 63 32 C63 78.53 63 125.06 63 173 C52.44 173 41.88 173 31 173 C31 126.47 31 79.94 31 32 C20.77 32 10.54 32 0 32 C0 21.44 0 10.88 0 0 Z " fill="#000000" transform="translate(438,172)"/>
<path d="M0 0 C14.52 0 29.04 0 44 0 C44.0093457 3.24432861 44.01869141 6.48865723 44.02832031 9.83129883 C44.06215701 20.576171 44.11774338 31.32085247 44.18390274 42.06557178 C44.22333426 48.57717172 44.25554418 55.0886373 44.27099609 61.6003418 C44.28619082 67.88990985 44.32068726 74.17910841 44.36830902 80.46851158 C44.38309363 82.86251289 44.39103933 85.25656697 44.39188385 87.65061378 C44.39426396 91.01592575 44.42142926 94.38022517 44.45410156 97.74536133 C44.4490712 98.72504379 44.44404083 99.70472626 44.43885803 100.71409607 C44.55258267 108.33451084 45.8054284 116.24130426 50.88116837 122.21336079 C56.88222863 127.95049054 62.96563465 129.66093911 71 131 C71 118.13 71 105.26 71 92 C84.53588517 92 84.53588517 92 91.125 93.4375 C92.38570313 93.70433594 93.64640625 93.97117187 94.9453125 94.24609375 C98 95 98 95 100 96 C100 64.32 100 32.64 100 0 C114.52 0 129.04 0 144 0 C144 32.01 144 64.02 144 97 C131.79 97.33 119.58 97.66 107 98 C110.63 99.98 114.26 101.96 118 104 C125.82586491 109.77488341 131.32329039 116.53067108 136 125 C136.39832031 125.67675781 136.79664063 126.35351562 137.20703125 127.05078125 C144.32508812 139.92726615 144 154.7375759 144 169 C129.48 169 114.96 169 100 169 C99.01 160.09 99.01 160.09 98 151 C94.95834494 142.52023437 91.97697207 139.13994753 84 135 C80.04 134.01 76.08 133.02 72 132 C72 144.87 72 157.74 72 171 C55.58500123 171 55.58500123 171 49.5 169.4375 C48.79351318 169.26186523 48.08702637 169.08623047 47.35913086 168.90527344 C31.07174329 164.55514636 17.83470444 155.41555568 9 141 C2.26174578 128.59389131 -0.16206633 115.92049108 -0.11352539 101.94580078 C-0.11367142 100.84277115 -0.11381744 99.73974152 -0.1139679 98.60328674 C-0.11327274 94.96727514 -0.10549891 91.33131513 -0.09765625 87.6953125 C-0.09579066 85.17040027 -0.09436742 82.64548767 -0.09336853 80.12057495 C-0.08994404 74.16025916 -0.08206719 68.19995985 -0.07201904 62.23965251 C-0.06082437 55.45125333 -0.05533901 48.66285324 -0.05032361 41.87444711 C-0.03988364 27.916286 -0.02155161 13.95814814 0 0 Z " fill="#000000" transform="translate(172,174)"/>
<path d="M0 0 C4.82877776 4.06739372 8.00177591 7.88239963 9.5 14.125 C9.5 16.435 9.5 18.745 9.5 21.125 C3.56 21.125 -2.38 21.125 -8.5 21.125 C-9.49 18.485 -10.48 15.845 -11.5 13.125 C-15.9105704 9.59654368 -20.49085317 9.80143216 -25.9140625 9.82421875 C-28.58608737 10.13501318 -30.24410162 10.68061257 -32.5 12.125 C-33.64352916 14.41205831 -33.60334439 15.71764762 -33.5625 18.25 C-33.541875 19.52875 -33.52125 20.8075 -33.5 22.125 C-28.36018446 23.71975386 -23.21651516 25.22504864 -17.9921875 26.51953125 C-16.60580078 26.87047852 -16.60580078 26.87047852 -15.19140625 27.22851562 C-13.30918536 27.70233406 -11.42366541 28.16322932 -9.53515625 28.61132812 C-1.86839708 30.58967367 3.11223716 34.00469212 8.875 39.3125 C12.15740382 44.99358353 13.095395 51.49773711 11.875 57.9375 C9.87134583 65.01959838 5.48525932 70.02151592 -0.5 74.125 C-11.5103386 79.619521 -24.99625368 79.53421688 -36.640625 76.22265625 C-44.61617358 73.16100441 -49.93901093 68.73686708 -53.66015625 61.04296875 C-53.93730469 60.41003906 -54.21445313 59.77710938 -54.5 59.125 C-54.83 58.465 -55.16 57.805 -55.5 57.125 C-55.9125 58.341875 -56.325 59.55875 -56.75 60.8125 C-59.51382708 67.98078211 -63.17552238 70.79341588 -69.96484375 74.109375 C-74.0190831 75.7335695 -77.85005402 76.2507745 -82.19848633 76.23852539 C-83.11150513 76.23840454 -84.02452393 76.23828369 -84.96520996 76.23815918 C-85.91126099 76.23304321 -86.85731201 76.22792725 -87.83203125 76.22265625 C-88.71161499 76.22164917 -89.59119873 76.22064209 -90.49743652 76.21960449 C-93.7691377 76.21439006 -97.04082022 76.20042883 -100.3125 76.1875 C-107.634375 76.166875 -114.95625 76.14625 -122.5 76.125 C-122.5 49.725 -122.5 23.325 -122.5 -3.875 C-115.425625 -3.91625 -108.35125 -3.9575 -101.0625 -4 C-97.73973999 -4.02731201 -97.73973999 -4.02731201 -94.34985352 -4.05517578 C-92.56787355 -4.0610243 -90.78589088 -4.066119 -89.00390625 -4.0703125 C-88.09991089 -4.08054443 -87.19591553 -4.09077637 -86.26452637 -4.10131836 C-78.02409899 -4.10355063 -69.90867879 -3.53848358 -63.5 2.125 C-59.47097732 7.32130962 -58.8268239 12.76214922 -59.0390625 19.2109375 C-59.73396937 23.60416227 -61.51988133 26.85106681 -64.5 30.125 C-65.49 30.785 -66.48 31.445 -67.5 32.125 C-66.4275 32.805625 -65.355 33.48625 -64.25 34.1875 C-59.13648442 37.83113863 -57.02715194 42.01639223 -55.5 48.125 C-49.56 48.455 -43.62 48.785 -37.5 49.125 C-36.51 51.765 -35.52 54.405 -34.5 57.125 C-29.95837238 61.55308693 -26.33254117 62.2897706 -20.125 62.375 C-19.00351563 62.40078125 -17.88203125 62.4265625 -16.7265625 62.453125 C-13.14564874 62.08896428 -11.35148207 61.2812444 -8.5 59.125 C-6.24114932 56.31833909 -6.24114932 56.31833909 -6.4375 53.1875 C-7.67696473 49.6149252 -8.98723973 48.86189718 -12.23754883 47.11791992 C-17.74487719 44.70092365 -23.70844197 43.43237386 -29.51953125 41.9453125 C-37.88922426 39.66554744 -45.13800143 36.51511162 -50.5625 29.5 C-53.43643106 24.25282274 -53.40531811 18.93100708 -52.5 13.125 C-50.43204992 6.08011744 -47.01106887 2.05423889 -40.78125 -1.71875 C-28.50579745 -7.94055472 -11.48878402 -8.27021929 0 0 Z M-104.5 11.125 C-104.5 16.735 -104.5 22.345 -104.5 28.125 C-101.10368528 28.20607913 -97.70931384 28.26553944 -94.3125 28.3125 C-92.87293945 28.35020508 -92.87293945 28.35020508 -91.40429688 28.38867188 C-84.4409463 28.51366979 -84.4409463 28.51366979 -78.5 25.125 C-76.93064406 21.98628812 -77.14798897 19.58644178 -77.5 16.125 C-79.23860267 13.18864573 -79.23860267 13.18864573 -82.5 11.125 C-86.29008057 10.51489129 -89.98634303 10.65338279 -93.8125 10.8125 C-94.83923828 10.83505859 -95.86597656 10.85761719 -96.92382812 10.88085938 C-99.44984666 10.93960399 -101.97511224 11.02927974 -104.5 11.125 Z M-104.5 41.125 C-104.5 48.055 -104.5 54.985 -104.5 62.125 C-101.550625 62.186875 -98.60125 62.24875 -95.5625 62.3125 C-94.65250244 62.33981201 -93.74250488 62.36712402 -92.80493164 62.39526367 C-87.05297773 62.45280177 -81.67090258 61.8174956 -76.5 59.125 C-73.81790089 55.10185134 -73.81156585 51.85280081 -74.5 47.125 C-76.61391877 43.62609996 -77.61736059 42.41921314 -81.5 41.125 C-83.27313851 41.04290208 -85.04920775 41.01753706 -86.82421875 41.02734375 C-87.85224609 41.03056641 -88.88027344 41.03378906 -89.93945312 41.03710938 C-91.54723633 41.04967773 -91.54723633 41.04967773 -93.1875 41.0625 C-94.81268555 41.06926758 -94.81268555 41.06926758 -96.47070312 41.07617188 C-99.14715894 41.08796243 -101.82358639 41.10589792 -104.5 41.125 Z " fill="#000000" transform="translate(1334.5,268.875)"/>
<path d="M0 0 C10.56 0 21.12 0 32 0 C32 60.06 32 120.12 32 182 C21.44 182 10.88 182 0 182 C0 121.94 0 61.88 0 0 Z " fill="#00B2BC" transform="translate(1416,167)"/>
<path d="M0 0 C19 0 19 0 22.98828125 3.6015625 C24.2265625 5.99560547 24.2265625 5.99560547 25.3125 8.625 C26.23038754 10.45578656 27.15379142 12.28381542 28.08203125 14.109375 C28.54432129 15.07037109 29.00661133 16.03136719 29.48291016 17.02148438 C32.1210611 22.20098896 35.32876947 27.01039394 38.5 31.875 C39.65699526 33.68441951 40.81328694 35.49428917 41.96875 37.3046875 C44.27332598 40.89894549 46.63055769 44.44583654 49 48 C49.33 32.16 49.66 16.32 50 0 C55.94 0 61.88 0 68 0 C68 26.4 68 52.8 68 80 C49 80 49 80 44.42578125 75.6640625 C43.3162768 73.68967666 42.28116823 71.67216424 41.3125 69.625 C40.12169703 67.43906513 38.92891264 65.25420874 37.734375 63.0703125 C36.8381543 61.34603027 36.8381543 61.34603027 35.92382812 59.58691406 C32.64381873 53.35865357 28.7939556 47.46346126 25.0625 41.5 C21.5665625 35.8075 21.5665625 35.8075 18 30 C17.67 46.5 17.34 63 17 80 C11.39 80 5.78 80 0 80 C0 53.6 0 27.2 0 0 Z " fill="#000000" transform="translate(975,172)"/>
<path d="M0 0 C8.04375 -0.103125 16.0875 -0.20625 24.375 -0.3125 C26.89431152 -0.35802002 29.41362305 -0.40354004 32.00927734 -0.45043945 C34.03481724 -0.46506001 36.06037197 -0.47779696 38.0859375 -0.48828125 C39.11436768 -0.51386108 40.14279785 -0.53944092 41.20239258 -0.5657959 C48.50392254 -0.57014723 53.86338177 0.98001715 60 5 C62.25390625 7.31640625 62.25390625 7.31640625 63.5625 9.5625 C64.01753906 10.30628906 64.47257812 11.05007812 64.94140625 11.81640625 C67.90443984 17.92834639 67.70852211 24.30101487 65.75 30.6875 C63.90272303 35.74137095 61.50685064 38.9954329 57 42 C57.763125 42.515625 58.52625 43.03125 59.3125 43.5625 C65.47928779 49.15563311 65.75169811 56.83274497 66.625 64.6875 C66.86523177 66.73330352 67.10734382 68.77888734 67.3515625 70.82421875 C67.45291504 71.72229248 67.55426758 72.62036621 67.65869141 73.5456543 C67.99448531 76.27997156 67.99448531 76.27997156 69 80 C63.06 80 57.12 80 51 80 C48.58357209 75.16714419 48.31722544 70.74152392 47.87695312 65.46289062 C47.3809166 60.42655583 46.44123446 56.46898838 44 52 C40.96215513 50.00879706 38.38420488 49.71107691 34.796875 49.5859375 C33.91354492 49.55032715 33.03021484 49.5147168 32.12011719 49.47802734 C31.00797852 49.44402832 29.89583984 49.4100293 28.75 49.375 C25.2025 49.25125 21.655 49.1275 18 49 C18 59.23 18 69.46 18 80 C12.06 80 6.12 80 0 80 C0 53.6 0 27.2 0 0 Z M19 14 C19 21.26 19 28.52 19 36 C21.990625 36.04125 24.98125 36.0825 28.0625 36.125 C29.45480835 36.15231201 29.45480835 36.15231201 30.87524414 36.18017578 C39.56694708 36.30409685 39.56694708 36.30409685 46.90625 32.18359375 C48.88788632 28.22739838 48.75133829 24.29932466 48 20 C45.34135937 16.38129469 43.35172008 14.78808711 39 14 C37.41307361 13.92133041 35.82321751 13.89215886 34.234375 13.90234375 C33.43225586 13.90484131 32.63013672 13.90733887 31.80371094 13.90991211 C30.79598633 13.91901611 29.78826172 13.92812012 28.75 13.9375 C25.5325 13.958125 22.315 13.97875 19 14 Z " fill="#000000" transform="translate(1201,172)"/>
<path d="M0 0 C19.8 0 39.6 0 60 0 C60 4.95 60 9.9 60 15 C46.47 15 32.94 15 19 15 C19 20.28 19 25.56 19 31 C31.54 31 44.08 31 57 31 C57 35.95 57 40.9 57 46 C44.46 46 31.92 46 19 46 C19 51.94 19 57.88 19 64 C32.86 64 46.72 64 61 64 C61 69.28 61 74.56 61 80 C40.87 80 20.74 80 0 80 C0 53.6 0 27.2 0 0 Z " fill="#000000" transform="translate(905,172)"/>
<path d="M0 0 C19.8 0 39.6 0 60 0 C60 4.95 60 9.9 60 15 C46.14 15 32.28 15 18 15 C18 20.28 18 25.56 18 31 C30.54 31 43.08 31 56 31 C56 35.95 56 40.9 56 46 C43.46 46 30.92 46 18 46 C18 51.94 18 57.88 18 64 C32.19 64 46.38 64 61 64 C61 69.28 61 74.56 61 80 C40.87 80 20.74 80 0 80 C0 53.6 0 27.2 0 0 Z " fill="#000000" transform="translate(1279,172)"/>
<path d="M0 0 C5.94 0 11.88 0 18 0 C18.01458252 1.62945557 18.02916504 3.25891113 18.04418945 4.93774414 C18.10226362 10.99672126 18.17949702 17.05533031 18.26245117 23.11401367 C18.29565743 25.73374447 18.32370266 28.35354606 18.34643555 30.97338867 C18.38005954 34.74428411 18.43238196 38.51453322 18.48828125 42.28515625 C18.49467117 43.45208511 18.5010611 44.61901398 18.50764465 45.82130432 C18.61776059 51.94406962 18.9205024 56.64131314 22 62 C27.03221462 65.89996633 32.90574767 65.66202443 39 65 C42.73816947 63.7316925 44.39391248 62.77328408 46.8125 59.6875 C49.65617518 53.25181407 49.209917 46.16867284 49.31640625 39.2578125 C49.33718735 38.13430389 49.35796844 37.01079529 49.37937927 35.85324097 C49.44457224 32.27722068 49.50361884 28.70112923 49.5625 25.125 C49.605714 22.69530525 49.6493292 20.2656176 49.69335938 17.8359375 C49.80022258 11.89069726 49.90157485 5.94538568 50 0 C55.94 0 61.88 0 68 0 C68.07452414 7.77382343 68.12877928 15.54743581 68.16479492 23.3215332 C68.17981981 25.96252061 68.2002455 28.60348332 68.22631836 31.24438477 C68.26297878 35.05491251 68.27979006 38.86510844 68.29296875 42.67578125 C68.30845261 43.84393875 68.32393646 45.01209625 68.33988953 46.21565247 C68.34209519 57.12099651 66.98505215 66.16181054 59.1640625 74.125 C51.44954573 80.80905785 41.25016654 82.48632621 31.2421875 82.18359375 C21.75684606 81.40691945 12.27825329 78.89688807 5.5625 71.75 C-0.41354148 63.61903463 -0.41467265 54.99354461 -0.29296875 45.21484375 C-0.28872391 43.91801163 -0.28447906 42.6211795 -0.28010559 41.28504944 C-0.26874898 37.86713744 -0.23936355 34.44961883 -0.20599365 31.03186035 C-0.17509233 27.53236204 -0.16155777 24.03279906 -0.14648438 20.53320312 C-0.11448284 13.68862596 -0.06179233 6.84437247 0 0 Z " fill="#000000" transform="translate(1121,172)"/>
<path d="M0 0 C7.239375 -0.0825 14.47875 -0.165 21.9375 -0.25 C24.20488037 -0.28641602 26.47226074 -0.32283203 28.80834961 -0.36035156 C30.63133806 -0.37204802 32.45433707 -0.38223758 34.27734375 -0.390625 C35.20293091 -0.41108887 36.12851807 -0.43155273 37.08215332 -0.45263672 C46.06279756 -0.45739405 52.61248244 2.47791428 59.4921875 8.14453125 C63.61504326 13.21799365 64.53465107 18.55000838 64.4375 24.9375 C64.42920166 25.64116699 64.42090332 26.34483398 64.41235352 27.06982422 C64.19502548 33.74125354 62.88975209 37.89334158 58.38671875 42.734375 C54.79475914 46.07943717 51.69250198 47.49371563 47 49 C47.46374023 49.66008057 47.92748047 50.32016113 48.40527344 51.00024414 C50.52332181 54.01880708 52.63669239 57.04061636 54.75 60.0625 C55.47960938 61.10083984 56.20921875 62.13917969 56.9609375 63.20898438 C60.55832659 68.35979148 64.01797678 73.46756218 67 79 C60.96261313 80.23211977 54.89875905 81.25203635 49 79 C42.43233972 73.33116585 37.8285371 64.77084938 34.04101562 57.04345703 C33.1163803 55.16094813 33.1163803 55.16094813 31 53 C28.06994103 52.15434176 25.28474994 52.11638182 22.25 52.125 C18.16625 52.063125 18.16625 52.063125 14 52 C14 60.91 14 69.82 14 79 C9.38 79 4.76 79 0 79 C0 52.93 0 26.86 0 0 Z M14 13 C14 21.58 14 30.16 14 39 C18.6715625 39.061875 18.6715625 39.061875 23.4375 39.125 C24.88080688 39.15231201 24.88080688 39.15231201 26.35327148 39.18017578 C33.32156784 39.22425642 40.20255265 39.08320547 45.9375 34.8125 C48.74156203 30.98877905 50.36183865 27.76031196 49.7265625 22.9140625 C48.55110549 18.80759581 47.30431554 17.2037124 43.6796875 14.77734375 C37.98338128 12.12779403 32.15400655 12.56814782 26 12.75 C22.04 12.8325 18.08 12.915 14 13 Z " fill="#000000" transform="translate(2140,266)"/>
<path d="M0 0 C6.6 0 13.2 0 20 0 C20.80743652 2.15490967 21.61487305 4.30981934 22.44677734 6.5300293 C25.1165023 13.65482245 27.78683438 20.77938795 30.45746422 27.90384197 C32.07642658 32.22281344 33.69518523 36.54186104 35.31347656 40.86108398 C36.87561299 45.03040647 38.43828683 49.19952716 40.00133133 53.36850929 C40.59716507 54.95801451 41.19280609 56.54759197 41.78824997 58.13724327 C42.62313234 60.36602057 43.45870341 62.59453854 44.29443359 64.82299805 C44.53971298 65.47827484 44.78499237 66.13355164 45.03770447 66.8086853 C46.04018305 69.47996373 47.05646381 72.13335078 48.1690979 74.76106262 C49 77 49 77 49 80 C42.73 80 36.46 80 30 80 C29.01 77.40125 28.02 74.8025 27 72.125 C26.68675781 71.30789551 26.37351562 70.49079102 26.05078125 69.64892578 C24 64.22222222 24 64.22222222 24 62 C14.43 62 4.86 62 -5 62 C-5.33 63.98 -5.66 65.96 -6 68 C-7.51201576 72.0750064 -9.27062086 76.00912507 -11 80 C-16.94 80 -22.88 80 -29 80 C-27.6663666 73.24802662 -25.69187898 67.08397208 -23.18359375 60.68359375 C-22.8106871 59.71660553 -22.43778046 58.74961731 -22.05357361 57.75332642 C-20.85393358 54.64580468 -19.64573211 51.54168977 -18.4375 48.4375 C-17.61531912 46.31139832 -16.79386828 44.18501419 -15.97314453 42.05834961 C-14.75996436 38.91479262 -13.54644869 35.77137342 -12.33056641 32.62886047 C-8.13524832 21.78353204 -4.05834945 10.89741983 0 0 Z M9 22 C7.65909207 25.7681831 6.3285821 29.53995521 5 33.3125 C4.6184375 34.38435547 4.236875 35.45621094 3.84375 36.56054688 C3.4828125 37.58857422 3.121875 38.61660156 2.75 39.67578125 C2.24726562 41.0975769 2.24726562 41.0975769 1.734375 42.5480957 C0.85654047 45.05239079 0.85654047 45.05239079 1 48 C6.94 48 12.88 48 19 48 C17.71746127 43.85113635 16.42449641 39.70604999 15.125 35.5625 C14.57779297 33.78649414 14.57779297 33.78649414 14.01953125 31.97460938 C13.66503906 30.84990234 13.31054688 29.72519531 12.9453125 28.56640625 C12.62062988 27.52427979 12.29594727 26.48215332 11.96142578 25.40844727 C11.24841211 22.84717008 11.24841211 22.84717008 9 22 Z " fill="#000000" transform="translate(1160,265)"/>
<path d="M0 0 C19.47 0 38.94 0 59 0 C59 4.29 59 8.58 59 13 C44.15 13 29.3 13 14 13 C14 19.6 14 26.2 14 33 C27.2 33 40.4 33 54 33 C54 37.29 54 41.58 54 46 C40.8 46 27.6 46 14 46 C14 52.6 14 59.2 14 66 C29.18 66 44.36 66 60 66 C60 70.29 60 74.58 60 79 C40.2 79 20.4 79 0 79 C0 52.93 0 26.86 0 0 Z " fill="#000000" transform="translate(2219,266)"/>
<path d="M0 0 C19.47 0 38.94 0 59 0 C59 4.29 59 8.58 59 13 C44.15 13 29.3 13 14 13 C14 19.6 14 26.2 14 33 C27.2 33 40.4 33 54 33 C54 37.29 54 41.58 54 46 C40.8 46 27.6 46 14 46 C14 52.6 14 59.2 14 66 C29.18 66 44.36 66 60 66 C60 70.29 60 74.58 60 79 C40.2 79 20.4 79 0 79 C0 52.93 0 26.86 0 0 Z " fill="#000000" transform="translate(1603,266)"/>
<path d="M0 0 C6.27 0 12.54 0 19 0 C19.47945068 1.5041748 19.95890137 3.00834961 20.45288086 4.55810547 C22.22727642 10.12341016 24.00381249 15.68802958 25.78100586 21.25244141 C26.55079897 23.6637123 27.32000659 26.07517019 28.08862305 28.48681641 C29.1916671 31.94743045 30.29679513 35.40737289 31.40234375 38.8671875 C31.74716293 39.95055389 32.09198212 41.03392029 32.44725037 42.15011597 C32.76750687 43.1510025 33.08776337 44.15188904 33.41772461 45.18310547 C33.69974228 46.06690887 33.98175995 46.95071228 34.27232361 47.86129761 C34.95165876 50.01604767 34.95165876 50.01604767 36 52 C36.19822861 51.37803741 36.39645721 50.75607483 36.60069275 50.11526489 C38.65883534 43.65873571 40.71925111 37.2029352 42.78100586 30.74755859 C43.55079897 28.3362877 44.32000659 25.92482981 45.08862305 23.51318359 C46.1916671 20.05256955 47.29679513 16.59262711 48.40234375 13.1328125 C48.74716293 12.04944611 49.09198212 10.96607971 49.44725037 9.84988403 C49.76750687 8.8489975 50.08776337 7.84811096 50.41772461 6.81689453 C50.84075111 5.49118942 50.84075111 5.49118942 51.27232361 4.13870239 C52 2 52 2 53 0 C59.27 0 65.54 0 72 0 C70.7320715 5.70567826 69.50668306 10.85302035 67.67749023 16.32397461 C67.34296341 17.33062164 67.34296341 17.33062164 67.00167847 18.35760498 C66.27498405 20.54065836 65.541927 22.7215125 64.80859375 24.90234375 C64.29783105 26.43156917 63.7874254 27.96091389 63.27735901 29.4903717 C62.21344657 32.67753062 61.14661376 35.86369046 60.07739258 39.04907227 C58.70576034 43.1355297 57.33942858 47.22373399 55.97498989 51.31259823 C54.92373086 54.46222615 53.87077457 57.61128428 52.81718636 60.76013374 C52.31254307 62.26836399 51.80818163 63.77668858 51.30410576 65.28510857 C50.60201321 67.38453207 49.89789431 69.48326419 49.19311523 71.58178711 C48.59260597 73.37307289 48.59260597 73.37307289 47.97996521 75.20054626 C47 78 47 78 46 80 C39.07 80 32.14 80 25 80 C22.32971365 71.88038517 19.66049317 63.76042221 16.9930687 55.63986683 C15.7539995 51.86785307 14.51449159 48.09598473 13.27392578 44.32446289 C12.07331304 40.67434741 10.87392489 37.02383152 9.67533112 33.3730526 C9.22132852 31.99090382 8.76690905 30.60889189 8.31203461 29.2270298 C6.06751549 22.40751417 3.84507408 15.58105546 1.68847656 8.7331543 C1.36220276 7.69918015 1.03592896 6.66520599 0.69976807 5.59989929 C0 3 0 3 0 0 Z " fill="#000000" transform="translate(829,172)"/>
<path d="M0 0 C4.62 0 9.24 0 14 0 C18.78321727 9.30354016 22.98884758 18.74629486 27.0625 28.375 C28.37604652 31.46680928 29.69186102 34.5576512 31.0078125 37.6484375 C31.33802902 38.42499695 31.66824554 39.2015564 32.00846863 40.00164795 C34.26420053 45.29852499 36.55432989 50.57940173 38.8671875 55.8515625 C39.17146164 56.5466391 39.47573578 57.2417157 39.78923035 57.95785522 C41.53973092 61.95668763 41.53973092 61.95668763 43.30081177 65.9508667 C44.09980931 67.75682284 44.89188203 69.56583798 45.68359375 71.375 C46.35733032 72.90253906 46.35733032 72.90253906 47.04467773 74.4609375 C48 77 48 77 48 80 C42.72 80 37.44 80 32 80 C30.82905995 77.2100561 29.66309073 74.41821403 28.5 71.625 C28.16613281 70.8309375 27.83226563 70.036875 27.48828125 69.21875 C27.17246094 68.45820313 26.85664063 67.69765625 26.53125 66.9140625 C26.23798828 66.2123291 25.94472656 65.5105957 25.64257812 64.78759766 C25 63 25 63 25 61 C13.12 61.33 1.24 61.66 -11 62 C-13.26142851 67.54855996 -13.26142851 67.54855996 -15.51733398 73.09936523 C-15.79907471 73.78716064 -16.08081543 74.47495605 -16.37109375 75.18359375 C-16.65911865 75.89056396 -16.94714355 76.59753418 -17.24389648 77.32592773 C-18 79 -18 79 -19 80 C-21.53049402 80.07313567 -24.03304837 80.09247527 -26.5625 80.0625 C-27.27341797 80.05798828 -27.98433594 80.05347656 -28.71679688 80.04882812 C-30.47790013 80.03700864 -32.23896036 80.01907263 -34 80 C-33.36360362 76.12236033 -32.20085717 72.84293644 -30.62109375 69.25 C-30.11956787 68.10160645 -29.61804199 66.95321289 -29.10131836 65.77001953 C-28.54678303 64.51331512 -27.99217482 63.25664286 -27.4375 62 C-26.86348136 60.69017456 -26.29000714 59.38011041 -25.71704102 58.06982422 C-24.80048611 55.97383567 -23.88358854 53.87800502 -22.96495056 51.78292847 C-20.52766687 46.2214093 -18.11838848 40.6481663 -15.71875 35.0703125 C-14.9994309 33.39973934 -14.28011125 31.72916642 -13.56079102 30.05859375 C-12.50592082 27.60833152 -11.45160028 25.15784112 -10.3991394 22.70654297 C-9.41278641 20.41019499 -8.4234783 18.11513993 -7.43359375 15.8203125 C-7.00143555 14.81099167 -7.00143555 14.81099167 -6.56054688 13.78128052 C-4.53655266 9.09856177 -2.31232179 4.54749241 0 0 Z M6 19 C4.4265274 22.64493255 2.86015756 26.29282581 1.30029297 29.94360352 C0.76870727 31.18499721 0.23519155 32.4255663 -0.30029297 33.6652832 C-1.06985843 35.44784809 -1.8319069 37.23365229 -2.59375 39.01953125 C-3.05458984 40.09307861 -3.51542969 41.16662598 -3.99023438 42.27270508 C-5.17360523 44.98418969 -5.17360523 44.98418969 -5 48 C2.92 48 10.84 48 19 48 C16.83223202 41.49669606 14.58229971 35.29059969 11.9375 29 C11.58623047 28.14277344 11.23496094 27.28554688 10.87304688 26.40234375 C10.53208984 25.58894531 10.19113281 24.77554687 9.83984375 23.9375 C9.53425537 23.20402344 9.22866699 22.47054688 8.91381836 21.71484375 C8.11440103 19.81593791 8.11440103 19.81593791 6 19 Z " fill="#000000" transform="translate(2081,265)"/>
<path d="M0 0 C4.62 0 9.24 0 14 0 C18.78321727 9.30354016 22.98884758 18.74629486 27.0625 28.375 C28.37604652 31.46680928 29.69186102 34.5576512 31.0078125 37.6484375 C31.33802902 38.42499695 31.66824554 39.2015564 32.00846863 40.00164795 C34.26420053 45.29852499 36.55432989 50.57940173 38.8671875 55.8515625 C39.17146164 56.5466391 39.47573578 57.2417157 39.78923035 57.95785522 C41.53973092 61.95668763 41.53973092 61.95668763 43.30081177 65.9508667 C44.09980931 67.75682284 44.89188203 69.56583798 45.68359375 71.375 C46.35733032 72.90253906 46.35733032 72.90253906 47.04467773 74.4609375 C48 77 48 77 48 80 C42.72 80 37.44 80 32 80 C30.82905995 77.2100561 29.66309073 74.41821403 28.5 71.625 C28.16613281 70.8309375 27.83226562 70.036875 27.48828125 69.21875 C27.17246094 68.45820313 26.85664062 67.69765625 26.53125 66.9140625 C26.23798828 66.2123291 25.94472656 65.5105957 25.64257812 64.78759766 C25 63 25 63 25 61 C13.12 61.33 1.24 61.66 -11 62 C-13.26142851 67.54855996 -13.26142851 67.54855996 -15.51733398 73.09936523 C-15.79907471 73.78716064 -16.08081543 74.47495605 -16.37109375 75.18359375 C-16.65911865 75.89056396 -16.94714355 76.59753418 -17.24389648 77.32592773 C-18 79 -18 79 -19 80 C-21.53049402 80.07313567 -24.03304837 80.09247527 -26.5625 80.0625 C-27.27341797 80.05798828 -27.98433594 80.05347656 -28.71679688 80.04882812 C-30.47790013 80.03700864 -32.23896036 80.01907263 -34 80 C-33.36360362 76.12236033 -32.20085717 72.84293644 -30.62109375 69.25 C-30.11956787 68.10160645 -29.61804199 66.95321289 -29.10131836 65.77001953 C-28.54678303 64.51331512 -27.99217482 63.25664286 -27.4375 62 C-26.86348136 60.69017456 -26.29000714 59.38011041 -25.71704102 58.06982422 C-24.80048611 55.97383567 -23.88358854 53.87800502 -22.96495056 51.78292847 C-20.52766687 46.2214093 -18.11838848 40.6481663 -15.71875 35.0703125 C-14.9994309 33.39973934 -14.28011125 31.72916642 -13.56079102 30.05859375 C-12.50592082 27.60833152 -11.45160028 25.15784112 -10.3991394 22.70654297 C-9.41278641 20.41019499 -8.4234783 18.11513993 -7.43359375 15.8203125 C-7.00143555 14.81099167 -7.00143555 14.81099167 -6.56054688 13.78128052 C-4.53655266 9.09856177 -2.31232179 4.54749241 0 0 Z M6 19 C4.4265274 22.64493255 2.86015756 26.29282581 1.30029297 29.94360352 C0.76870727 31.18499721 0.23519155 32.4255663 -0.30029297 33.6652832 C-1.06985843 35.44784809 -1.8319069 37.23365229 -2.59375 39.01953125 C-3.05458984 40.09307861 -3.51542969 41.16662598 -3.99023438 42.27270508 C-5.17360523 44.98418969 -5.17360523 44.98418969 -5 48 C2.92 48 10.84 48 19 48 C16.83223202 41.49669606 14.58229971 35.29059969 11.9375 29 C11.58623047 28.14277344 11.23496094 27.28554688 10.87304688 26.40234375 C10.53208984 25.58894531 10.19113281 24.77554687 9.83984375 23.9375 C9.53425537 23.20402344 9.22866699 22.47054688 8.91381836 21.71484375 C8.11440103 19.81593791 8.11440103 19.81593791 6 19 Z " fill="#000000" transform="translate(1703,265)"/>
<path d="M0 0 C4.62 0 9.24 0 14 0 C14 10.89 14 21.78 14 33 C26.21 33 38.42 33 51 33 C51 22.11 51 11.22 51 0 C55.62 0 60.24 0 65 0 C65 26.07 65 52.14 65 79 C60.38 79 55.76 79 51 79 C51 68.11 51 57.22 51 46 C38.79 46 26.58 46 14 46 C14 56.89 14 67.78 14 79 C9.38 79 4.76 79 0 79 C0 52.93 0 26.86 0 0 Z " fill="#000000" transform="translate(1890,266)"/>
<path d="M0 0 C4.62 0 9.24 0 14 0 C14 10.89 14 21.78 14 33 C26.21 33 38.42 33 51 33 C51 22.11 51 11.22 51 0 C55.62 0 60.24 0 65 0 C65 26.07 65 52.14 65 79 C60.38 79 55.76 79 51 79 C51 68.11 51 57.22 51 46 C38.79 46 26.58 46 14 46 C14 56.89 14 67.78 14 79 C9.38 79 4.76 79 0 79 C0 52.93 0 26.86 0 0 Z " fill="#000000" transform="translate(1520,266)"/>
<path d="M0 0 C0.92393555 0.00829834 1.84787109 0.01659668 2.79980469 0.02514648 C14.393962 0.31224185 21.94208704 3.80511231 30.625 11.4375 C30.03963247 15.09810821 28.541761 16.98285164 26.0625 19.6875 C25.42183594 20.39390625 24.78117187 21.1003125 24.12109375 21.828125 C23.62738281 22.35921875 23.13367187 22.8903125 22.625 23.4375 C19.8761743 22.12390188 17.39453018 20.6449502 14.875 18.9375 C7.42923624 14.30275202 0.21112725 13.51000205 -8.375 15.4375 C-15.31327175 18.37744566 -19.68727719 23.18260601 -23.125 29.8125 C-25.9643612 38.04664749 -26.04791922 45.67967026 -22.3359375 53.67578125 C-18.42586213 60.37336197 -13.3557595 64.80364572 -5.859375 66.9921875 C2.78631665 68.54188695 10.35976697 66.12737057 17.625 61.4375 C18.38296875 60.58285156 18.38296875 60.58285156 19.15625 59.7109375 C20.625 58.4375 20.625 58.4375 22.578125 58.52734375 C25.0757535 59.63793047 26.5009713 61.01785426 28.375 63 C28.98859375 63.64066406 29.6021875 64.28132813 30.234375 64.94140625 C30.69328125 65.43511719 31.1521875 65.92882812 31.625 66.4375 C28.51677427 73.40473061 22.55396242 76.80665792 15.73828125 79.67578125 C5.47975296 83.37340235 -9.13344803 83.19362039 -19.0546875 78.76171875 C-30.76574161 72.07813737 -37.01807409 63.29156044 -40.9609375 50.54296875 C-43.31672053 38.56403427 -40.81288673 26.35998391 -34.3125 16.125 C-25.56536112 4.62447907 -14.09171139 -0.16334861 0 0 Z " fill="#000000" transform="translate(2010.375,264.5625)"/>
<path d="M0 0 C21.78 0 43.56 0 66 0 C66 4.95 66 9.9 66 15 C58.08 15 50.16 15 42 15 C42 36.45 42 57.9 42 80 C36.06 80 30.12 80 24 80 C24 58.55 24 37.1 24 15 C16.08 15 8.16 15 0 15 C0 10.05 0 5.1 0 0 Z " fill="#000000" transform="translate(1049,172)"/>
<path d="M0 0 C5.94 0 11.88 0 18 0 C18 21.12 18 42.24 18 64 C30.54 64 43.08 64 56 64 C56 69.28 56 74.56 56 80 C37.52 80 19.04 80 0 80 C0 53.6 0 27.2 0 0 Z " fill="#000000" transform="translate(1073,265)"/>
<path d="M0 0 C21.45 0 42.9 0 65 0 C65 4.29 65 8.58 65 13 C56.42 13 47.84 13 39 13 C39 34.78 39 56.56 39 79 C34.38 79 29.76 79 25 79 C25 57.22 25 35.44 25 13 C16.75 13 8.5 13 0 13 C0 8.71 0 4.42 0 0 Z " fill="#000000" transform="translate(1813,266)"/>
<path d="M0 0 C4.62 0 9.24 0 14 0 C14 21.78 14 43.56 14 66 C27.86 66 41.72 66 56 66 C56 70.29 56 74.58 56 79 C37.52 79 19.04 79 0 79 C0 52.93 0 26.86 0 0 Z " fill="#000000" transform="translate(1763,266)"/>
<path d="M0 0 C1.65 0 3.3 0 5 0 C5 57.09 5 114.18 5 173 C3.35 173 1.7 173 0 173 C0 115.91 0 58.82 0 0 Z " fill="#000000" transform="translate(377,172)"/>
</svg>
