<svg width="1674" height="510" viewBox="0 0 1674 510" fill="none" xmlns="http://www.w3.org/2000/svg">
<line x1="669.424" y1="221.951" x2="945.132" y2="423.563" stroke="#424242" stroke-width="13.7854"/>
<circle cx="631.744" cy="188.744" r="88.4125" fill="#F0ECE6" stroke="#678E79" stroke-width="0.662266"/>
<circle cx="631.745" cy="188.744" r="78.1474" fill="#667799"/>
<circle cx="941.879" cy="426.426" r="83.2623" fill="#F0ECE6" stroke="#678E79" stroke-width="0.623687"/>
<circle cx="941.884" cy="426.426" r="73.5951" fill="#767676"/>
<path d="M902.7 439.886H897.021L905.674 414.822H912.503L921.143 439.886H915.465L909.186 420.55H908.991L902.7 439.886ZM902.345 430.034H915.758V434.171H902.345V430.034ZM927.791 439.886H922.112L930.765 414.822H937.594L946.234 439.886H940.556L934.277 420.55H934.082L927.791 439.886ZM927.436 430.034H940.849V434.171H927.436V430.034ZM948.562 439.886V414.822H958.451C960.352 414.822 961.971 415.185 963.309 415.911C964.647 416.629 965.667 417.629 966.369 418.91C967.079 420.182 967.434 421.651 967.434 423.315C967.434 424.98 967.075 426.449 966.357 427.721C965.639 428.994 964.598 429.985 963.236 430.695C961.881 431.405 960.241 431.76 958.316 431.76H952.013V427.513H957.459C958.479 427.513 959.32 427.338 959.98 426.987C960.649 426.628 961.147 426.134 961.473 425.506C961.808 424.87 961.975 424.14 961.975 423.315C961.975 422.483 961.808 421.757 961.473 421.137C961.147 420.509 960.649 420.023 959.98 419.681C959.311 419.33 958.463 419.154 957.435 419.154H953.861V439.886H948.562ZM970.186 439.886V414.822H975.486V435.517H986.231V439.886H970.186Z" fill="black"/>
<path d="M585.448 177.139H591.983L598.886 193.98H599.179L606.082 177.139H612.617V202.204H607.477V185.89H607.269L600.783 202.081H597.282L590.796 185.829H590.588V202.204H585.448V177.139ZM629.891 184.348C629.793 183.361 629.373 182.594 628.63 182.047C627.888 181.5 626.88 181.227 625.607 181.227C624.743 181.227 624.012 181.349 623.417 181.594C622.821 181.831 622.364 182.161 622.046 182.586C621.736 183.01 621.581 183.491 621.581 184.03C621.565 184.478 621.659 184.87 621.863 185.205C622.075 185.539 622.364 185.829 622.731 186.074C623.099 186.31 623.523 186.518 624.004 186.698C624.486 186.869 625 187.016 625.546 187.138L627.798 187.677C628.891 187.922 629.895 188.248 630.809 188.656C631.723 189.064 632.514 189.566 633.183 190.161C633.852 190.757 634.37 191.458 634.737 192.266C635.113 193.074 635.304 194 635.313 195.044C635.304 196.578 634.913 197.908 634.138 199.034C633.371 200.152 632.261 201.021 630.809 201.641C629.365 202.253 627.623 202.559 625.583 202.559C623.56 202.559 621.797 202.249 620.296 201.629C618.803 201.009 617.636 200.091 616.796 198.875C615.964 197.651 615.527 196.138 615.486 194.335H620.614C620.671 195.175 620.912 195.877 621.336 196.44C621.769 196.994 622.344 197.415 623.062 197.7C623.788 197.978 624.608 198.116 625.522 198.116C626.419 198.116 627.198 197.986 627.859 197.725C628.528 197.463 629.046 197.1 629.414 196.635C629.781 196.17 629.964 195.636 629.964 195.032C629.964 194.469 629.797 193.996 629.463 193.612C629.136 193.229 628.655 192.903 628.018 192.633C627.39 192.364 626.619 192.119 625.705 191.899L622.976 191.214C620.863 190.7 619.195 189.896 617.971 188.803C616.747 187.709 616.139 186.237 616.147 184.385C616.139 182.867 616.543 181.541 617.359 180.407C618.183 179.273 619.313 178.388 620.749 177.751C622.185 177.115 623.817 176.797 625.644 176.797C627.504 176.797 629.128 177.115 630.515 177.751C631.91 178.388 632.995 179.273 633.771 180.407C634.546 181.541 634.945 182.855 634.97 184.348H629.891ZM638.188 202.204V177.139H654.783V181.509H643.487V187.481H653.682V191.85H643.487V202.204H638.188ZM656.704 181.509V177.139H677.289V181.509H669.615V202.204H664.377V181.509H656.704Z" fill="black"/>
<line x1="1450.35" y1="66.6053" x2="1600.93" y2="176.718" stroke="#424242" stroke-width="7.52908"/>
<circle cx="1429.77" cy="48.4685" r="48.2876" fill="#F0ECE6" stroke="#678E79" stroke-width="0.361705"/>
<circle cx="1429.77" cy="48.4687" r="42.6812" fill="#667799"/>
<circle cx="1628.35" cy="191.521" r="45.4748" fill="#F0ECE6" stroke="#678E79" stroke-width="0.340635"/>
<circle cx="1628.36" cy="191.521" r="40.1949" fill="#767676"/>
<path d="M1606.95 198.757H1603.85L1608.58 185.067H1612.31L1617.03 198.757H1613.92L1610.5 188.196H1610.39L1606.95 198.757ZM1606.76 193.376H1614.09V195.635H1606.76V193.376ZM1620.66 198.757H1617.56L1622.28 185.067H1626.01L1630.73 198.757H1627.63L1624.2 188.196H1624.09L1620.66 198.757ZM1620.46 193.376H1627.79V195.635H1620.46V193.376ZM1632 198.757V185.067H1637.4C1638.44 185.067 1639.32 185.266 1640.06 185.662C1640.79 186.055 1641.34 186.6 1641.73 187.3C1642.11 187.995 1642.31 188.797 1642.31 189.706C1642.31 190.615 1642.11 191.417 1641.72 192.113C1641.33 192.808 1640.76 193.349 1640.02 193.737C1639.28 194.125 1638.38 194.318 1637.33 194.318H1633.89V191.999H1636.86C1637.42 191.999 1637.88 191.903 1638.24 191.712C1638.6 191.515 1638.87 191.246 1639.05 190.903C1639.24 190.555 1639.33 190.156 1639.33 189.706C1639.33 189.252 1639.24 188.855 1639.05 188.517C1638.87 188.173 1638.6 187.908 1638.24 187.721C1637.87 187.529 1637.41 187.434 1636.85 187.434H1634.9V198.757H1632ZM1643.81 198.757V185.067H1646.71V196.37H1652.57V198.757H1643.81Z" fill="black"/>
<path d="M1404.48 42.015H1408.05L1411.82 51.2124H1411.98L1415.75 42.015H1419.32V55.7042H1416.51V46.7942H1416.4L1412.86 55.6374H1410.95L1407.4 46.7608H1407.29V55.7042H1404.48V42.015ZM1428.76 45.952C1428.7 45.4128 1428.47 44.9939 1428.07 44.6953C1427.66 44.3968 1427.11 44.2475 1426.42 44.2475C1425.94 44.2475 1425.55 44.3143 1425.22 44.448C1424.9 44.5773 1424.65 44.7577 1424.47 44.9894C1424.3 45.2212 1424.22 45.4841 1424.22 45.7782C1424.21 46.0233 1424.26 46.2372 1424.37 46.4199C1424.49 46.6026 1424.65 46.7608 1424.85 46.8944C1425.05 47.0237 1425.28 47.1373 1425.54 47.2353C1425.8 47.3289 1426.09 47.4091 1426.38 47.476L1427.61 47.7701C1428.21 47.9038 1428.76 48.082 1429.26 48.3048C1429.76 48.5276 1430.19 48.8017 1430.55 49.127C1430.92 49.4523 1431.2 49.8355 1431.4 50.2767C1431.61 50.7178 1431.71 51.2236 1431.72 51.794C1431.71 52.6317 1431.5 53.3581 1431.08 53.973C1430.66 54.5835 1430.05 55.0581 1429.26 55.3968C1428.47 55.731 1427.52 55.8981 1426.4 55.8981C1425.3 55.8981 1424.34 55.7287 1423.52 55.3901C1422.7 55.0514 1422.06 54.5501 1421.6 53.8861C1421.15 53.2177 1420.91 52.3911 1420.89 51.4063H1423.69C1423.72 51.8653 1423.85 52.2485 1424.08 52.556C1424.32 52.859 1424.63 53.0885 1425.03 53.2444C1425.42 53.3959 1425.87 53.4717 1426.37 53.4717C1426.86 53.4717 1427.29 53.4004 1427.65 53.2578C1428.01 53.1152 1428.3 52.9169 1428.5 52.6629C1428.7 52.4089 1428.8 52.117 1428.8 51.7873C1428.8 51.4798 1428.71 51.2214 1428.52 51.0119C1428.34 50.8025 1428.08 50.6242 1427.73 50.4772C1427.39 50.3301 1426.97 50.1964 1426.47 50.0761L1424.98 49.7018C1423.83 49.4211 1422.91 48.9821 1422.25 48.385C1421.58 47.7879 1421.25 46.9836 1421.25 45.972C1421.25 45.1432 1421.47 44.4191 1421.91 43.7997C1422.36 43.1803 1422.98 42.6968 1423.76 42.3492C1424.55 42.0016 1425.44 41.8278 1426.44 41.8278C1427.45 41.8278 1428.34 42.0016 1429.1 42.3492C1429.86 42.6968 1430.45 43.1803 1430.88 43.7997C1431.3 44.4191 1431.52 45.1365 1431.53 45.952H1428.76ZM1433.29 55.7042V42.015H1442.35V44.4012H1436.18V47.6631H1441.75V50.0494H1436.18V55.7042H1433.29ZM1443.4 44.4012V42.015H1454.64V44.4012H1450.45V55.7042H1447.59V44.4012H1443.4Z" fill="black"/>
<path d="M21.6912 4.97199V47H12.8054V13.4063H12.5592L2.93457 19.4396V11.5594L13.339 4.97199H21.6912ZM33.3433 47.5336C31.9889 47.5336 30.826 47.0547 29.8546 46.0971C28.897 45.1257 28.4181 43.9628 28.4181 42.6084C28.4181 41.2677 28.897 40.1185 29.8546 39.1608C30.826 38.2031 31.9889 37.7243 33.3433 37.7243C34.6567 37.7243 35.8059 38.2031 36.7909 39.1608C37.7759 40.1185 38.2684 41.2677 38.2684 42.6084C38.2684 43.5113 38.0359 44.339 37.5707 45.0915C37.1192 45.8303 36.5241 46.4254 35.7853 46.8769C35.0466 47.3147 34.2325 47.5336 33.3433 47.5336Z" fill="black"/>
<path d="M546.407 47V40.5973L561.367 26.7453C562.639 25.514 563.706 24.4058 564.568 23.4208C565.444 22.4358 566.107 21.4713 566.559 20.5273C567.01 19.5696 567.236 18.5367 567.236 17.4285C567.236 16.1972 566.955 15.137 566.395 14.2477C565.834 13.3448 565.067 12.6539 564.096 12.175C563.125 11.6825 562.023 11.4363 560.792 11.4363C559.506 11.4363 558.384 11.6962 557.427 12.2161C556.469 12.736 555.73 13.4816 555.21 14.4529C554.69 15.4243 554.43 16.5803 554.43 17.921H545.996C545.996 15.1712 546.619 12.7838 547.864 10.759C549.109 8.73426 550.853 7.16779 553.097 6.05962C555.34 4.95146 557.926 4.39738 560.854 4.39738C563.864 4.39738 566.483 4.93094 568.713 5.99806C570.957 7.0515 572.701 8.51536 573.946 10.3897C575.191 12.264 575.814 14.4119 575.814 16.8334C575.814 18.4204 575.499 19.9869 574.87 21.5328C574.254 23.0788 573.153 24.7957 571.566 26.6837C569.979 28.558 567.742 30.8085 564.855 33.4353L558.719 39.4481V39.7354H576.368V47H546.407ZM586.727 47.5336C585.373 47.5336 584.21 47.0547 583.238 46.0971C582.281 45.1257 581.802 43.9628 581.802 42.6084C581.802 41.2677 582.281 40.1185 583.238 39.1608C584.21 38.2031 585.373 37.7243 586.727 37.7243C588.041 37.7243 589.19 38.2031 590.175 39.1608C591.16 40.1185 591.652 41.2677 591.652 42.6084C591.652 43.5113 591.42 44.339 590.955 45.0915C590.503 45.8303 589.908 46.4254 589.169 46.8769C588.43 47.3147 587.616 47.5336 586.727 47.5336Z" fill="black"/>
<path d="M1188.94 47.5746C1185.88 47.5746 1183.15 47.0479 1180.75 45.9944C1178.37 44.9273 1176.49 43.4635 1175.11 41.6028C1173.74 39.7286 1173.04 37.567 1173 35.1181H1181.94C1182 36.1441 1182.33 37.0471 1182.95 37.8269C1183.58 38.593 1184.41 39.1882 1185.45 39.6123C1186.49 40.0364 1187.66 40.2484 1188.96 40.2484C1190.32 40.2484 1191.51 40.009 1192.55 39.5302C1193.59 39.0513 1194.41 38.3878 1195 37.5396C1195.58 36.6914 1195.88 35.7132 1195.88 34.605C1195.88 33.4832 1195.56 32.4913 1194.93 31.6294C1194.32 30.7538 1193.43 30.0698 1192.27 29.5773C1191.12 29.0847 1189.75 28.8385 1188.16 28.8385H1184.24V22.3126H1188.16C1189.5 22.3126 1190.69 22.0801 1191.71 21.6149C1192.75 21.1498 1193.56 20.5068 1194.13 19.6859C1194.71 18.8514 1195 17.88 1195 16.7718C1195 15.7184 1194.74 14.7949 1194.24 14.0014C1193.74 13.1943 1193.05 12.5649 1192.14 12.1135C1191.25 11.662 1190.21 11.4363 1189.02 11.4363C1187.82 11.4363 1186.72 11.6552 1185.72 12.0929C1184.72 12.5171 1183.92 13.1259 1183.32 13.9194C1182.72 14.7129 1182.39 15.6432 1182.35 16.7103H1173.84C1173.88 14.2887 1174.57 12.1545 1175.91 10.3076C1177.25 8.46064 1179.06 7.01729 1181.33 5.97754C1183.61 4.9241 1186.19 4.39738 1189.06 4.39738C1191.96 4.39738 1194.5 4.9241 1196.68 5.97754C1198.85 7.03098 1200.54 8.4538 1201.75 10.246C1202.96 12.0245 1203.57 14.022 1203.55 16.2383C1203.57 18.5914 1202.83 20.5546 1201.36 22.128C1199.89 23.7013 1197.98 24.7 1195.63 25.1241V25.4524C1198.72 25.8492 1201.08 26.9231 1202.69 28.6743C1204.32 30.4118 1205.13 32.5871 1205.11 35.2001C1205.13 37.5943 1204.44 39.7217 1203.04 41.5823C1201.66 43.4429 1199.75 44.9068 1197.31 45.9739C1194.88 47.041 1192.09 47.5746 1188.94 47.5746ZM1214.24 47.5336C1212.88 47.5336 1211.72 47.0547 1210.75 46.0971C1209.79 45.1257 1209.31 43.9628 1209.31 42.6084C1209.31 41.2677 1209.79 40.1185 1210.75 39.1608C1211.72 38.2031 1212.88 37.7243 1214.24 37.7243C1215.55 37.7243 1216.7 38.2031 1217.68 39.1608C1218.67 40.1185 1219.16 41.2677 1219.16 42.6084C1219.16 43.5113 1218.93 44.339 1218.46 45.0915C1218.01 45.8303 1217.42 46.4254 1216.68 46.8769C1215.94 47.3147 1215.12 47.5336 1214.24 47.5336Z" fill="black"/>
<circle cx="199.322" cy="310.322" r="198.578" fill="#F0ECE6" stroke="#678E79" stroke-width="1.48748"/>
<circle cx="199.319" cy="310.322" r="175.522" fill="#767676"/>
<path d="M138.444 334.085H129.621L143.065 295.14H153.676L167.101 334.085H158.278L148.523 304.04H148.218L138.444 334.085ZM137.893 318.777H158.734V325.204H137.893V318.777ZM177.431 334.085H168.607L182.051 295.14H192.662L206.088 334.085H197.264L187.509 304.04H187.205L177.431 334.085ZM176.879 318.777H197.721V325.204H176.879V318.777ZM209.704 334.085V295.14H225.069C228.023 295.14 230.539 295.704 232.619 296.833C234.698 297.948 236.282 299.501 237.373 301.491C238.476 303.469 239.027 305.751 239.027 308.337C239.027 310.923 238.469 313.205 237.354 315.183C236.238 317.161 234.622 318.701 232.504 319.804C230.4 320.907 227.852 321.458 224.86 321.458H215.067V314.86H223.529C225.114 314.86 226.419 314.587 227.446 314.042C228.486 313.484 229.259 312.717 229.766 311.741C230.286 310.752 230.546 309.618 230.546 308.337C230.546 307.044 230.286 305.916 229.766 304.952C229.259 303.976 228.486 303.222 227.446 302.689C226.407 302.144 225.088 301.872 223.491 301.872H217.938V334.085H209.704ZM243.304 334.085V295.14H251.538V327.296H268.234V334.085H243.304Z" fill="black"/>
<line x1="1286.05" y1="220.039" x2="1481.02" y2="220.039" stroke="#424242" stroke-width="6.87739"/>
<line x1="1286.87" y1="234.792" x2="1372.65" y2="336.173" stroke="#424242" stroke-width="7.22177"/>
<line x1="1477.91" y1="231.676" x2="1384.33" y2="340.856" stroke="#424242" stroke-width="7.22177"/>
<line x1="1382.62" y1="358.857" x2="1234.19" y2="444.613" stroke="#424242" stroke-width="7.22177"/>
<circle cx="1285.76" cy="223.177" r="46.3167" fill="#F0ECE6" stroke="#678E79" stroke-width="0.346941"/>
<circle cx="1285.75" cy="223.177" r="40.9391" fill="#EC9374" fill-opacity="0.9"/>
<circle cx="1213.78" cy="456.024" r="43.6186" fill="#F0ECE6" stroke="#678E79" stroke-width="0.326731"/>
<circle cx="1213.78" cy="456.023" r="38.5543" fill="#67001F" fill-opacity="0.7"/>
<path d="M1195.82 463.739V450.609H1204.67V452.898H1198.6V456.026H1204.21V458.315H1198.6V461.45H1204.69V463.739H1195.82ZM1209.47 463.739L1205.71 450.609H1208.75L1210.92 459.732H1211.03L1213.43 450.609H1216.02L1218.41 459.751H1218.53L1220.7 450.609H1223.74L1219.98 463.739H1217.27L1214.77 455.154H1214.67L1212.18 463.739H1209.47ZM1228.99 450.609H1231.73V459.764C1231.73 460.611 1231.54 461.346 1231.16 461.97C1230.79 462.594 1230.26 463.075 1229.59 463.412C1228.92 463.75 1228.14 463.919 1227.25 463.919C1226.46 463.919 1225.74 463.78 1225.1 463.502C1224.46 463.22 1223.95 462.793 1223.57 462.22C1223.2 461.643 1223.01 460.918 1223.01 460.046H1225.78C1225.79 460.393 1225.86 460.69 1225.99 460.938C1226.13 461.181 1226.31 461.369 1226.55 461.502C1226.79 461.63 1227.07 461.694 1227.39 461.694C1227.73 461.694 1228.02 461.621 1228.26 461.476C1228.5 461.327 1228.68 461.109 1228.8 460.822C1228.93 460.536 1228.99 460.183 1228.99 459.764V450.609Z" fill="black"/>
<path d="M1273.71 230.893V217.762H1276.49V223.552H1276.66L1281.39 217.762H1284.71L1279.84 223.641L1284.77 230.893H1281.45L1277.85 225.494L1276.49 227.161V230.893H1273.71ZM1297.12 224.327C1297.12 225.759 1296.85 226.977 1296.31 227.982C1295.77 228.986 1295.04 229.754 1294.11 230.284C1293.18 230.809 1292.13 231.072 1290.98 231.072C1289.81 231.072 1288.76 230.807 1287.83 230.277C1286.91 229.747 1286.17 228.98 1285.64 227.975C1285.1 226.971 1284.83 225.755 1284.83 224.327C1284.83 222.896 1285.1 221.677 1285.64 220.673C1286.17 219.668 1286.91 218.903 1287.83 218.378C1288.76 217.848 1289.81 217.583 1290.98 217.583C1292.13 217.583 1293.18 217.848 1294.11 218.378C1295.04 218.903 1295.77 219.668 1296.31 220.673C1296.85 221.677 1297.12 222.896 1297.12 224.327ZM1294.31 224.327C1294.31 223.4 1294.17 222.618 1293.89 221.981C1293.62 221.344 1293.23 220.861 1292.73 220.532C1292.23 220.203 1291.65 220.038 1290.98 220.038C1290.31 220.038 1289.72 220.203 1289.22 220.532C1288.72 220.861 1288.33 221.344 1288.05 221.981C1287.78 222.618 1287.64 223.4 1287.64 224.327C1287.64 225.255 1287.78 226.037 1288.05 226.674C1288.33 227.311 1288.72 227.794 1289.22 228.123C1289.72 228.452 1290.31 228.617 1290.98 228.617C1291.65 228.617 1292.23 228.452 1292.73 228.123C1293.23 227.794 1293.62 227.311 1293.89 226.674C1294.17 226.037 1294.31 225.255 1294.31 224.327Z" fill="black"/>
<circle cx="1474.87" cy="223.177" r="46.3167" fill="#F0ECE6" stroke="#678E79" stroke-width="0.346941"/>
<circle opacity="0.8" cx="1474.87" cy="223.177" r="40.9391" fill="#800000"/>
<path d="M1457.05 217.762L1459.7 222.237H1459.8L1462.46 217.762H1465.6L1461.59 224.327L1465.69 230.893H1462.49L1459.8 226.411H1459.7L1457.01 230.893H1453.83L1457.94 224.327L1453.9 217.762H1457.05ZM1478.44 224.327C1478.44 225.759 1478.17 226.977 1477.63 227.982C1477.09 228.986 1476.35 229.754 1475.42 230.284C1474.49 230.809 1473.45 231.072 1472.29 231.072C1471.13 231.072 1470.08 230.807 1469.15 230.277C1468.22 229.747 1467.49 228.98 1466.95 227.975C1466.41 226.971 1466.14 225.755 1466.14 224.327C1466.14 222.896 1466.41 221.677 1466.95 220.673C1467.49 219.668 1468.22 218.903 1469.15 218.378C1470.08 217.848 1471.13 217.583 1472.29 217.583C1473.45 217.583 1474.49 217.848 1475.42 218.378C1476.35 218.903 1477.09 219.668 1477.63 220.673C1478.17 221.677 1478.44 222.896 1478.44 224.327ZM1475.63 224.327C1475.63 223.4 1475.49 222.618 1475.21 221.981C1474.94 221.344 1474.55 220.861 1474.05 220.532C1473.55 220.203 1472.96 220.038 1472.29 220.038C1471.62 220.038 1471.04 220.203 1470.54 220.532C1470.04 220.861 1469.65 221.344 1469.37 221.981C1469.1 222.618 1468.96 223.4 1468.96 224.327C1468.96 225.255 1469.1 226.037 1469.37 226.674C1469.65 227.311 1470.04 227.794 1470.54 228.123C1471.04 228.452 1471.62 228.617 1472.29 228.617C1472.96 228.617 1473.55 228.452 1474.05 228.123C1474.55 227.794 1474.94 227.311 1475.21 226.674C1475.49 226.037 1475.63 225.255 1475.63 224.327ZM1480.14 217.762H1483.56L1487.18 226.584H1487.33L1490.95 217.762H1494.37V230.893H1491.68V222.346H1491.57L1488.17 230.829H1486.34L1482.94 222.314H1482.83V230.893H1480.14V217.762Z" fill="black"/>
<circle cx="1381.28" cy="349.903" r="46.3167" fill="#F0ECE6" stroke="#678E79" stroke-width="0.346941"/>
<circle cx="1381.29" cy="349.903" r="40.9391" fill="#C83836"/>
<path d="M1368.35 344.488H1371.09V353.643C1371.09 354.49 1370.9 355.225 1370.52 355.849C1370.14 356.473 1369.62 356.954 1368.95 357.291C1368.28 357.629 1367.5 357.798 1366.61 357.798C1365.82 357.798 1365.1 357.659 1364.46 357.381C1363.81 357.099 1363.31 356.672 1362.93 356.099C1362.55 355.522 1362.37 354.797 1362.37 353.925H1365.14C1365.14 354.272 1365.21 354.569 1365.35 354.817C1365.48 355.06 1365.67 355.248 1365.9 355.381C1366.14 355.509 1366.43 355.573 1366.75 355.573C1367.09 355.573 1367.38 355.501 1367.62 355.355C1367.86 355.206 1368.04 354.988 1368.16 354.701C1368.29 354.415 1368.35 354.062 1368.35 353.643V344.488ZM1373.03 357.618V344.488H1378.21C1379.2 344.488 1380.05 344.678 1380.75 345.059C1381.45 345.435 1381.99 345.958 1382.35 346.629C1382.73 347.296 1382.91 348.065 1382.91 348.937C1382.91 349.809 1382.72 350.579 1382.35 351.246C1381.97 351.912 1381.43 352.432 1380.71 352.803C1380 353.175 1379.14 353.361 1378.14 353.361H1374.83V351.137H1377.69C1378.22 351.137 1378.66 351.045 1379.01 350.861C1379.36 350.673 1379.62 350.414 1379.79 350.085C1379.96 349.752 1380.05 349.369 1380.05 348.937C1380.05 348.501 1379.96 348.121 1379.79 347.796C1379.62 347.467 1379.36 347.213 1379.01 347.033C1378.66 346.849 1378.21 346.758 1377.67 346.758H1375.8V357.618H1373.03ZM1384.35 344.488H1387.78L1391.39 353.31H1391.55L1395.16 344.488H1398.59V357.618H1395.89V349.072H1395.79L1392.39 357.554H1390.55L1387.16 349.04H1387.05V357.618H1384.35V344.488Z" fill="black"/>
</svg>
