<svg width="1251" height="770" viewBox="0 0 1251 770" fill="none" xmlns="http://www.w3.org/2000/svg">
<g clip-path="url(#clip0_40008055_35450)">
<mask id="mask0_40008055_35450" style="mask-type:luminance" maskUnits="userSpaceOnUse" x="0" y="0" width="1251" height="770">
<path d="M1250.18 0.46637H0V769.807H1250.18V0.46637Z" fill="white"/>
</mask>
<g mask="url(#mask0_40008055_35450)">
<mask id="mask1_40008055_35450" style="mask-type:luminance" maskUnits="userSpaceOnUse" x="0" y="0" width="1251" height="770">
<path d="M1250.18 0.4664H0V769.807H1250.18V0.4664Z" fill="white"/>
</mask>
<g mask="url(#mask1_40008055_35450)">
<path d="M472.371 163.278L409.52 269.59" stroke="white" stroke-opacity="0.5" stroke-width="5.354"/>
</g>
<mask id="mask2_40008055_35450" style="mask-type:luminance" maskUnits="userSpaceOnUse" x="0" y="0" width="1251" height="770">
<path d="M1250.18 0.4664H0V769.807H1250.18V0.4664Z" fill="white"/>
</mask>
<g mask="url(#mask2_40008055_35450)">
<path d="M472.375 163.277L519.339 93.3174" stroke="white" stroke-opacity="0.5" stroke-width="5.354"/>
</g>
<mask id="mask3_40008055_35450" style="mask-type:luminance" maskUnits="userSpaceOnUse" x="0" y="0" width="1251" height="770">
<path d="M1250.18 0.4664H0V769.807H1250.18V0.4664Z" fill="white"/>
</mask>
<g mask="url(#mask3_40008055_35450)">
<path d="M699.422 657.687L782.926 599.239" stroke="white" stroke-opacity="0.5" stroke-width="5.354"/>
</g>
<mask id="mask4_40008055_35450" style="mask-type:luminance" maskUnits="userSpaceOnUse" x="0" y="0" width="1251" height="770">
<path d="M1250.18 0.4664H0V769.807H1250.18V0.4664Z" fill="white"/>
</mask>
<g mask="url(#mask4_40008055_35450)">
<path d="M782.927 599.242L756.25 525.019" stroke="white" stroke-opacity="0.5" stroke-width="5.354"/>
</g>
<mask id="mask5_40008055_35450" style="mask-type:luminance" maskUnits="userSpaceOnUse" x="0" y="0" width="1251" height="770">
<path d="M1250.18 0.4664H0V769.807H1250.18V0.4664Z" fill="white"/>
</mask>
<g mask="url(#mask5_40008055_35450)">
<path d="M654.562 492.682L756.247 525.019" stroke="white" stroke-opacity="0.5" stroke-width="5.354"/>
</g>
<mask id="mask6_40008055_35450" style="mask-type:luminance" maskUnits="userSpaceOnUse" x="0" y="0" width="1251" height="770">
<path d="M1250.18 0.4664H0V769.807H1250.18V0.4664Z" fill="white"/>
</mask>
<g mask="url(#mask6_40008055_35450)">
<path d="M442.875 240.661L463.096 206.454C464.914 203.381 464.285 200.937 461.213 199.121L446.345 190.332C443.272 188.514 440.828 189.142 439.01 192.215L418.789 226.42C416.974 229.492 417.6 231.937 420.673 233.754L435.543 242.544C438.613 244.36 441.06 243.733 442.875 240.661Z" fill="white" fill-opacity="0.5" stroke="white" stroke-opacity="0.5" stroke-width="3.56933"/>
</g>
<mask id="mask7_40008055_35450" style="mask-type:luminance" maskUnits="userSpaceOnUse" x="0" y="0" width="1251" height="770">
<path d="M1250.18 0.4664H0V769.807H1250.18V0.4664Z" fill="white"/>
</mask>
<g mask="url(#mask7_40008055_35450)">
<path d="M427.768 225.133C427.308 225.914 427.344 226.727 427.878 227.574C428.413 228.419 429.452 229.298 430.994 230.211C432.527 231.116 433.795 231.602 434.795 231.663C435.795 231.723 436.526 231.366 436.987 230.584C437.452 229.8 437.416 228.982 436.879 228.137C436.345 227.29 435.308 226.412 433.774 225.504C432.233 224.594 430.962 224.107 429.965 224.049C428.965 223.986 428.231 224.349 427.768 225.133ZM426.566 224.425C427.31 223.168 428.373 222.502 429.76 222.428C431.143 222.352 432.78 222.873 434.669 223.989C436.555 225.104 437.8 226.285 438.399 227.538C439.002 228.785 438.931 230.04 438.186 231.295C437.444 232.55 436.384 233.215 435 233.291C433.614 233.365 431.977 232.847 430.094 231.731C428.202 230.613 426.958 229.432 426.358 228.182C425.755 226.933 425.826 225.68 426.566 224.425Z" fill="black"/>
<path d="M439.922 223.504L440.859 221.921L442.766 223.047L441.829 224.63L439.922 223.504Z" fill="black"/>
<path d="M433.527 213.11L437.045 207.161L438.321 207.916L435.624 212.478L438.368 214.099C438.424 213.836 438.497 213.583 438.589 213.341C438.681 213.099 438.794 212.868 438.926 212.647C439.665 211.397 440.591 210.61 441.71 210.284C442.825 209.958 443.969 210.142 445.138 210.834C446.345 211.544 447.058 212.476 447.284 213.62C447.508 214.765 447.216 216.02 446.408 217.385C446.132 217.856 445.808 218.311 445.44 218.753C445.072 219.192 444.653 219.624 444.185 220.05L442.662 219.148C443.172 218.842 443.63 218.487 444.033 218.077C444.438 217.669 444.798 217.196 445.114 216.661C445.624 215.796 445.803 214.978 445.648 214.204C445.49 213.431 445.022 212.812 444.243 212.349C443.462 211.889 442.696 211.779 441.944 212.015C441.189 212.249 440.555 212.799 440.044 213.665C439.805 214.07 439.61 214.499 439.463 214.957C439.313 215.412 439.21 215.904 439.155 216.435L433.527 213.11Z" fill="black"/>
<path d="M446.323 202.876C445.921 203.557 445.834 204.233 446.066 204.907C446.294 205.578 446.813 206.154 447.623 206.633C448.428 207.109 449.183 207.285 449.886 207.167C450.588 207.043 451.141 206.643 451.543 205.962C451.946 205.283 452.03 204.607 451.798 203.933C451.564 203.26 451.043 202.684 450.238 202.207C449.43 201.729 448.675 201.55 447.975 201.673C447.276 201.794 446.726 202.197 446.323 202.876ZM443.35 197.059L444.732 197.877C444.327 198.151 443.964 198.453 443.64 198.785C443.314 199.116 443.04 199.471 442.814 199.853C442.222 200.852 442.109 201.815 442.472 202.744C442.835 203.67 443.677 204.573 444.997 205.457C444.737 204.904 444.621 204.336 444.653 203.754C444.684 203.17 444.858 202.613 445.176 202.078C445.839 200.952 446.707 200.266 447.776 200.016C448.844 199.766 449.964 199.99 451.14 200.684C452.29 201.363 453.014 202.249 453.308 203.341C453.6 204.433 453.411 205.543 452.743 206.672C451.977 207.969 450.896 208.666 449.499 208.764C448.099 208.861 446.458 208.353 444.574 207.238C442.803 206.191 441.64 204.938 441.083 203.475C440.527 202.013 440.667 200.574 441.504 199.158C441.73 198.777 441.993 198.416 442.298 198.074C442.601 197.73 442.953 197.393 443.35 197.059Z" fill="black"/>
</g>
<mask id="mask8_40008055_35450" style="mask-type:luminance" maskUnits="userSpaceOnUse" x="0" y="0" width="1251" height="770">
<path d="M1250.18 0.4664H0V769.807H1250.18V0.4664Z" fill="white"/>
</mask>
<g mask="url(#mask8_40008055_35450)">
<path d="M496.397 152.59L518.543 119.598C520.532 116.634 520.046 114.158 517.081 112.168L502.742 102.542C499.777 100.552 497.301 101.04 495.313 104.003L473.163 136.995C471.174 139.959 471.661 142.435 474.626 144.425L488.967 154.052C491.929 156.041 494.405 155.554 496.397 152.59Z" fill="white" fill-opacity="0.5" stroke="white" stroke-opacity="0.5" stroke-width="3.56933"/>
</g>
<mask id="mask9_40008055_35450" style="mask-type:luminance" maskUnits="userSpaceOnUse" x="0" y="0" width="1251" height="770">
<path d="M1250.18 0.4664H0V769.807H1250.18V0.4664Z" fill="white"/>
</mask>
<g mask="url(#mask9_40008055_35450)">
<path d="M482.189 136.225C481.684 136.976 481.676 137.79 482.16 138.668C482.647 139.542 483.633 140.478 485.12 141.476C486.598 142.469 487.837 143.026 488.832 143.145C489.826 143.263 490.576 142.946 491.081 142.194C491.589 141.436 491.602 140.619 491.113 139.744C490.629 138.867 489.645 137.932 488.164 136.938C486.677 135.94 485.438 135.383 484.443 135.266C483.449 135.147 482.697 135.467 482.189 136.225ZM481.031 135.447C481.844 134.236 482.944 133.632 484.333 133.636C485.717 133.64 487.322 134.253 489.145 135.477C490.963 136.698 492.136 137.949 492.668 139.232C493.194 140.513 493.052 141.76 492.239 142.971C491.426 144.181 490.329 144.785 488.942 144.781C487.553 144.777 485.951 144.164 484.133 142.944C482.31 141.72 481.134 140.468 480.608 139.186C480.076 137.904 480.218 136.657 481.031 135.447Z" fill="black"/>
<path d="M494.422 135.294L495.445 133.766L497.284 135L496.258 136.528L494.422 135.294Z" fill="black"/>
<path d="M488.371 124.934L493.036 117.988L493.657 118.407L501.205 129.162L500.181 130.688L493.088 120.573L489.605 125.761L488.371 124.934Z" fill="black"/>
<path d="M504.687 121.31L506.289 118.923L498.047 113.39L496.823 116.337L495.492 115.444L496.708 112.51L497.686 111.049L507.26 117.476L508.862 115.089L510.094 115.914L505.916 122.135L504.687 121.31Z" fill="black"/>
</g>
<mask id="mask10_40008055_35450" style="mask-type:luminance" maskUnits="userSpaceOnUse" x="0" y="0" width="1251" height="770">
<path d="M1250.18 0.4664H0V769.807H1250.18V0.4664Z" fill="white"/>
</mask>
<g mask="url(#mask10_40008055_35450)">
<path d="M732.938 651.312L765.482 628.529C768.403 626.482 768.85 623.996 766.798 621.073L756.906 606.921C754.854 603.996 752.354 603.559 749.434 605.606L716.89 628.389C713.969 630.436 713.522 632.922 715.574 635.845L725.466 649.997C727.518 652.92 730.018 653.359 732.938 651.312Z" fill="white" fill-opacity="0.5" stroke="white" stroke-opacity="0.5" stroke-width="3.56933"/>
</g>
<mask id="mask11_40008055_35450" style="mask-type:luminance" maskUnits="userSpaceOnUse" x="0" y="0" width="1251" height="770">
<path d="M1250.18 0.4664H0V769.807H1250.18V0.4664Z" fill="white"/>
</mask>
<g mask="url(#mask11_40008055_35450)">
<path d="M725.572 630.925C724.835 631.446 724.546 632.201 724.677 633.196C724.809 634.185 725.387 635.414 726.413 636.882C727.439 638.342 728.387 639.307 729.281 639.776C730.176 640.247 730.991 640.22 731.728 639.702C732.465 639.178 732.78 638.421 732.623 637.429C732.491 636.434 731.912 635.208 730.886 633.746C729.86 632.28 728.913 631.312 728.019 630.846C727.15 630.375 726.335 630.402 725.572 630.925ZM724.782 629.783C725.966 628.947 727.229 628.781 728.518 629.286C729.807 629.789 731.07 630.938 732.333 632.738C733.596 634.532 734.227 636.124 734.28 637.51C734.306 638.894 733.727 640.007 732.517 640.844C731.333 641.68 730.07 641.846 728.781 641.344C727.492 640.838 726.229 639.689 724.967 637.895C723.704 636.095 723.072 634.503 723.046 633.117C722.994 631.73 723.598 630.62 724.782 629.783Z" fill="black"/>
<path d="M737.332 634.469L738.832 633.414L740.095 635.229L738.595 636.284L737.332 634.469Z" fill="black"/>
<path d="M735.41 622.625L742.277 617.829L742.698 618.444L745.855 631.196L744.355 632.251L741.382 620.257L736.252 623.84L735.41 622.625Z" fill="black"/>
<path d="M752.879 617.713C753.695 617.376 754.431 617.308 755.142 617.505C755.878 617.7 756.457 618.139 756.957 618.823C757.668 619.875 757.878 620.941 757.562 622.025C757.247 623.106 756.431 624.114 755.089 625.048C754.642 625.361 754.142 625.637 753.616 625.882C753.09 626.124 752.511 626.334 751.879 626.511L750.906 625.119C751.459 625.071 752.011 624.943 752.59 624.729C753.142 624.514 753.668 624.224 754.195 623.861C755.089 623.23 755.668 622.569 755.878 621.88C756.115 621.194 755.984 620.51 755.51 619.828C755.063 619.199 754.51 618.863 753.826 618.815C753.142 618.77 752.406 619.02 751.616 619.57L750.354 620.438L749.538 619.255L750.827 618.344C751.537 617.847 751.985 617.326 752.169 616.781C752.353 616.234 752.248 615.695 751.879 615.161C751.485 614.614 751.011 614.329 750.406 614.311C749.828 614.287 749.17 614.529 748.433 615.035C748.039 615.311 747.644 615.653 747.249 616.055C746.854 616.458 746.46 616.937 746.039 617.497L745.145 616.213C745.592 615.676 746.013 615.203 746.434 614.793C746.855 614.382 747.302 614.03 747.723 613.732C748.801 612.967 749.854 612.609 750.827 612.662C751.827 612.712 752.616 613.159 753.195 614.006C753.616 614.598 753.8 615.214 753.747 615.858C753.695 616.5 753.405 617.118 752.879 617.713Z" fill="black"/>
</g>
<mask id="mask12_40008055_35450" style="mask-type:luminance" maskUnits="userSpaceOnUse" x="0" y="0" width="1251" height="770">
<path d="M1250.18 0.4664H0V769.807H1250.18V0.4664Z" fill="white"/>
</mask>
<g mask="url(#mask12_40008055_35450)">
<path d="M749.699 548.168L763.143 585.561C764.353 588.921 766.642 589.997 770.009 588.786L786.242 582.943C789.609 581.735 790.688 579.452 789.478 576.092L776.034 538.699C774.824 535.342 772.535 534.266 769.193 535.474L752.935 541.32C749.567 542.527 748.488 544.811 749.699 548.168Z" fill="white" fill-opacity="0.5" stroke="white" stroke-opacity="0.5" stroke-width="3.56933"/>
</g>
<mask id="mask13_40008055_35450" style="mask-type:luminance" maskUnits="userSpaceOnUse" x="0" y="0" width="1251" height="770">
<path d="M1250.18 0.4664H0V769.807H1250.18V0.4664Z" fill="white"/>
</mask>
<g mask="url(#mask13_40008055_35450)">
<path d="M771.297 546.426C771.008 545.577 770.35 545.085 769.35 544.956C768.351 544.829 767.009 545.069 765.325 545.674C763.668 546.279 762.484 546.945 761.8 547.676C761.116 548.407 760.905 549.199 761.221 550.052C761.537 550.912 762.194 551.404 763.168 551.53C764.168 551.659 765.509 551.422 767.193 550.817C768.877 550.212 770.061 549.544 770.745 548.813C771.429 548.081 771.613 547.287 771.297 546.426ZM772.613 545.955C773.113 547.329 772.929 548.573 772.113 549.689C771.297 550.802 769.85 551.73 767.772 552.475C765.72 553.214 764.01 553.419 762.668 553.085C761.326 552.751 760.405 551.896 759.906 550.523C759.406 549.152 759.59 547.91 760.405 546.795C761.221 545.679 762.668 544.753 764.746 544.011C766.798 543.269 768.508 543.064 769.85 543.398C771.192 543.732 772.113 544.585 772.613 545.955Z" fill="black"/>
<path d="M764.797 556.832L765.429 558.563L763.35 559.312L762.719 557.581L764.797 556.832Z" fill="black"/>
<path d="M772.771 564.23C772.508 563.485 772.035 562.988 771.377 562.735C770.693 562.485 769.93 562.517 769.035 562.835C768.167 563.154 767.536 563.619 767.193 564.238C766.825 564.858 766.799 565.54 767.062 566.282C767.325 567.026 767.799 567.524 768.457 567.773C769.141 568.021 769.904 567.989 770.772 567.671C771.666 567.353 772.298 566.887 772.64 566.271C772.982 565.653 773.034 564.974 772.771 564.23ZM779.138 565.65L777.638 566.192C777.691 565.706 777.691 565.232 777.638 564.772C777.586 564.311 777.481 563.872 777.323 563.456C776.928 562.362 776.27 561.659 775.323 561.349C774.376 561.038 773.139 561.109 771.614 561.565C772.219 561.715 772.718 561.988 773.166 562.383C773.587 562.78 773.902 563.269 774.113 563.856C774.56 565.085 774.534 566.19 774.034 567.174C773.561 568.155 772.666 568.876 771.377 569.339C770.114 569.791 768.983 569.781 767.957 569.313C766.931 568.842 766.194 567.989 765.747 566.753C765.247 565.337 765.378 564.059 766.194 562.919C767.036 561.78 768.456 560.841 770.535 560.099C772.455 559.405 774.166 559.307 775.639 559.812C777.138 560.318 778.138 561.344 778.717 562.888C778.848 563.306 778.954 563.74 779.033 564.193C779.111 564.645 779.138 565.132 779.138 565.65Z" fill="black"/>
<path d="M770.378 574.53L772.456 580.31L771.062 580.81L768.273 573.038L769.668 572.538C770.536 572.93 771.72 573.475 773.22 574.164C774.693 574.856 775.666 575.285 776.061 575.448C776.85 575.763 777.482 575.953 777.982 576.013C778.481 576.076 778.929 576.037 779.323 575.892C779.955 575.658 780.402 575.24 780.665 574.637C780.902 574.032 780.902 573.364 780.639 572.63C780.455 572.112 780.165 571.596 779.77 571.083C779.376 570.573 778.902 570.054 778.297 569.531L779.955 568.928C780.455 569.499 780.902 570.049 781.244 570.578C781.586 571.109 781.849 571.617 782.007 572.099C782.48 573.367 782.507 574.493 782.165 575.474C781.796 576.455 781.086 577.137 780.033 577.518C779.507 577.7 779.007 577.776 778.481 577.75C777.981 577.723 777.324 577.573 776.534 577.295C776.324 577.216 775.693 576.945 774.667 576.484C773.667 576.027 772.22 575.374 770.378 574.53Z" fill="black"/>
</g>
<mask id="mask14_40008055_35450" style="mask-type:luminance" maskUnits="userSpaceOnUse" x="0" y="0" width="1251" height="770">
<path d="M1250.18 0.4664H0V769.807H1250.18V0.4664Z" fill="white"/>
</mask>
<g mask="url(#mask14_40008055_35450)">
<path d="M682.241 516.161L720.099 528.202C723.493 529.286 725.756 528.126 726.834 524.724L732.07 508.263C733.148 504.861 731.991 502.619 728.571 501.538L690.712 489.496C687.318 488.415 685.082 489.573 683.977 492.974L678.741 509.436C677.663 512.838 678.821 515.079 682.241 516.161Z" fill="white" fill-opacity="0.5" stroke="white" stroke-opacity="0.5" stroke-width="3.56933"/>
</g>
<mask id="mask15_40008055_35450" style="mask-type:luminance" maskUnits="userSpaceOnUse" x="0" y="0" width="1251" height="770">
<path d="M1250.18 0.4664H0V769.807H1250.18V0.4664Z" fill="white"/>
</mask>
<g mask="url(#mask15_40008055_35450)">
<path d="M693.976 497.947C693.108 497.673 692.345 497.892 691.635 498.605C690.924 499.315 690.293 500.522 689.767 502.227C689.214 503.927 689.03 505.271 689.188 506.26C689.372 507.25 689.872 507.881 690.74 508.155C691.608 508.431 692.398 508.213 693.108 507.502C693.792 506.789 694.423 505.584 694.976 503.885C695.502 502.18 695.686 500.833 695.528 499.846C695.37 498.857 694.844 498.223 693.976 497.947ZM694.397 496.618C695.792 497.06 696.686 497.949 697.054 499.283C697.449 500.615 697.317 502.325 696.633 504.419C695.976 506.505 695.108 507.981 694.029 508.849C692.95 509.715 691.714 509.925 690.319 509.483C688.925 509.041 688.03 508.155 687.662 506.823C687.267 505.49 687.399 503.779 688.083 501.693C688.741 499.602 689.609 498.12 690.688 497.257C691.793 496.389 693.029 496.176 694.397 496.618Z" fill="black"/>
<path d="M698.294 509.433L700.057 509.991L699.373 512.101L697.637 511.543L698.294 509.433Z" fill="black"/>
<path d="M708.501 508.512C707.685 508.26 707.001 508.273 706.396 508.555C705.817 508.839 705.396 509.352 705.159 510.096C704.923 510.846 704.975 511.504 705.291 512.077C705.607 512.648 706.159 513.061 706.975 513.316C707.764 513.569 708.448 513.553 709.053 513.272C709.658 512.988 710.079 512.475 710.316 511.733C710.553 510.986 710.5 510.328 710.185 509.754C709.869 509.183 709.29 508.77 708.501 508.512ZM707.054 507.268C706.37 506.863 705.923 506.35 705.686 505.729C705.449 505.108 705.423 504.442 705.66 503.732C705.975 502.743 706.58 502.072 707.448 501.72C708.343 501.37 709.395 501.388 710.632 501.78C711.868 502.172 712.736 502.769 713.263 503.569C713.789 504.366 713.894 505.263 713.579 506.253C713.342 506.96 712.947 507.5 712.394 507.865C711.842 508.231 711.184 508.389 710.395 508.339C711.158 508.783 711.658 509.352 711.947 510.044C712.21 510.736 712.237 511.475 711.973 512.264C711.605 513.469 710.947 514.274 710 514.685C709.053 515.092 707.922 515.079 706.554 514.645C705.186 514.211 704.239 513.556 703.686 512.68C703.16 511.804 703.107 510.764 703.476 509.562C703.739 508.77 704.16 508.173 704.791 507.771C705.423 507.365 706.185 507.2 707.054 507.268ZM707.264 504.424C707.054 505.066 707.106 505.629 707.396 506.116C707.685 506.602 708.185 506.963 708.922 507.192C709.632 507.423 710.263 507.421 710.763 507.192C711.289 506.96 711.658 506.526 711.868 505.884C712.079 505.24 712.026 504.674 711.737 504.185C711.447 503.698 710.921 503.337 710.211 503.109C709.474 502.877 708.869 502.88 708.343 503.111C707.843 503.343 707.475 503.779 707.264 504.424Z" fill="black"/>
<path d="M715.732 515.75L721.599 517.613L721.152 519.023L713.285 516.521L713.733 515.108C714.574 514.653 715.732 514.045 717.179 513.285C718.626 512.525 719.547 512.027 719.941 511.793C720.652 511.362 721.204 510.972 721.546 510.62C721.888 510.27 722.125 509.894 722.257 509.491C722.467 508.831 722.415 508.22 722.073 507.66C721.731 507.097 721.204 506.697 720.468 506.46C719.942 506.292 719.363 506.208 718.705 506.203C718.074 506.2 717.363 506.279 716.574 506.439L717.126 504.745C717.863 504.69 718.573 504.684 719.205 504.732C719.836 504.782 720.389 504.884 720.888 505.04C722.151 505.447 723.099 506.095 723.651 506.981C724.204 507.865 724.309 508.844 723.967 509.917C723.809 510.428 723.572 510.88 723.23 511.278C722.888 511.672 722.362 512.098 721.678 512.559C721.467 512.675 720.888 513.001 719.915 513.53C718.915 514.064 717.521 514.803 715.732 515.75Z" fill="black"/>
</g>
<mask id="mask16_40008055_35450" style="mask-type:luminance" maskUnits="userSpaceOnUse" x="0" y="0" width="1251" height="770">
<path d="M1250.18 0.4664H0V769.807H1250.18V0.4664Z" fill="white"/>
</mask>
<g mask="url(#mask16_40008055_35450)">
<path d="M472.37 225.099C488.766 225.099 504.491 218.585 516.085 206.99C527.68 195.399 534.194 179.671 534.194 163.276C534.194 146.88 527.68 131.154 516.085 119.561C504.491 107.967 488.766 101.453 472.37 101.453C455.975 101.453 440.247 107.967 428.655 119.561C417.061 131.154 410.547 146.88 410.547 163.276C410.547 179.671 417.061 195.399 428.655 206.99C440.247 218.585 455.975 225.099 472.37 225.099Z" fill="#67001F" stroke="white" stroke-opacity="0.5" stroke-width="3.56933"/>
</g>
<mask id="mask17_40008055_35450" style="mask-type:luminance" maskUnits="userSpaceOnUse" x="0" y="0" width="1251" height="770">
<path d="M1250.18 0.4664H0V769.807H1250.18V0.4664Z" fill="white"/>
</mask>
<g mask="url(#mask17_40008055_35450)">
<path d="M699.418 701.399C711.02 701.399 722.149 696.792 730.331 688.595C738.54 680.397 743.144 669.279 743.144 657.684C743.144 646.09 738.54 634.972 730.331 626.774C722.149 618.576 711.02 613.969 699.418 613.969C687.842 613.969 676.713 618.576 668.531 626.774C660.323 634.972 655.719 646.09 655.719 657.684C655.719 669.279 660.323 680.397 668.531 688.595C676.713 696.792 687.842 701.399 699.418 701.399Z" fill="#67001F" stroke="white" stroke-opacity="0.5" stroke-width="3.56933"/>
</g>
<mask id="mask18_40008055_35450" style="mask-type:luminance" maskUnits="userSpaceOnUse" x="0" y="0" width="1251" height="770">
<path d="M1250.18 0.4664H0V769.807H1250.18V0.4664Z" fill="white"/>
</mask>
<g mask="url(#mask18_40008055_35450)">
<path d="M409.52 326.025C424.487 326.025 438.841 320.077 449.425 309.495C460.009 298.911 465.955 284.554 465.955 269.587C465.955 254.62 460.009 240.266 449.425 229.682C438.841 219.098 424.487 213.152 409.52 213.152C394.553 213.152 380.196 219.098 369.612 229.682C359.03 240.266 353.082 254.62 353.082 269.587C353.082 284.554 359.03 298.911 369.612 309.495C380.196 320.077 394.553 326.025 409.52 326.025Z" fill="#67001F" stroke="white" stroke-opacity="0.5" stroke-width="3.56933"/>
</g>
<mask id="mask19_40008055_35450" style="mask-type:luminance" maskUnits="userSpaceOnUse" x="0" y="0" width="1251" height="770">
<path d="M1250.18 0.4664H0V769.807H1250.18V0.4664Z" fill="white"/>
</mask>
<g mask="url(#mask19_40008055_35450)">
<path d="M782.922 668.358C801.26 668.358 818.834 661.075 831.804 648.113C844.774 635.153 852.062 617.571 852.062 599.239C852.062 580.909 844.774 563.325 831.804 550.365C818.834 537.402 801.26 530.12 782.922 530.12C764.611 530.12 747.01 537.402 734.066 550.365C721.096 563.325 713.809 580.909 713.809 599.239C713.809 617.571 721.096 635.153 734.066 648.113C747.01 661.075 764.611 668.358 782.922 668.358Z" fill="black" stroke="white" stroke-opacity="0.5" stroke-width="3.56933"/>
</g>
<mask id="mask20_40008055_35450" style="mask-type:luminance" maskUnits="userSpaceOnUse" x="0" y="0" width="1251" height="770">
<path d="M1250.18 0.4664H0V769.807H1250.18V0.4664Z" fill="white"/>
</mask>
<g mask="url(#mask20_40008055_35450)">
<path d="M519.335 133.223C529.919 133.223 540.069 129.019 547.554 121.535C555.036 114.052 559.24 103.9 559.24 93.317C559.24 82.7337 555.036 72.5824 547.554 65.0991C540.069 57.6155 529.919 53.4108 519.335 53.4108C508.751 53.4108 498.601 57.6155 491.116 65.0991C483.634 72.5824 479.43 82.7337 479.43 93.317C479.43 103.9 483.634 114.052 491.116 121.535C498.601 129.019 508.751 133.223 519.335 133.223Z" fill="black" stroke="white" stroke-opacity="0.5" stroke-width="3.56933"/>
</g>
<mask id="mask21_40008055_35450" style="mask-type:luminance" maskUnits="userSpaceOnUse" x="0" y="0" width="1251" height="770">
<path d="M1250.18 0.4664H0V769.807H1250.18V0.4664Z" fill="white"/>
</mask>
<g mask="url(#mask21_40008055_35450)">
<path d="M654.563 532.59C665.139 532.59 675.295 528.384 682.793 520.901C690.264 513.416 694.474 503.266 694.474 492.682C694.474 482.098 690.264 471.948 682.793 464.466C675.295 456.981 665.139 452.777 654.563 452.777C643.987 452.777 633.832 456.981 626.36 464.466C618.862 471.948 614.652 482.098 614.652 492.682C614.652 503.266 618.862 513.416 626.36 520.901C633.832 528.384 643.987 532.59 654.563 532.59Z" fill="black" stroke="white" stroke-opacity="0.5" stroke-width="3.56933"/>
</g>
<mask id="mask22_40008055_35450" style="mask-type:luminance" maskUnits="userSpaceOnUse" x="0" y="0" width="1251" height="770">
<path d="M1250.18 0.4664H0V769.807H1250.18V0.4664Z" fill="white"/>
</mask>
<g mask="url(#mask22_40008055_35450)">
<path d="M756.245 581.454C771.215 581.454 785.58 575.508 796.156 564.924C806.732 554.34 812.678 539.986 812.678 525.019C812.678 510.052 806.732 495.695 796.156 485.111C785.58 474.529 771.215 468.583 756.245 468.583C741.276 468.583 726.911 474.529 716.335 485.111C705.758 495.695 699.812 510.052 699.812 525.019C699.812 539.986 705.758 554.34 716.335 564.924C726.911 575.508 741.276 581.454 756.245 581.454Z" fill="black" stroke="white" stroke-opacity="0.5" stroke-width="3.56933"/>
</g>
<mask id="mask23_40008055_35450" style="mask-type:luminance" maskUnits="userSpaceOnUse" x="0" y="0" width="1251" height="770">
<path d="M1250.18 0.4664H0V769.807H1250.18V0.4664Z" fill="white"/>
</mask>
<g mask="url(#mask23_40008055_35450)">
<path d="M454.58 153.983V168.146H457.558C460.073 168.146 461.912 167.577 463.08 166.44C464.246 165.3 464.827 163.502 464.827 161.045C464.827 158.606 464.246 156.819 463.08 155.685C461.912 154.55 460.073 153.983 457.558 153.983H454.58ZM452.117 151.957H457.182C460.71 151.957 463.298 152.691 464.948 154.158C466.603 155.626 467.429 157.922 467.429 161.045C467.429 164.186 466.598 166.494 464.937 167.967C463.28 169.437 460.694 170.172 457.182 170.172H452.117V151.957Z" fill="white" fill-opacity="0.5"/>
<path d="M471.355 151.957H473.821V159.425H482.776V151.957H485.239V170.172H482.776V161.498H473.821V170.172H471.355V151.957Z" fill="white" fill-opacity="0.5"/>
<path d="M490.141 151.957H492.603V170.172H490.141V151.957Z" fill="white" fill-opacity="0.5"/>
</g>
<mask id="mask24_40008055_35450" style="mask-type:luminance" maskUnits="userSpaceOnUse" x="0" y="0" width="1251" height="770">
<path d="M1250.18 0.4664H0V769.807H1250.18V0.4664Z" fill="white"/>
</mask>
<g mask="url(#mask24_40008055_35450)">
<path d="M675.137 646.363H677.584V653.833H686.555V646.363H689.002V664.58H686.555V655.906H677.584V664.58H675.137V646.363Z" fill="white" fill-opacity="0.5"/>
<path d="M696.369 648.389V655.235H699.473C700.631 655.235 701.499 654.938 702.13 654.343C702.762 653.751 703.077 652.904 703.077 651.807C703.077 650.715 702.762 649.873 702.13 649.281C701.499 648.686 700.631 648.389 699.473 648.389H696.369ZM693.922 646.363H699.473C701.525 646.363 703.051 646.827 704.103 647.75C705.156 648.673 705.682 650.026 705.682 651.807C705.682 653.604 705.156 654.964 704.103 655.882C703.051 656.8 701.525 657.261 699.473 657.261H696.369V664.58H693.922V646.363Z" fill="white" fill-opacity="0.5"/>
<path d="M716.363 648.034C714.574 648.034 713.153 648.702 712.101 650.036C711.049 651.37 710.523 653.188 710.523 655.49C710.523 657.784 711.049 659.6 712.101 660.933C713.153 662.267 714.574 662.933 716.363 662.933C718.152 662.933 719.573 662.267 720.625 660.933C721.677 659.6 722.204 657.784 722.204 655.49C722.204 653.188 721.677 651.37 720.625 650.036C719.573 648.702 718.152 648.034 716.363 648.034ZM719.836 664.251L723.072 667.8H720.099L717.389 664.885C717.126 664.901 716.916 664.911 716.784 664.919C716.626 664.93 716.495 664.935 716.363 664.935C713.811 664.935 711.759 664.08 710.233 662.367C708.707 660.655 707.918 658.363 707.918 655.49C707.918 652.612 708.707 650.318 710.233 648.605C711.759 646.892 713.811 646.035 716.363 646.035C718.915 646.035 720.967 646.892 722.493 648.605C724.019 650.318 724.782 652.612 724.782 655.49C724.782 657.605 724.361 659.415 723.519 660.923C722.677 662.425 721.441 663.535 719.836 664.251Z" fill="white" fill-opacity="0.5"/>
</g>
<mask id="mask25_40008055_35450" style="mask-type:luminance" maskUnits="userSpaceOnUse" x="0" y="0" width="1251" height="770">
<path d="M1250.18 0.4664H0V769.807H1250.18V0.4664Z" fill="white"/>
</mask>
<g mask="url(#mask25_40008055_35450)">
<path d="M389.982 258.266H392.445V275.215C392.445 277.412 392.029 279.006 391.195 279.995C390.363 280.987 389.022 281.484 387.175 281.484H386.238V279.411H387.006C388.096 279.411 388.864 279.106 389.311 278.493C389.758 277.885 389.982 276.791 389.982 275.215V258.266Z" fill="white" fill-opacity="0.5"/>
<path d="M399.817 260.292V267.135H402.916C404.063 267.135 404.95 266.841 405.576 266.246C406.202 265.654 406.515 264.807 406.515 263.71C406.515 262.618 406.202 261.776 405.576 261.184C404.95 260.59 404.063 260.292 402.916 260.292H399.817ZM397.352 258.266H402.916C404.96 258.266 406.502 258.729 407.546 259.653C408.593 260.576 409.114 261.929 409.114 263.71C409.114 265.507 408.593 266.867 407.546 267.785C406.502 268.703 404.96 269.164 402.916 269.164H399.817V276.483H397.352V258.266Z" fill="white" fill-opacity="0.5"/>
<path d="M412.418 258.266H416.091L420.737 270.661L425.409 258.266H429.085V276.483H426.68V260.487L421.984 272.981H419.508L414.812 260.487V276.483H412.418V258.266Z" fill="white" fill-opacity="0.5"/>
</g>
<mask id="mask26_40008055_35450" style="mask-type:luminance" maskUnits="userSpaceOnUse" x="0" y="0" width="1251" height="770">
<path d="M1250.18 0.4664H0V769.807H1250.18V0.4664Z" fill="white"/>
</mask>
<g mask="url(#mask26_40008055_35450)">
<path d="M759.191 589.591C757.402 589.591 755.982 590.257 754.929 591.593C753.877 592.925 753.351 594.743 753.351 597.047C753.351 599.339 753.877 601.154 754.929 602.488C755.982 603.822 757.402 604.487 759.191 604.487C760.98 604.487 762.401 603.822 763.454 602.488C764.506 601.154 765.032 599.339 765.032 597.047C765.032 594.743 764.506 592.925 763.454 591.593C762.401 590.257 760.98 589.591 759.191 589.591ZM759.191 587.592C761.743 587.592 763.795 588.447 765.321 590.16C766.847 591.872 767.61 594.169 767.61 597.047C767.61 599.918 766.847 602.209 765.321 603.922C763.795 605.634 761.743 606.49 759.191 606.49C756.64 606.49 754.587 605.637 753.061 603.93C751.509 602.22 750.746 599.925 750.746 597.047C750.746 594.169 751.509 591.872 753.061 590.16C754.587 588.447 756.64 587.592 759.191 587.592Z" fill="white" fill-opacity="0.5"/>
<path d="M780.106 597.592C780.632 597.773 781.158 598.155 781.658 598.741C782.158 599.326 782.658 600.131 783.158 601.157L785.657 606.134H783L780.685 601.462C780.08 600.241 779.501 599.431 778.922 599.033C778.37 598.636 777.607 598.436 776.633 598.436H773.923V606.134H771.477V587.918H777.028C779.106 587.918 780.658 588.355 781.684 589.226C782.71 590.096 783.237 591.409 783.237 593.167C783.237 594.314 782.974 595.266 782.448 596.024C781.895 596.779 781.132 597.302 780.106 597.592ZM773.923 589.944V596.411H777.028C778.212 596.411 779.106 596.134 779.738 595.587C780.343 595.037 780.632 594.23 780.632 593.167C780.632 592.101 780.343 591.299 779.738 590.757C779.106 590.215 778.212 589.944 777.028 589.944H773.923Z" fill="white" fill-opacity="0.5"/>
<path d="M801.234 589.326V591.92C800.392 591.149 799.498 590.57 798.577 590.191C797.63 589.81 796.63 589.618 795.577 589.618C793.499 589.618 791.894 590.254 790.789 591.528C789.684 592.798 789.132 594.64 789.132 597.047C789.132 599.447 789.684 601.283 790.789 602.556C791.894 603.827 793.499 604.464 795.577 604.464C796.63 604.464 797.63 604.272 798.577 603.89C799.498 603.509 800.392 602.93 801.234 602.156V604.735C800.366 605.319 799.445 605.758 798.498 606.053C797.524 606.345 796.498 606.49 795.42 606.49C792.684 606.49 790.5 605.648 788.921 603.961C787.316 602.272 786.527 599.968 786.527 597.047C786.527 594.119 787.316 591.812 788.921 590.125C790.5 588.436 792.684 587.592 795.42 587.592C796.525 587.592 797.551 587.736 798.498 588.023C799.471 588.313 800.392 588.747 801.234 589.326Z" fill="white" fill-opacity="0.5"/>
<path d="M805.02 587.918H807.493V604.061H816.359V606.134H805.02V587.918Z" fill="white" fill-opacity="0.5"/>
</g>
<mask id="mask27_40008055_35450" style="mask-type:luminance" maskUnits="userSpaceOnUse" x="0" y="0" width="1251" height="770">
<path d="M1250.18 0.4664H0V769.807H1250.18V0.4664Z" fill="white"/>
</mask>
<g mask="url(#mask27_40008055_35450)">
<path d="M507.747 82.5919V84.9968C506.813 84.549 505.931 84.216 505.1 83.9973C504.271 83.7761 503.469 83.6656 502.695 83.6656C501.356 83.6656 500.322 83.9258 499.594 84.4462C498.865 84.9668 498.499 85.7071 498.499 86.6677C498.499 87.4743 498.741 88.0834 499.225 88.4946C499.709 88.9032 500.628 89.2339 501.977 89.4862L503.466 89.7908C505.303 90.1421 506.658 90.759 507.534 91.6411C508.407 92.5235 508.844 93.7037 508.844 95.182C508.844 96.9492 508.252 98.2883 507.068 99.1992C505.887 100.11 504.153 100.566 501.869 100.566C501.006 100.566 500.091 100.468 499.117 100.273C498.147 100.078 497.139 99.7888 496.1 99.4062V96.8687C497.097 97.4283 498.078 97.8511 499.038 98.1373C499.999 98.4212 500.943 98.563 501.869 98.563C503.274 98.563 504.358 98.287 505.124 97.7353C505.889 97.181 506.273 96.3909 506.273 95.3657C506.273 94.473 505.997 93.774 505.447 93.2691C504.9 92.7643 503.998 92.3857 502.748 92.1331L501.243 91.8403C499.407 91.4759 498.076 90.9034 497.255 90.1226C496.434 89.3417 496.023 88.2552 496.023 86.8629C496.023 85.2517 496.592 83.9829 497.726 83.0565C498.862 82.1299 500.425 81.6666 502.414 81.6666C503.272 81.6666 504.142 81.7448 505.026 81.9008C505.916 82.0544 506.821 82.2849 507.747 82.5919Z" fill="white" fill-opacity="0.5"/>
<path d="M512.688 81.9948H515.153V89.4631H524.108V81.9948H526.571V100.211H524.108V91.536H515.153V100.211H512.688V81.9948Z" fill="white" fill-opacity="0.5"/>
<path d="M528.98 81.9948H531.63L536.679 89.4865L541.696 81.9948H544.342L537.899 91.536V100.211H535.426V91.536L528.98 81.9948Z" fill="white" fill-opacity="0.5"/>
</g>
<mask id="mask28_40008055_35450" style="mask-type:luminance" maskUnits="userSpaceOnUse" x="0" y="0" width="1251" height="770">
<path d="M1250.18 0.4664H0V769.807H1250.18V0.4664Z" fill="white"/>
</mask>
<g mask="url(#mask28_40008055_35450)">
<path d="M628.57 481.359H631.043V492.427C631.043 494.379 631.412 495.784 632.096 496.645C632.806 497.5 633.964 497.928 635.542 497.928C637.121 497.928 638.278 497.5 638.989 496.645C639.699 495.784 640.041 494.379 640.041 492.427V481.359H642.514V492.732C642.514 495.105 641.935 496.9 640.751 498.113C639.567 499.325 637.831 499.931 635.542 499.931C633.253 499.931 631.517 499.325 630.333 498.113C629.149 496.9 628.57 495.105 628.57 492.732V481.359Z" fill="white" fill-opacity="0.5"/>
<path d="M647.145 481.359H650.459L658.536 496.597V481.359H660.93V499.575H657.589L649.538 484.337V499.575H647.145V481.359Z" fill="white" fill-opacity="0.5"/>
<path d="M678.244 496.976V492.085H674.218V490.057H680.69V497.881C679.743 498.555 678.691 499.065 677.533 499.412C676.402 499.757 675.165 499.931 673.876 499.931C671.035 499.931 668.799 499.099 667.194 497.437C665.589 495.771 664.773 493.453 664.773 490.488C664.773 487.51 665.589 485.19 667.194 483.527C668.799 481.864 671.035 481.033 673.876 481.033C675.06 481.033 676.191 481.18 677.244 481.472C678.323 481.764 679.322 482.196 680.217 482.767V485.39C679.296 484.616 678.323 484.035 677.323 483.643C676.297 483.253 675.218 483.059 674.087 483.059C671.851 483.059 670.167 483.68 669.062 484.924C667.931 486.168 667.378 488.023 667.378 490.488C667.378 492.943 667.931 494.795 669.062 496.039C670.167 497.284 671.851 497.905 674.087 497.905C674.955 497.905 675.718 497.828 676.402 497.678C677.086 497.529 677.691 497.294 678.244 496.976Z" fill="white" fill-opacity="0.5"/>
</g>
<mask id="mask29_40008055_35450" style="mask-type:luminance" maskUnits="userSpaceOnUse" x="0" y="0" width="1251" height="770">
<path d="M1250.18 0.4664H0V769.807H1250.18V0.4664Z" fill="white"/>
</mask>
<g mask="url(#mask29_40008055_35450)">
<path d="M728.805 513.698H731.304L735.119 529.097L738.96 513.698H741.722L745.537 529.097L749.378 513.698H751.878L747.3 531.914H744.195L740.354 516.103L736.461 531.914H733.382L728.805 513.698Z" fill="white" fill-opacity="0.5"/>
<path d="M755.141 513.698H765.612V515.776H757.614V521.144H764.822V523.217H757.614V531.914H755.141V513.698Z" fill="white" fill-opacity="0.5"/>
<path d="M783.16 515.103V517.7C782.318 516.926 781.45 516.35 780.503 515.971C779.555 515.587 778.556 515.398 777.503 515.398C775.425 515.398 773.82 516.034 772.715 517.305C771.61 518.578 771.058 520.417 771.058 522.827C771.058 525.227 771.61 527.063 772.715 528.334C773.82 529.607 775.425 530.244 777.503 530.244C778.556 530.244 779.555 530.052 780.503 529.67C781.45 529.286 782.318 528.71 783.16 527.936V530.512C782.292 531.099 781.371 531.538 780.424 531.833C779.45 532.125 778.424 532.27 777.372 532.27C774.609 532.27 772.426 531.428 770.847 529.739C769.268 528.05 768.453 525.745 768.453 522.827C768.453 519.899 769.268 517.592 770.847 515.905C772.426 514.216 774.609 513.372 777.372 513.372C778.451 513.372 779.476 513.514 780.424 513.803C781.397 514.093 782.318 514.527 783.16 515.103Z" fill="white" fill-opacity="0.5"/>
</g>
</g>
<path d="M480.41 270.687C480.41 310.97 448.581 343.373 409.627 343.373C370.672 343.373 338.844 310.97 338.844 270.687C338.844 230.404 370.672 198 409.627 198C448.581 198 480.41 230.404 480.41 270.687Z" stroke="#FF0004" stroke-width="12"/>
<path d="M826.984 524.559C826.984 564.394 795.51 596.435 756.992 596.435C718.474 596.435 687 564.394 687 524.559C687 484.723 718.474 452.683 756.992 452.683C795.51 452.683 826.984 484.723 826.984 524.559Z" stroke="#FF0004" stroke-width="12"/>
</g>
<path d="M605.375 245.908V242.088H623.37V245.908H616.662V264H612.083V245.908H605.375ZM631.355 264.321C629.664 264.321 628.209 263.979 626.989 263.294C625.777 262.602 624.842 261.625 624.186 260.362C623.53 259.093 623.202 257.591 623.202 255.858C623.202 254.168 623.53 252.684 624.186 251.407C624.842 250.13 625.766 249.135 626.957 248.422C628.156 247.709 629.561 247.352 631.173 247.352C632.257 247.352 633.266 247.527 634.2 247.877C635.142 248.219 635.962 248.736 636.661 249.428C637.367 250.12 637.917 250.99 638.309 252.038C638.701 253.08 638.897 254.3 638.897 255.698V256.949H625.021V254.125H634.607C634.607 253.469 634.464 252.887 634.179 252.381C633.894 251.874 633.498 251.479 632.991 251.193C632.492 250.901 631.911 250.755 631.248 250.755C630.556 250.755 629.942 250.915 629.407 251.236C628.88 251.55 628.466 251.974 628.166 252.509C627.867 253.037 627.713 253.625 627.706 254.275V256.96C627.706 257.773 627.856 258.476 628.156 259.068C628.462 259.66 628.894 260.116 629.45 260.437C630.006 260.758 630.666 260.919 631.429 260.919C631.936 260.919 632.399 260.847 632.82 260.705C633.241 260.562 633.601 260.348 633.901 260.063C634.2 259.777 634.429 259.428 634.586 259.014L638.801 259.292C638.587 260.305 638.148 261.19 637.485 261.946C636.829 262.695 635.98 263.28 634.939 263.7C633.904 264.114 632.71 264.321 631.355 264.321ZM649.297 264.321C647.614 264.321 646.166 263.964 644.953 263.251C643.748 262.531 642.82 261.532 642.171 260.255C641.529 258.979 641.208 257.509 641.208 255.847C641.208 254.164 641.533 252.688 642.182 251.418C642.838 250.141 643.769 249.146 644.974 248.433C646.18 247.712 647.614 247.352 649.275 247.352C650.709 247.352 651.964 247.613 653.042 248.133C654.119 248.654 654.971 249.385 655.599 250.327C656.226 251.268 656.572 252.374 656.636 253.643H652.335C652.214 252.823 651.893 252.163 651.372 251.664C650.859 251.158 650.185 250.904 649.35 250.904C648.644 250.904 648.027 251.097 647.499 251.482C646.979 251.86 646.572 252.413 646.28 253.14C645.987 253.868 645.841 254.749 645.841 255.783C645.841 256.832 645.984 257.723 646.269 258.458C646.561 259.193 646.972 259.752 647.499 260.138C648.027 260.523 648.644 260.715 649.35 260.715C649.871 260.715 650.338 260.608 650.752 260.394C651.173 260.18 651.519 259.87 651.79 259.464C652.068 259.05 652.25 258.554 652.335 257.976H656.636C656.565 259.232 656.223 260.337 655.609 261.293C655.003 262.242 654.165 262.984 653.095 263.519C652.025 264.053 650.759 264.321 649.297 264.321ZM664.112 254.499V264H659.555V242.088H663.984V250.466H664.177C664.547 249.496 665.147 248.736 665.974 248.187C666.801 247.63 667.839 247.352 669.087 247.352C670.229 247.352 671.224 247.602 672.072 248.101C672.928 248.593 673.592 249.303 674.062 250.23C674.54 251.15 674.776 252.252 674.769 253.536V264H670.211V254.349C670.218 253.337 669.961 252.548 669.44 251.985C668.927 251.421 668.207 251.14 667.279 251.14C666.659 251.14 666.109 251.272 665.632 251.536C665.161 251.8 664.79 252.185 664.519 252.691C664.255 253.19 664.119 253.793 664.112 254.499ZM688.594 253.194V256.81H678.602V253.194H688.594ZM698.534 264.267C697.286 264.267 696.155 263.947 695.142 263.305C694.137 262.655 693.338 261.703 692.746 260.448C692.161 259.185 691.868 257.638 691.868 255.805C691.868 253.922 692.171 252.356 692.778 251.108C693.384 249.852 694.19 248.914 695.196 248.294C696.209 247.666 697.318 247.352 698.523 247.352C699.443 247.352 700.21 247.509 700.823 247.823C701.444 248.13 701.943 248.515 702.321 248.979C702.706 249.435 702.999 249.884 703.199 250.327H703.338V242.088H707.885V264H703.391V261.368H703.199C702.985 261.825 702.682 262.277 702.289 262.727C701.904 263.169 701.401 263.536 700.781 263.829C700.167 264.121 699.418 264.267 698.534 264.267ZM699.978 260.641C700.713 260.641 701.333 260.441 701.84 260.041C702.353 259.635 702.746 259.068 703.017 258.34C703.295 257.613 703.434 256.76 703.434 255.783C703.434 254.806 703.298 253.957 703.027 253.237C702.756 252.516 702.364 251.96 701.851 251.568C701.337 251.175 700.713 250.979 699.978 250.979C699.229 250.979 698.598 251.183 698.084 251.589C697.571 251.996 697.182 252.559 696.918 253.28C696.654 254 696.522 254.834 696.522 255.783C696.522 256.739 696.654 257.584 696.918 258.319C697.189 259.046 697.578 259.617 698.084 260.031C698.598 260.437 699.229 260.641 699.978 260.641ZM711.632 264V247.566H716.051V250.434H716.222C716.522 249.414 717.024 248.643 717.731 248.123C718.437 247.595 719.25 247.331 720.17 247.331C720.398 247.331 720.644 247.345 720.908 247.374C721.172 247.402 721.404 247.441 721.604 247.491V251.536C721.39 251.471 721.094 251.414 720.716 251.364C720.338 251.315 719.992 251.29 719.678 251.29C719.007 251.29 718.408 251.436 717.88 251.728C717.36 252.014 716.946 252.413 716.639 252.926C716.34 253.44 716.19 254.032 716.19 254.703V264H711.632ZM723.96 264V247.566H728.518V264H723.96ZM726.25 245.448C725.572 245.448 724.991 245.223 724.506 244.774C724.028 244.317 723.789 243.772 723.789 243.137C723.789 242.509 724.028 241.971 724.506 241.521C724.991 241.065 725.572 240.837 726.25 240.837C726.927 240.837 727.505 241.065 727.983 241.521C728.468 241.971 728.71 242.509 728.71 243.137C728.71 243.772 728.468 244.317 727.983 244.774C727.505 245.223 726.927 245.448 726.25 245.448ZM747.49 247.566L741.745 264H736.609L730.864 247.566H735.678L739.091 259.325H739.262L742.665 247.566H747.49ZM756.782 264.321C755.092 264.321 753.637 263.979 752.417 263.294C751.204 262.602 750.27 261.625 749.614 260.362C748.958 259.093 748.629 257.591 748.629 255.858C748.629 254.168 748.958 252.684 749.614 251.407C750.27 250.13 751.194 249.135 752.385 248.422C753.583 247.709 754.988 247.352 756.6 247.352C757.684 247.352 758.694 247.527 759.628 247.877C760.57 248.219 761.39 248.736 762.089 249.428C762.795 250.12 763.344 250.99 763.736 252.038C764.129 253.08 764.325 254.3 764.325 255.698V256.949H750.448V254.125H760.035C760.035 253.469 759.892 252.887 759.607 252.381C759.321 251.874 758.925 251.479 758.419 251.193C757.92 250.901 757.338 250.755 756.675 250.755C755.983 250.755 755.37 250.915 754.835 251.236C754.307 251.55 753.893 251.974 753.594 252.509C753.294 253.037 753.141 253.625 753.134 254.275V256.96C753.134 257.773 753.284 258.476 753.583 259.068C753.89 259.66 754.321 260.116 754.878 260.437C755.434 260.758 756.094 260.919 756.857 260.919C757.363 260.919 757.827 260.847 758.248 260.705C758.669 260.562 759.029 260.348 759.328 260.063C759.628 259.777 759.856 259.428 760.013 259.014L764.229 259.292C764.015 260.305 763.576 261.19 762.913 261.946C762.256 262.695 761.408 263.28 760.366 263.7C759.332 264.114 758.137 264.321 756.782 264.321ZM771.857 254.499V264H767.299V247.566H771.643V250.466H771.836C772.199 249.51 772.809 248.754 773.665 248.198C774.521 247.634 775.559 247.352 776.779 247.352C777.92 247.352 778.915 247.602 779.764 248.101C780.612 248.601 781.272 249.314 781.743 250.241C782.214 251.161 782.449 252.26 782.449 253.536V264H777.891V254.349C777.898 253.344 777.642 252.559 777.121 251.996C776.6 251.425 775.883 251.14 774.97 251.14C774.357 251.14 773.815 251.272 773.344 251.536C772.881 251.8 772.517 252.185 772.253 252.691C771.996 253.19 771.864 253.793 771.857 254.499ZM606.209 301V279.088H620.717V282.908H610.842V288.129H619.754V291.949H610.842V301H606.209ZM623.748 301V284.566H628.305V301H623.748ZM626.037 282.448C625.36 282.448 624.778 282.223 624.293 281.774C623.815 281.317 623.576 280.772 623.576 280.137C623.576 279.509 623.815 278.971 624.293 278.521C624.778 278.065 625.36 277.837 626.037 277.837C626.715 277.837 627.292 278.065 627.77 278.521C628.255 278.971 628.498 279.509 628.498 280.137C628.498 280.772 628.255 281.317 627.77 281.774C627.292 282.223 626.715 282.448 626.037 282.448ZM636.514 291.499V301H631.956V284.566H636.3V287.466H636.493C636.857 286.51 637.466 285.754 638.322 285.198C639.178 284.634 640.216 284.352 641.436 284.352C642.577 284.352 643.572 284.602 644.421 285.101C645.27 285.601 645.929 286.314 646.4 287.241C646.871 288.161 647.106 289.26 647.106 290.536V301H642.548V291.349C642.556 290.344 642.299 289.559 641.778 288.996C641.257 288.425 640.541 288.14 639.628 288.14C639.014 288.14 638.472 288.272 638.001 288.536C637.538 288.8 637.174 289.185 636.91 289.691C636.653 290.19 636.521 290.793 636.514 291.499ZM655.385 301.31C654.336 301.31 653.402 301.128 652.581 300.765C651.761 300.394 651.112 299.848 650.634 299.128C650.163 298.4 649.928 297.494 649.928 296.41C649.928 295.497 650.096 294.73 650.431 294.11C650.766 293.489 651.223 292.99 651.8 292.612C652.378 292.234 653.034 291.949 653.769 291.756C654.511 291.563 655.288 291.428 656.101 291.349C657.057 291.25 657.828 291.157 658.412 291.071C658.997 290.979 659.422 290.843 659.686 290.665C659.95 290.486 660.081 290.222 660.081 289.873V289.809C660.081 289.131 659.867 288.607 659.44 288.236C659.019 287.865 658.42 287.68 657.642 287.68C656.822 287.68 656.169 287.862 655.684 288.225C655.199 288.582 654.878 289.031 654.721 289.573L650.506 289.231C650.72 288.232 651.141 287.369 651.768 286.642C652.396 285.907 653.206 285.344 654.197 284.951C655.196 284.552 656.351 284.352 657.663 284.352C658.576 284.352 659.45 284.459 660.285 284.673C661.126 284.887 661.872 285.219 662.521 285.668C663.177 286.118 663.694 286.695 664.072 287.402C664.45 288.101 664.639 288.939 664.639 289.916V301H660.317V298.721H660.188C659.925 299.235 659.571 299.688 659.129 300.08C658.687 300.465 658.156 300.768 657.535 300.989C656.915 301.203 656.198 301.31 655.385 301.31ZM656.69 298.165C657.36 298.165 657.952 298.033 658.466 297.769C658.979 297.498 659.382 297.134 659.675 296.678C659.967 296.221 660.114 295.704 660.114 295.126V293.382C659.971 293.475 659.775 293.561 659.525 293.639C659.283 293.71 659.008 293.778 658.701 293.842C658.395 293.899 658.088 293.953 657.781 294.003C657.474 294.046 657.196 294.085 656.947 294.121C656.412 294.199 655.945 294.324 655.545 294.495C655.146 294.666 654.835 294.898 654.614 295.19C654.393 295.476 654.283 295.832 654.283 296.26C654.283 296.881 654.507 297.355 654.957 297.683C655.413 298.004 655.991 298.165 656.69 298.165ZM672.733 291.499V301H668.175V284.566H672.519V287.466H672.712C673.075 286.51 673.685 285.754 674.541 285.198C675.397 284.634 676.435 284.352 677.655 284.352C678.796 284.352 679.791 284.602 680.64 285.101C681.488 285.601 682.148 286.314 682.619 287.241C683.09 288.161 683.325 289.26 683.325 290.536V301H678.767V291.349C678.774 290.344 678.518 289.559 677.997 288.996C677.476 288.425 676.76 288.14 675.847 288.14C675.233 288.14 674.691 288.272 674.22 288.536C673.757 288.8 673.393 289.185 673.129 289.691C672.872 290.19 672.74 290.793 672.733 291.499ZM694.342 301.321C692.659 301.321 691.211 300.964 689.999 300.251C688.793 299.531 687.866 298.532 687.217 297.255C686.575 295.979 686.254 294.509 686.254 292.847C686.254 291.164 686.579 289.688 687.228 288.418C687.884 287.141 688.815 286.146 690.02 285.433C691.226 284.712 692.659 284.352 694.321 284.352C695.755 284.352 697.01 284.613 698.087 285.133C699.164 285.654 700.017 286.385 700.644 287.327C701.272 288.268 701.618 289.374 701.682 290.643H697.381C697.26 289.823 696.939 289.163 696.418 288.664C695.905 288.158 695.231 287.904 694.396 287.904C693.69 287.904 693.073 288.097 692.545 288.482C692.024 288.86 691.618 289.413 691.325 290.14C691.033 290.868 690.887 291.749 690.887 292.783C690.887 293.832 691.029 294.723 691.315 295.458C691.607 296.193 692.017 296.752 692.545 297.138C693.073 297.523 693.69 297.715 694.396 297.715C694.917 297.715 695.384 297.608 695.798 297.394C696.218 297.18 696.564 296.87 696.835 296.464C697.114 296.05 697.295 295.554 697.381 294.976H701.682C701.611 296.232 701.268 297.337 700.655 298.293C700.049 299.242 699.211 299.984 698.141 300.519C697.071 301.053 695.805 301.321 694.342 301.321ZM704.6 301V284.566H709.158V301H704.6ZM706.89 282.448C706.212 282.448 705.631 282.223 705.146 281.774C704.668 281.317 704.429 280.772 704.429 280.137C704.429 279.509 704.668 278.971 705.146 278.521C705.631 278.065 706.212 277.837 706.89 277.837C707.567 277.837 708.145 278.065 708.623 278.521C709.108 278.971 709.351 279.509 709.351 280.137C709.351 280.772 709.108 281.317 708.623 281.774C708.145 282.223 707.567 282.448 706.89 282.448ZM717.495 301.31C716.447 301.31 715.512 301.128 714.692 300.765C713.872 300.394 713.223 299.848 712.745 299.128C712.274 298.4 712.039 297.494 712.039 296.41C712.039 295.497 712.206 294.73 712.542 294.11C712.877 293.489 713.333 292.99 713.911 292.612C714.489 292.234 715.145 291.949 715.88 291.756C716.621 291.563 717.399 291.428 718.212 291.349C719.168 291.25 719.938 291.157 720.523 291.071C721.108 290.979 721.532 290.843 721.796 290.665C722.06 290.486 722.192 290.222 722.192 289.873V289.809C722.192 289.131 721.978 288.607 721.55 288.236C721.129 287.865 720.53 287.68 719.753 287.68C718.932 287.68 718.28 287.862 717.795 288.225C717.31 288.582 716.989 289.031 716.832 289.573L712.616 289.231C712.83 288.232 713.251 287.369 713.879 286.642C714.507 285.907 715.316 285.344 716.308 284.951C717.306 284.552 718.462 284.352 719.774 284.352C720.687 284.352 721.561 284.459 722.395 284.673C723.237 284.887 723.982 285.219 724.631 285.668C725.288 286.118 725.805 286.695 726.183 287.402C726.561 288.101 726.75 288.939 726.75 289.916V301H722.427V298.721H722.299C722.035 299.235 721.682 299.688 721.24 300.08C720.798 300.465 720.266 300.768 719.646 300.989C719.025 301.203 718.308 301.31 717.495 301.31ZM718.801 298.165C719.471 298.165 720.063 298.033 720.577 297.769C721.09 297.498 721.493 297.134 721.786 296.678C722.078 296.221 722.224 295.704 722.224 295.126V293.382C722.082 293.475 721.885 293.561 721.636 293.639C721.393 293.71 721.119 293.778 720.812 293.842C720.505 293.899 720.199 293.953 719.892 294.003C719.585 294.046 719.307 294.085 719.057 294.121C718.522 294.199 718.055 294.324 717.656 294.495C717.256 294.666 716.946 294.898 716.725 295.19C716.504 295.476 716.393 295.832 716.393 296.26C716.393 296.881 716.618 297.355 717.067 297.683C717.524 298.004 718.102 298.165 718.801 298.165ZM734.844 279.088V301H730.286V279.088H734.844ZM752.168 289.252L747.996 289.509C747.924 289.153 747.771 288.832 747.535 288.546C747.3 288.254 746.99 288.022 746.605 287.851C746.227 287.673 745.774 287.583 745.246 287.583C744.54 287.583 743.944 287.733 743.459 288.033C742.974 288.325 742.732 288.717 742.732 289.21C742.732 289.602 742.889 289.934 743.202 290.205C743.516 290.476 744.055 290.693 744.818 290.857L747.792 291.456C749.39 291.785 750.581 292.312 751.366 293.04C752.15 293.767 752.543 294.723 752.543 295.907C752.543 296.984 752.225 297.929 751.59 298.743C750.963 299.556 750.1 300.19 749.001 300.647C747.91 301.096 746.651 301.321 745.224 301.321C743.049 301.321 741.316 300.868 740.025 299.962C738.741 299.049 737.988 297.808 737.767 296.239L742.25 296.004C742.386 296.667 742.714 297.173 743.234 297.523C743.755 297.865 744.422 298.036 745.235 298.036C746.034 298.036 746.676 297.883 747.161 297.576C747.653 297.262 747.903 296.859 747.91 296.367C747.903 295.954 747.728 295.615 747.386 295.351C747.043 295.08 746.515 294.873 745.802 294.73L742.956 294.163C741.351 293.842 740.157 293.286 739.372 292.494C738.595 291.703 738.206 290.693 738.206 289.466C738.206 288.411 738.491 287.501 739.062 286.738C739.64 285.975 740.449 285.387 741.491 284.973C742.539 284.559 743.766 284.352 745.171 284.352C747.247 284.352 748.88 284.791 750.071 285.668C751.269 286.546 751.968 287.74 752.168 289.252ZM769.105 301.321C767.593 301.321 766.287 301.05 765.189 300.508C764.09 299.966 763.245 299.231 762.653 298.304C762.068 297.369 761.776 296.328 761.776 295.18C761.776 294.324 761.947 293.564 762.289 292.901C762.632 292.237 763.11 291.628 763.723 291.071C764.337 290.508 765.05 289.948 765.863 289.392L770.11 286.599C770.66 286.25 771.063 285.882 771.319 285.497C771.576 285.105 771.705 284.68 771.705 284.224C771.705 283.789 771.53 283.386 771.18 283.015C770.831 282.644 770.335 282.462 769.693 282.469C769.265 282.469 768.894 282.566 768.58 282.758C768.267 282.944 768.021 283.19 767.842 283.496C767.671 283.796 767.585 284.131 767.585 284.502C767.585 284.959 767.714 285.422 767.971 285.893C768.227 286.364 768.57 286.863 768.998 287.391C769.426 287.912 769.893 288.475 770.399 289.081L780.788 301H776.038L767.371 291.349C766.801 290.7 766.23 290.023 765.66 289.317C765.096 288.603 764.625 287.847 764.247 287.048C763.869 286.242 763.68 285.369 763.68 284.427C763.68 283.364 763.926 282.409 764.419 281.56C764.918 280.711 765.617 280.041 766.516 279.548C767.414 279.049 768.463 278.799 769.661 278.799C770.831 278.799 771.84 279.038 772.689 279.516C773.545 279.987 774.201 280.615 774.658 281.399C775.121 282.177 775.353 283.033 775.353 283.967C775.353 285.001 775.096 285.939 774.583 286.781C774.076 287.615 773.363 288.364 772.443 289.028L767.971 292.248C767.364 292.69 766.915 293.143 766.623 293.607C766.337 294.063 766.195 294.502 766.195 294.923C766.195 295.444 766.323 295.911 766.58 296.325C766.837 296.738 767.2 297.066 767.671 297.309C768.142 297.544 768.695 297.662 769.329 297.662C770.1 297.662 770.859 297.487 771.608 297.138C772.364 296.781 773.049 296.278 773.663 295.629C774.283 294.973 774.779 294.195 775.15 293.297C775.521 292.398 775.706 291.403 775.706 290.312H779.483C779.483 291.653 779.337 292.862 779.044 293.939C778.752 295.009 778.345 295.943 777.824 296.742C777.304 297.534 776.708 298.183 776.038 298.689C775.824 298.825 775.617 298.953 775.417 299.074C775.217 299.195 775.011 299.324 774.797 299.459C773.983 300.116 773.074 300.59 772.068 300.882C771.07 301.175 770.082 301.321 769.105 301.321ZM804.275 286.171C804.125 285.65 803.915 285.19 803.644 284.791C803.373 284.384 803.041 284.042 802.649 283.764C802.264 283.479 801.822 283.261 801.322 283.111C800.83 282.961 800.284 282.887 799.685 282.887C798.565 282.887 797.581 283.165 796.732 283.721C795.891 284.277 795.234 285.087 794.764 286.15C794.293 287.205 794.058 288.496 794.058 290.023C794.058 291.549 794.289 292.847 794.753 293.917C795.217 294.987 795.873 295.804 796.722 296.367C797.57 296.924 798.573 297.202 799.728 297.202C800.777 297.202 801.672 297.016 802.414 296.645C803.162 296.267 803.733 295.736 804.125 295.051C804.525 294.367 804.725 293.557 804.725 292.623L805.666 292.762H800.017V289.274H809.186V292.034C809.186 293.96 808.779 295.615 807.966 296.999C807.153 298.375 806.033 299.438 804.607 300.187C803.18 300.929 801.547 301.3 799.707 301.3C797.652 301.3 795.848 300.847 794.293 299.941C792.738 299.028 791.525 297.733 790.655 296.057C789.792 294.374 789.361 292.377 789.361 290.066C789.361 288.29 789.617 286.706 790.131 285.315C790.652 283.917 791.379 282.733 792.314 281.763C793.248 280.793 794.336 280.055 795.577 279.548C796.818 279.042 798.162 278.789 799.61 278.789C800.851 278.789 802.007 278.971 803.077 279.334C804.147 279.691 805.095 280.197 805.923 280.854C806.757 281.51 807.439 282.291 807.966 283.197C808.494 284.096 808.833 285.087 808.983 286.171H804.275ZM812.58 301V284.566H816.999V287.434H817.17C817.47 286.414 817.973 285.643 818.679 285.123C819.385 284.595 820.198 284.331 821.118 284.331C821.346 284.331 821.592 284.345 821.856 284.374C822.12 284.402 822.352 284.441 822.552 284.491V288.536C822.338 288.471 822.042 288.414 821.664 288.364C821.286 288.315 820.94 288.29 820.626 288.29C819.956 288.29 819.356 288.436 818.829 288.728C818.308 289.014 817.894 289.413 817.587 289.926C817.288 290.44 817.138 291.032 817.138 291.703V301H812.58ZM831.568 301.321C829.907 301.321 828.469 300.968 827.257 300.262C826.051 299.548 825.12 298.557 824.464 297.287C823.808 296.011 823.48 294.531 823.48 292.847C823.48 291.15 823.808 289.666 824.464 288.397C825.12 287.12 826.051 286.128 827.257 285.422C828.469 284.709 829.907 284.352 831.568 284.352C833.23 284.352 834.664 284.709 835.869 285.422C837.082 286.128 838.016 287.12 838.673 288.397C839.329 289.666 839.657 291.15 839.657 292.847C839.657 294.531 839.329 296.011 838.673 297.287C838.016 298.557 837.082 299.548 835.869 300.262C834.664 300.968 833.23 301.321 831.568 301.321ZM831.59 297.79C832.346 297.79 832.977 297.576 833.484 297.148C833.99 296.713 834.372 296.121 834.628 295.372C834.892 294.623 835.024 293.771 835.024 292.815C835.024 291.859 834.892 291.007 834.628 290.258C834.372 289.509 833.99 288.917 833.484 288.482C832.977 288.047 832.346 287.829 831.59 287.829C830.827 287.829 830.185 288.047 829.664 288.482C829.15 288.917 828.762 289.509 828.498 290.258C828.241 291.007 828.113 291.859 828.113 292.815C828.113 293.771 828.241 294.623 828.498 295.372C828.762 296.121 829.15 296.713 829.664 297.148C830.185 297.576 830.827 297.79 831.59 297.79ZM845.45 301L840.978 284.566H845.59L848.136 295.608H848.286L850.939 284.566H855.465L858.161 295.543H858.3L860.804 284.566H865.404L860.943 301H856.117L853.293 290.665H853.09L850.265 301H845.45ZM876.577 284.566V287.99H866.68V284.566H876.577ZM868.927 280.629H873.485V295.95C873.485 296.371 873.549 296.699 873.677 296.934C873.806 297.163 873.984 297.323 874.212 297.416C874.448 297.509 874.719 297.555 875.025 297.555C875.239 297.555 875.453 297.537 875.667 297.501C875.881 297.459 876.045 297.427 876.159 297.405L876.876 300.797C876.648 300.868 876.327 300.95 875.913 301.043C875.5 301.143 874.997 301.203 874.405 301.225C873.306 301.267 872.343 301.121 871.516 300.786C870.696 300.451 870.057 299.93 869.601 299.224C869.144 298.518 868.92 297.626 868.927 296.549V280.629ZM884.456 291.499V301H879.899V279.088H884.328V287.466H884.521C884.892 286.496 885.491 285.736 886.318 285.187C887.145 284.63 888.183 284.352 889.432 284.352C890.573 284.352 891.568 284.602 892.417 285.101C893.272 285.593 893.936 286.303 894.407 287.23C894.884 288.15 895.12 289.252 895.113 290.536V301H890.555V291.349C890.562 290.337 890.305 289.548 889.785 288.985C889.271 288.421 888.551 288.14 887.623 288.14C887.003 288.14 886.454 288.272 885.976 288.536C885.505 288.8 885.134 289.185 884.863 289.691C884.599 290.19 884.464 290.793 884.456 291.499Z" fill="white"/>
<ellipse cx="559.03" cy="271.655" rx="21.7252" ry="21.6549" fill="white"/>
<path d="M562.169 265.372V282.826H558.478V268.875H558.376L554.379 271.38V268.108L558.7 265.372H562.169Z" fill="black"/>
<path d="M318.209 595V573.088H332.717V576.908H322.842V582.129H331.754V585.949H322.842V595H318.209ZM335.748 595V578.566H340.305V595H335.748ZM338.037 576.448C337.36 576.448 336.778 576.223 336.293 575.774C335.815 575.317 335.576 574.772 335.576 574.137C335.576 573.509 335.815 572.971 336.293 572.521C336.778 572.065 337.36 571.837 338.037 571.837C338.715 571.837 339.292 572.065 339.77 572.521C340.255 572.971 340.498 573.509 340.498 574.137C340.498 574.772 340.255 575.317 339.77 575.774C339.292 576.223 338.715 576.448 338.037 576.448ZM348.514 585.499V595H343.956V578.566H348.3V581.466H348.493C348.857 580.51 349.466 579.754 350.322 579.198C351.178 578.634 352.216 578.352 353.436 578.352C354.577 578.352 355.572 578.602 356.421 579.101C357.27 579.601 357.929 580.314 358.4 581.241C358.871 582.161 359.106 583.26 359.106 584.536V595H354.548V585.349C354.556 584.344 354.299 583.559 353.778 582.996C353.257 582.425 352.541 582.14 351.628 582.14C351.014 582.14 350.472 582.272 350.001 582.536C349.538 582.8 349.174 583.185 348.91 583.691C348.653 584.19 348.521 584.793 348.514 585.499ZM367.385 595.31C366.336 595.31 365.402 595.128 364.581 594.765C363.761 594.394 363.112 593.848 362.634 593.128C362.163 592.4 361.928 591.494 361.928 590.41C361.928 589.497 362.096 588.73 362.431 588.11C362.766 587.489 363.223 586.99 363.8 586.612C364.378 586.234 365.034 585.949 365.769 585.756C366.511 585.563 367.288 585.428 368.101 585.349C369.057 585.25 369.828 585.157 370.412 585.071C370.997 584.979 371.422 584.843 371.686 584.665C371.95 584.486 372.081 584.222 372.081 583.873V583.809C372.081 583.131 371.867 582.607 371.44 582.236C371.019 581.865 370.42 581.68 369.642 581.68C368.822 581.68 368.169 581.862 367.684 582.225C367.199 582.582 366.878 583.031 366.721 583.573L362.506 583.231C362.72 582.232 363.141 581.369 363.768 580.642C364.396 579.907 365.206 579.344 366.197 578.951C367.196 578.552 368.351 578.352 369.663 578.352C370.576 578.352 371.45 578.459 372.285 578.673C373.126 578.887 373.872 579.219 374.521 579.668C375.177 580.118 375.694 580.695 376.072 581.402C376.45 582.101 376.639 582.939 376.639 583.916V595H372.317V592.721H372.188C371.925 593.235 371.571 593.688 371.129 594.08C370.687 594.465 370.156 594.768 369.535 594.989C368.915 595.203 368.198 595.31 367.385 595.31ZM368.69 592.165C369.36 592.165 369.952 592.033 370.466 591.769C370.979 591.498 371.382 591.134 371.675 590.678C371.967 590.221 372.114 589.704 372.114 589.126V587.382C371.971 587.475 371.775 587.561 371.525 587.639C371.283 587.71 371.008 587.778 370.701 587.842C370.395 587.899 370.088 587.953 369.781 588.003C369.474 588.046 369.196 588.085 368.947 588.121C368.412 588.199 367.945 588.324 367.545 588.495C367.146 588.666 366.835 588.898 366.614 589.19C366.393 589.476 366.283 589.832 366.283 590.26C366.283 590.881 366.507 591.355 366.957 591.683C367.413 592.004 367.991 592.165 368.69 592.165ZM384.733 585.499V595H380.175V578.566H384.519V581.466H384.712C385.075 580.51 385.685 579.754 386.541 579.198C387.397 578.634 388.435 578.352 389.655 578.352C390.796 578.352 391.791 578.602 392.64 579.101C393.488 579.601 394.148 580.314 394.619 581.241C395.09 582.161 395.325 583.26 395.325 584.536V595H390.767V585.349C390.774 584.344 390.518 583.559 389.997 582.996C389.476 582.425 388.76 582.14 387.847 582.14C387.233 582.14 386.691 582.272 386.22 582.536C385.757 582.8 385.393 583.185 385.129 583.691C384.872 584.19 384.74 584.793 384.733 585.499ZM406.342 595.321C404.659 595.321 403.211 594.964 401.999 594.251C400.793 593.531 399.866 592.532 399.217 591.255C398.575 589.979 398.254 588.509 398.254 586.847C398.254 585.164 398.579 583.688 399.228 582.418C399.884 581.141 400.815 580.146 402.02 579.433C403.226 578.712 404.659 578.352 406.321 578.352C407.755 578.352 409.01 578.613 410.087 579.133C411.164 579.654 412.017 580.385 412.644 581.327C413.272 582.268 413.618 583.374 413.682 584.643H409.381C409.26 583.823 408.939 583.163 408.418 582.664C407.905 582.158 407.231 581.904 406.396 581.904C405.69 581.904 405.073 582.097 404.545 582.482C404.024 582.86 403.618 583.413 403.325 584.14C403.033 584.868 402.887 585.749 402.887 586.783C402.887 587.832 403.029 588.723 403.315 589.458C403.607 590.193 404.017 590.752 404.545 591.138C405.073 591.523 405.69 591.715 406.396 591.715C406.917 591.715 407.384 591.608 407.798 591.394C408.218 591.18 408.564 590.87 408.835 590.464C409.114 590.05 409.295 589.554 409.381 588.976H413.682C413.611 590.232 413.268 591.337 412.655 592.293C412.049 593.242 411.211 593.984 410.141 594.519C409.071 595.053 407.805 595.321 406.342 595.321ZM416.6 595V578.566H421.158V595H416.6ZM418.89 576.448C418.212 576.448 417.631 576.223 417.146 575.774C416.668 575.317 416.429 574.772 416.429 574.137C416.429 573.509 416.668 572.971 417.146 572.521C417.631 572.065 418.212 571.837 418.89 571.837C419.567 571.837 420.145 572.065 420.623 572.521C421.108 572.971 421.351 573.509 421.351 574.137C421.351 574.772 421.108 575.317 420.623 575.774C420.145 576.223 419.567 576.448 418.89 576.448ZM429.495 595.31C428.447 595.31 427.512 595.128 426.692 594.765C425.872 594.394 425.223 593.848 424.745 593.128C424.274 592.4 424.039 591.494 424.039 590.41C424.039 589.497 424.206 588.73 424.542 588.11C424.877 587.489 425.333 586.99 425.911 586.612C426.489 586.234 427.145 585.949 427.88 585.756C428.621 585.563 429.399 585.428 430.212 585.349C431.168 585.25 431.938 585.157 432.523 585.071C433.108 584.979 433.532 584.843 433.796 584.665C434.06 584.486 434.192 584.222 434.192 583.873V583.809C434.192 583.131 433.978 582.607 433.55 582.236C433.129 581.865 432.53 581.68 431.753 581.68C430.932 581.68 430.28 581.862 429.795 582.225C429.31 582.582 428.989 583.031 428.832 583.573L424.616 583.231C424.83 582.232 425.251 581.369 425.879 580.642C426.507 579.907 427.316 579.344 428.308 578.951C429.306 578.552 430.462 578.352 431.774 578.352C432.687 578.352 433.561 578.459 434.395 578.673C435.237 578.887 435.982 579.219 436.631 579.668C437.288 580.118 437.805 580.695 438.183 581.402C438.561 582.101 438.75 582.939 438.75 583.916V595H434.427V592.721H434.299C434.035 593.235 433.682 593.688 433.24 594.08C432.798 594.465 432.266 594.768 431.646 594.989C431.025 595.203 430.308 595.31 429.495 595.31ZM430.801 592.165C431.471 592.165 432.063 592.033 432.577 591.769C433.09 591.498 433.493 591.134 433.786 590.678C434.078 590.221 434.224 589.704 434.224 589.126V587.382C434.082 587.475 433.885 587.561 433.636 587.639C433.393 587.71 433.119 587.778 432.812 587.842C432.505 587.899 432.199 587.953 431.892 588.003C431.585 588.046 431.307 588.085 431.057 588.121C430.522 588.199 430.055 588.324 429.656 588.495C429.256 588.666 428.946 588.898 428.725 589.19C428.504 589.476 428.393 589.832 428.393 590.26C428.393 590.881 428.618 591.355 429.067 591.683C429.524 592.004 430.102 592.165 430.801 592.165ZM446.844 573.088V595H442.286V573.088H446.844ZM464.187 595.321C462.675 595.321 461.369 595.05 460.271 594.508C459.173 593.966 458.327 593.231 457.735 592.304C457.15 591.369 456.858 590.328 456.858 589.18C456.858 588.324 457.029 587.564 457.372 586.901C457.714 586.237 458.192 585.628 458.805 585.071C459.419 584.508 460.132 583.948 460.945 583.392L465.193 580.599C465.742 580.25 466.145 579.882 466.402 579.497C466.658 579.105 466.787 578.68 466.787 578.224C466.787 577.789 466.612 577.386 466.262 577.015C465.913 576.644 465.417 576.462 464.775 576.469C464.347 576.469 463.976 576.566 463.663 576.758C463.349 576.944 463.103 577.19 462.924 577.496C462.753 577.796 462.668 578.131 462.668 578.502C462.668 578.959 462.796 579.422 463.053 579.893C463.31 580.364 463.652 580.863 464.08 581.391C464.508 581.912 464.975 582.475 465.481 583.081L475.87 595H471.12L462.454 585.349C461.883 584.7 461.312 584.023 460.742 583.317C460.178 582.603 459.708 581.847 459.33 581.048C458.951 580.242 458.762 579.369 458.762 578.427C458.762 577.364 459.009 576.409 459.501 575.56C460 574.711 460.699 574.041 461.598 573.548C462.496 573.049 463.545 572.799 464.743 572.799C465.913 572.799 466.922 573.038 467.771 573.516C468.627 573.987 469.283 574.615 469.74 575.399C470.203 576.177 470.435 577.033 470.435 577.967C470.435 579.001 470.178 579.939 469.665 580.781C469.158 581.615 468.445 582.364 467.525 583.028L463.053 586.248C462.446 586.69 461.997 587.143 461.705 587.607C461.419 588.063 461.277 588.502 461.277 588.923C461.277 589.444 461.405 589.911 461.662 590.325C461.919 590.738 462.282 591.066 462.753 591.309C463.224 591.544 463.777 591.662 464.412 591.662C465.182 591.662 465.942 591.487 466.69 591.138C467.447 590.781 468.131 590.278 468.745 589.629C469.365 588.973 469.861 588.195 470.232 587.297C470.603 586.398 470.788 585.403 470.788 584.312H474.565C474.565 585.653 474.419 586.862 474.126 587.939C473.834 589.009 473.427 589.943 472.907 590.742C472.386 591.534 471.79 592.183 471.12 592.689C470.906 592.825 470.699 592.953 470.499 593.074C470.3 593.195 470.093 593.324 469.879 593.459C469.066 594.116 468.156 594.59 467.151 594.882C466.152 595.175 465.164 595.321 464.187 595.321ZM484.828 595V573.088H499.593V576.908H489.461V582.129H498.833V585.949H489.461V591.18H499.635V595H484.828ZM507.748 585.499V595H503.19V578.566H507.534V581.466H507.727C508.09 580.51 508.7 579.754 509.556 579.198C510.412 578.634 511.45 578.352 512.67 578.352C513.811 578.352 514.806 578.602 515.655 579.101C516.503 579.601 517.163 580.314 517.634 581.241C518.105 582.161 518.34 583.26 518.34 584.536V595H513.782V585.349C513.789 584.344 513.533 583.559 513.012 582.996C512.491 582.425 511.774 582.14 510.861 582.14C510.248 582.14 509.706 582.272 509.235 582.536C508.772 582.8 508.408 583.185 508.144 583.691C507.887 584.19 507.755 584.793 507.748 585.499ZM529.422 595.321C527.731 595.321 526.276 594.979 525.056 594.294C523.844 593.602 522.909 592.625 522.253 591.362C521.597 590.093 521.269 588.591 521.269 586.858C521.269 585.168 521.597 583.684 522.253 582.407C522.909 581.13 523.833 580.135 525.024 579.422C526.223 578.709 527.628 578.352 529.24 578.352C530.324 578.352 531.333 578.527 532.268 578.877C533.209 579.219 534.029 579.736 534.728 580.428C535.434 581.12 535.984 581.99 536.376 583.038C536.768 584.08 536.964 585.3 536.964 586.698V587.949H523.088V585.125H532.674C532.674 584.469 532.531 583.887 532.246 583.381C531.961 582.874 531.565 582.479 531.059 582.193C530.559 581.901 529.978 581.755 529.315 581.755C528.623 581.755 528.009 581.915 527.474 582.236C526.947 582.55 526.533 582.974 526.233 583.509C525.934 584.037 525.78 584.625 525.773 585.275V587.96C525.773 588.773 525.923 589.476 526.223 590.068C526.529 590.66 526.961 591.116 527.517 591.437C528.074 591.758 528.733 591.919 529.497 591.919C530.003 591.919 530.467 591.847 530.887 591.705C531.308 591.562 531.668 591.348 531.968 591.063C532.268 590.777 532.496 590.428 532.653 590.014L536.868 590.292C536.654 591.305 536.216 592.19 535.552 592.946C534.896 593.695 534.047 594.28 533.006 594.7C531.972 595.114 530.777 595.321 529.422 595.321ZM539.939 595V578.566H544.357V581.434H544.529C544.828 580.414 545.331 579.643 546.037 579.123C546.743 578.595 547.556 578.331 548.477 578.331C548.705 578.331 548.951 578.345 549.215 578.374C549.479 578.402 549.711 578.441 549.91 578.491V582.536C549.696 582.471 549.4 582.414 549.022 582.364C548.644 582.315 548.298 582.29 547.984 582.29C547.314 582.29 546.715 582.436 546.187 582.728C545.666 583.014 545.253 583.413 544.946 583.926C544.646 584.44 544.497 585.032 544.497 585.703V595H539.939ZM558.906 601.505C557.429 601.505 556.163 601.302 555.107 600.895C554.059 600.496 553.224 599.95 552.604 599.258C551.983 598.566 551.58 597.789 551.395 596.926L555.61 596.359C555.739 596.687 555.942 596.994 556.22 597.279C556.498 597.564 556.866 597.792 557.322 597.964C557.786 598.142 558.349 598.231 559.013 598.231C560.004 598.231 560.821 597.989 561.463 597.504C562.112 597.026 562.436 596.223 562.436 595.096V592.09H562.244C562.044 592.546 561.744 592.978 561.345 593.384C560.945 593.791 560.432 594.123 559.804 594.379C559.177 594.636 558.428 594.765 557.557 594.765C556.323 594.765 555.2 594.479 554.187 593.909C553.182 593.331 552.379 592.45 551.78 591.266C551.188 590.075 550.892 588.57 550.892 586.751C550.892 584.889 551.195 583.334 551.801 582.086C552.408 580.838 553.214 579.904 554.219 579.283C555.232 578.663 556.341 578.352 557.547 578.352C558.467 578.352 559.237 578.509 559.858 578.823C560.478 579.13 560.978 579.515 561.356 579.979C561.741 580.435 562.037 580.884 562.244 581.327H562.415V578.566H566.94V595.16C566.94 596.558 566.598 597.728 565.913 598.67C565.229 599.611 564.28 600.317 563.067 600.788C561.862 601.266 560.475 601.505 558.906 601.505ZM559.002 591.341C559.736 591.341 560.357 591.159 560.863 590.795C561.377 590.424 561.769 589.897 562.04 589.212C562.319 588.52 562.458 587.693 562.458 586.73C562.458 585.767 562.322 584.932 562.051 584.226C561.78 583.513 561.388 582.96 560.874 582.568C560.361 582.175 559.736 581.979 559.002 581.979C558.253 581.979 557.622 582.183 557.108 582.589C556.595 582.989 556.206 583.545 555.942 584.258C555.678 584.971 555.546 585.795 555.546 586.73C555.546 587.678 555.678 588.499 555.942 589.19C556.213 589.875 556.602 590.407 557.108 590.785C557.622 591.155 558.253 591.341 559.002 591.341ZM573.381 601.163C572.804 601.163 572.261 601.116 571.755 601.024C571.256 600.938 570.842 600.827 570.514 600.692L571.541 597.29C572.076 597.454 572.557 597.543 572.985 597.557C573.421 597.571 573.795 597.471 574.109 597.257C574.43 597.044 574.69 596.68 574.89 596.166L575.157 595.471L569.262 578.566H574.055L577.458 590.635H577.629L581.063 578.566H585.888L579.501 596.776C579.194 597.66 578.777 598.431 578.249 599.087C577.729 599.75 577.069 600.26 576.27 600.617C575.471 600.981 574.508 601.163 573.381 601.163Z" fill="white"/>
<ellipse cx="619.03" cy="585.655" rx="21.7252" ry="21.6549" fill="white"/>
<path d="M612.887 596.826V594.167L619.1 588.415C619.629 587.903 620.072 587.443 620.43 587.034C620.794 586.625 621.069 586.224 621.257 585.832C621.444 585.434 621.538 585.005 621.538 584.545C621.538 584.034 621.422 583.594 621.189 583.224C620.956 582.849 620.637 582.562 620.234 582.363C619.831 582.159 619.373 582.057 618.862 582.057C618.328 582.057 617.862 582.165 617.464 582.38C617.066 582.596 616.76 582.906 616.544 583.309C616.328 583.713 616.22 584.193 616.22 584.75H612.717C612.717 583.608 612.975 582.616 613.493 581.775C614.01 580.934 614.734 580.284 615.666 579.824C616.598 579.363 617.672 579.133 618.887 579.133C620.137 579.133 621.225 579.355 622.152 579.798C623.083 580.236 623.808 580.844 624.325 581.622C624.842 582.4 625.1 583.292 625.1 584.298C625.1 584.957 624.97 585.608 624.708 586.25C624.453 586.892 623.995 587.605 623.336 588.389C622.677 589.167 621.748 590.102 620.549 591.193L618.001 593.69V593.809H625.331V596.826H612.887Z" fill="black"/>
<defs>
<clipPath id="clip0_40008055_35450">
<rect width="1250.31" height="769.874" fill="white"/>
</clipPath>
</defs>
</svg>
