<?xml version="1.0" encoding="utf-8" standalone="no"?>
<!DOCTYPE svg PUBLIC "-//W3C//DTD SVG 1.1//EN"
  "http://www.w3.org/Graphics/SVG/1.1/DTD/svg11.dtd">
<!-- Created with matplotlib (https://matplotlib.org/) -->
<svg height="288pt" version="1.1" viewBox="0 0 576 288" width="576pt" xmlns="http://www.w3.org/2000/svg" xmlns:xlink="http://www.w3.org/1999/xlink">
 <metadata>
  <rdf:RDF xmlns:cc="http://creativecommons.org/ns#" xmlns:dc="http://purl.org/dc/elements/1.1/" xmlns:rdf="http://www.w3.org/1999/02/22-rdf-syntax-ns#">
   <cc:Work>
    <dc:type rdf:resource="http://purl.org/dc/dcmitype/StillImage"/>
    <dc:date>2023-12-24T21:49:05.863388</dc:date>
    <dc:format>image/svg+xml</dc:format>
    <dc:creator>
     <cc:Agent>
      <dc:title>Matplotlib v3.3.4, https://matplotlib.org/</dc:title>
     </cc:Agent>
    </dc:creator>
   </cc:Work>
  </rdf:RDF>
 </metadata>
 <defs>
  <style type="text/css">*{stroke-linecap:butt;stroke-linejoin:round;}</style>
 </defs>
 <g id="figure_1">
  <g id="patch_1">
   <path d="M 0 288 
L 576 288 
L 576 0 
L 0 0 
z
" style="fill:#ffffff;"/>
  </g>
  <g id="axes_1">
   <g id="LineCollection_1">
    <path clip-path="url(#p1860e3b2eb)" d="M 251.232082 78.567018 
L 265.204947 96.321215 
" style="fill:none;stroke:#000000;stroke-width:0.5;"/>
    <path clip-path="url(#p1860e3b2eb)" d="M 251.232082 78.567018 
L 312.560924 129.394739 
" style="fill:none;stroke:#000000;stroke-width:0.5;"/>
    <path clip-path="url(#p1860e3b2eb)" d="M 251.232082 78.567018 
L 246.775406 98.349549 
" style="fill:none;stroke:#000000;stroke-width:0.5;"/>
    <path clip-path="url(#p1860e3b2eb)" d="M 251.232082 78.567018 
L 205.96336 85.436613 
" style="fill:none;stroke:#000000;stroke-width:0.5;"/>
    <path clip-path="url(#p1860e3b2eb)" d="M 251.232082 78.567018 
L 293.740961 126.547106 
" style="fill:none;stroke:#000000;stroke-width:0.5;"/>
    <path clip-path="url(#p1860e3b2eb)" d="M 251.232082 78.567018 
L 213.795532 98.895226 
" style="fill:none;stroke:#000000;stroke-width:0.5;"/>
    <path clip-path="url(#p1860e3b2eb)" d="M 251.232082 78.567018 
L 248.301506 115.398404 
" style="fill:none;stroke:#000000;stroke-width:0.5;"/>
    <path clip-path="url(#p1860e3b2eb)" d="M 251.232082 78.567018 
L 270.315259 75.588362 
" style="fill:none;stroke:#000000;stroke-width:0.5;"/>
    <path clip-path="url(#p1860e3b2eb)" d="M 293.740961 126.547106 
L 265.204947 96.321215 
" style="fill:none;stroke:#000000;stroke-width:0.5;"/>
    <path clip-path="url(#p1860e3b2eb)" d="M 293.740961 126.547106 
L 327.489959 65.806352 
" style="fill:none;stroke:#000000;stroke-width:0.5;"/>
    <path clip-path="url(#p1860e3b2eb)" d="M 293.740961 126.547106 
L 312.560924 129.394739 
" style="fill:none;stroke:#000000;stroke-width:0.5;"/>
    <path clip-path="url(#p1860e3b2eb)" d="M 293.740961 126.547106 
L 363.065207 173.77638 
" style="fill:none;stroke:#000000;stroke-width:0.5;"/>
    <path clip-path="url(#p1860e3b2eb)" d="M 293.740961 126.547106 
L 246.775406 98.349549 
" style="fill:none;stroke:#000000;stroke-width:0.5;"/>
    <path clip-path="url(#p1860e3b2eb)" d="M 293.740961 126.547106 
L 205.96336 85.436613 
" style="fill:none;stroke:#000000;stroke-width:0.5;"/>
    <path clip-path="url(#p1860e3b2eb)" d="M 293.740961 126.547106 
L 346.268669 183.437948 
" style="fill:none;stroke:#000000;stroke-width:0.5;"/>
    <path clip-path="url(#p1860e3b2eb)" d="M 293.740961 126.547106 
L 378.226689 147.234644 
" style="fill:none;stroke:#000000;stroke-width:0.5;"/>
    <path clip-path="url(#p1860e3b2eb)" d="M 293.740961 126.547106 
L 213.795532 98.895226 
" style="fill:none;stroke:#000000;stroke-width:0.5;"/>
    <path clip-path="url(#p1860e3b2eb)" d="M 293.740961 126.547106 
L 248.301506 115.398404 
" style="fill:none;stroke:#000000;stroke-width:0.5;"/>
    <path clip-path="url(#p1860e3b2eb)" d="M 293.740961 126.547106 
L 356.072661 132.866967 
" style="fill:none;stroke:#000000;stroke-width:0.5;"/>
    <path clip-path="url(#p1860e3b2eb)" d="M 293.740961 126.547106 
L 313.537393 195.672396 
" style="fill:none;stroke:#000000;stroke-width:0.5;"/>
    <path clip-path="url(#p1860e3b2eb)" d="M 293.740961 126.547106 
L 270.315259 75.588362 
" style="fill:none;stroke:#000000;stroke-width:0.5;"/>
    <path clip-path="url(#p1860e3b2eb)" d="M 293.740961 126.547106 
L 301.160805 180.813269 
" style="fill:none;stroke:#000000;stroke-width:0.5;"/>
    <path clip-path="url(#p1860e3b2eb)" d="M 293.740961 126.547106 
L 375.547002 127.905159 
" style="fill:none;stroke:#000000;stroke-width:0.5;"/>
    <path clip-path="url(#p1860e3b2eb)" d="M 293.740961 126.547106 
L 416.547768 187.303744 
" style="fill:none;stroke:#000000;stroke-width:0.5;"/>
    <path clip-path="url(#p1860e3b2eb)" d="M 293.740961 126.547106 
L 355.972607 152.939795 
" style="fill:none;stroke:#000000;stroke-width:0.5;"/>
    <path clip-path="url(#p1860e3b2eb)" d="M 52.136887 44.45425 
L 142.145136 69.219755 
" style="fill:none;stroke:#000000;stroke-width:0.5;"/>
    <path clip-path="url(#p1860e3b2eb)" d="M 52.136887 44.45425 
L 147.058541 82.561448 
" style="fill:none;stroke:#000000;stroke-width:0.5;"/>
    <path clip-path="url(#p1860e3b2eb)" d="M 52.136887 44.45425 
L 49.983471 73.819028 
" style="fill:none;stroke:#000000;stroke-width:0.5;"/>
    <path clip-path="url(#p1860e3b2eb)" d="M 52.136887 44.45425 
L 153.557443 57.827894 
" style="fill:none;stroke:#000000;stroke-width:0.5;"/>
    <path clip-path="url(#p1860e3b2eb)" d="M 52.136887 44.45425 
L 80.877387 24.991736 
" style="fill:none;stroke:#000000;stroke-width:0.5;"/>
    <path clip-path="url(#p1860e3b2eb)" d="M 52.136887 44.45425 
L 77.177828 53.409482 
" style="fill:none;stroke:#000000;stroke-width:0.5;"/>
    <path clip-path="url(#p1860e3b2eb)" d="M 52.136887 44.45425 
L 65.105123 93.456549 
" style="fill:none;stroke:#000000;stroke-width:0.5;"/>
    <path clip-path="url(#p1860e3b2eb)" d="M 52.136887 44.45425 
L 139.646607 96.648758 
" style="fill:none;stroke:#000000;stroke-width:0.5;"/>
    <path clip-path="url(#p1860e3b2eb)" d="M 502.781056 261.488846 
L 481.118448 241.093634 
" style="fill:none;stroke:#000000;stroke-width:0.5;"/>
    <path clip-path="url(#p1860e3b2eb)" d="M 502.781056 261.488846 
L 505.811717 216.831755 
" style="fill:none;stroke:#000000;stroke-width:0.5;"/>
    <path clip-path="url(#p1860e3b2eb)" d="M 502.781056 261.488846 
L 471.403433 263.008264 
" style="fill:none;stroke:#000000;stroke-width:0.5;"/>
    <path clip-path="url(#p1860e3b2eb)" d="M 502.781056 261.488846 
L 515.898368 197.688714 
" style="fill:none;stroke:#000000;stroke-width:0.5;"/>
    <path clip-path="url(#p1860e3b2eb)" d="M 502.781056 261.488846 
L 526.016529 242.958875 
" style="fill:none;stroke:#000000;stroke-width:0.5;"/>
    <path clip-path="url(#p1860e3b2eb)" d="M 502.781056 261.488846 
L 416.547768 187.303744 
" style="fill:none;stroke:#000000;stroke-width:0.5;"/>
    <path clip-path="url(#p1860e3b2eb)" d="M 147.058541 82.561448 
L 142.145136 69.219755 
" style="fill:none;stroke:#000000;stroke-width:0.5;"/>
    <path clip-path="url(#p1860e3b2eb)" d="M 147.058541 82.561448 
L 49.983471 73.819028 
" style="fill:none;stroke:#000000;stroke-width:0.5;"/>
    <path clip-path="url(#p1860e3b2eb)" d="M 147.058541 82.561448 
L 153.557443 57.827894 
" style="fill:none;stroke:#000000;stroke-width:0.5;"/>
    <path clip-path="url(#p1860e3b2eb)" d="M 147.058541 82.561448 
L 205.96336 85.436613 
" style="fill:none;stroke:#000000;stroke-width:0.5;"/>
    <path clip-path="url(#p1860e3b2eb)" d="M 147.058541 82.561448 
L 80.877387 24.991736 
" style="fill:none;stroke:#000000;stroke-width:0.5;"/>
    <path clip-path="url(#p1860e3b2eb)" d="M 147.058541 82.561448 
L 77.177828 53.409482 
" style="fill:none;stroke:#000000;stroke-width:0.5;"/>
    <path clip-path="url(#p1860e3b2eb)" d="M 147.058541 82.561448 
L 213.795532 98.895226 
" style="fill:none;stroke:#000000;stroke-width:0.5;"/>
    <path clip-path="url(#p1860e3b2eb)" d="M 147.058541 82.561448 
L 65.105123 93.456549 
" style="fill:none;stroke:#000000;stroke-width:0.5;"/>
    <path clip-path="url(#p1860e3b2eb)" d="M 147.058541 82.561448 
L 139.646607 96.648758 
" style="fill:none;stroke:#000000;stroke-width:0.5;"/>
    <path clip-path="url(#p1860e3b2eb)" d="M 248.301506 115.398404 
L 265.204947 96.321215 
" style="fill:none;stroke:#000000;stroke-width:0.5;"/>
    <path clip-path="url(#p1860e3b2eb)" d="M 248.301506 115.398404 
L 312.560924 129.394739 
" style="fill:none;stroke:#000000;stroke-width:0.5;"/>
    <path clip-path="url(#p1860e3b2eb)" d="M 248.301506 115.398404 
L 246.775406 98.349549 
" style="fill:none;stroke:#000000;stroke-width:0.5;"/>
    <path clip-path="url(#p1860e3b2eb)" d="M 248.301506 115.398404 
L 205.96336 85.436613 
" style="fill:none;stroke:#000000;stroke-width:0.5;"/>
    <path clip-path="url(#p1860e3b2eb)" d="M 248.301506 115.398404 
L 213.795532 98.895226 
" style="fill:none;stroke:#000000;stroke-width:0.5;"/>
    <path clip-path="url(#p1860e3b2eb)" d="M 248.301506 115.398404 
L 270.315259 75.588362 
" style="fill:none;stroke:#000000;stroke-width:0.5;"/>
    <path clip-path="url(#p1860e3b2eb)" d="M 77.177828 53.409482 
L 142.145136 69.219755 
" style="fill:none;stroke:#000000;stroke-width:0.5;"/>
    <path clip-path="url(#p1860e3b2eb)" d="M 77.177828 53.409482 
L 49.983471 73.819028 
" style="fill:none;stroke:#000000;stroke-width:0.5;"/>
    <path clip-path="url(#p1860e3b2eb)" d="M 77.177828 53.409482 
L 153.557443 57.827894 
" style="fill:none;stroke:#000000;stroke-width:0.5;"/>
    <path clip-path="url(#p1860e3b2eb)" d="M 77.177828 53.409482 
L 80.877387 24.991736 
" style="fill:none;stroke:#000000;stroke-width:0.5;"/>
    <path clip-path="url(#p1860e3b2eb)" d="M 77.177828 53.409482 
L 65.105123 93.456549 
" style="fill:none;stroke:#000000;stroke-width:0.5;"/>
    <path clip-path="url(#p1860e3b2eb)" d="M 77.177828 53.409482 
L 139.646607 96.648758 
" style="fill:none;stroke:#000000;stroke-width:0.5;"/>
    <path clip-path="url(#p1860e3b2eb)" d="M 205.96336 85.436613 
L 142.145136 69.219755 
" style="fill:none;stroke:#000000;stroke-width:0.5;"/>
    <path clip-path="url(#p1860e3b2eb)" d="M 205.96336 85.436613 
L 265.204947 96.321215 
" style="fill:none;stroke:#000000;stroke-width:0.5;"/>
    <path clip-path="url(#p1860e3b2eb)" d="M 205.96336 85.436613 
L 312.560924 129.394739 
" style="fill:none;stroke:#000000;stroke-width:0.5;"/>
    <path clip-path="url(#p1860e3b2eb)" d="M 205.96336 85.436613 
L 153.557443 57.827894 
" style="fill:none;stroke:#000000;stroke-width:0.5;"/>
    <path clip-path="url(#p1860e3b2eb)" d="M 205.96336 85.436613 
L 246.775406 98.349549 
" style="fill:none;stroke:#000000;stroke-width:0.5;"/>
    <path clip-path="url(#p1860e3b2eb)" d="M 205.96336 85.436613 
L 213.795532 98.895226 
" style="fill:none;stroke:#000000;stroke-width:0.5;"/>
    <path clip-path="url(#p1860e3b2eb)" d="M 205.96336 85.436613 
L 139.646607 96.648758 
" style="fill:none;stroke:#000000;stroke-width:0.5;"/>
    <path clip-path="url(#p1860e3b2eb)" d="M 205.96336 85.436613 
L 270.315259 75.588362 
" style="fill:none;stroke:#000000;stroke-width:0.5;"/>
    <path clip-path="url(#p1860e3b2eb)" d="M 346.268669 183.437948 
L 312.560924 129.394739 
" style="fill:none;stroke:#000000;stroke-width:0.5;"/>
    <path clip-path="url(#p1860e3b2eb)" d="M 346.268669 183.437948 
L 363.065207 173.77638 
" style="fill:none;stroke:#000000;stroke-width:0.5;"/>
    <path clip-path="url(#p1860e3b2eb)" d="M 346.268669 183.437948 
L 378.226689 147.234644 
" style="fill:none;stroke:#000000;stroke-width:0.5;"/>
    <path clip-path="url(#p1860e3b2eb)" d="M 346.268669 183.437948 
L 356.072661 132.866967 
" style="fill:none;stroke:#000000;stroke-width:0.5;"/>
    <path clip-path="url(#p1860e3b2eb)" d="M 346.268669 183.437948 
L 313.537393 195.672396 
" style="fill:none;stroke:#000000;stroke-width:0.5;"/>
    <path clip-path="url(#p1860e3b2eb)" d="M 346.268669 183.437948 
L 301.160805 180.813269 
" style="fill:none;stroke:#000000;stroke-width:0.5;"/>
    <path clip-path="url(#p1860e3b2eb)" d="M 346.268669 183.437948 
L 375.547002 127.905159 
" style="fill:none;stroke:#000000;stroke-width:0.5;"/>
    <path clip-path="url(#p1860e3b2eb)" d="M 346.268669 183.437948 
L 416.547768 187.303744 
" style="fill:none;stroke:#000000;stroke-width:0.5;"/>
    <path clip-path="url(#p1860e3b2eb)" d="M 346.268669 183.437948 
L 355.972607 152.939795 
" style="fill:none;stroke:#000000;stroke-width:0.5;"/>
    <path clip-path="url(#p1860e3b2eb)" d="M 416.547768 187.303744 
L 312.560924 129.394739 
" style="fill:none;stroke:#000000;stroke-width:0.5;"/>
    <path clip-path="url(#p1860e3b2eb)" d="M 416.547768 187.303744 
L 363.065207 173.77638 
" style="fill:none;stroke:#000000;stroke-width:0.5;"/>
    <path clip-path="url(#p1860e3b2eb)" d="M 416.547768 187.303744 
L 481.118448 241.093634 
" style="fill:none;stroke:#000000;stroke-width:0.5;"/>
    <path clip-path="url(#p1860e3b2eb)" d="M 416.547768 187.303744 
L 505.811717 216.831755 
" style="fill:none;stroke:#000000;stroke-width:0.5;"/>
    <path clip-path="url(#p1860e3b2eb)" d="M 416.547768 187.303744 
L 378.226689 147.234644 
" style="fill:none;stroke:#000000;stroke-width:0.5;"/>
    <path clip-path="url(#p1860e3b2eb)" d="M 416.547768 187.303744 
L 471.403433 263.008264 
" style="fill:none;stroke:#000000;stroke-width:0.5;"/>
    <path clip-path="url(#p1860e3b2eb)" d="M 416.547768 187.303744 
L 515.898368 197.688714 
" style="fill:none;stroke:#000000;stroke-width:0.5;"/>
    <path clip-path="url(#p1860e3b2eb)" d="M 416.547768 187.303744 
L 356.072661 132.866967 
" style="fill:none;stroke:#000000;stroke-width:0.5;"/>
    <path clip-path="url(#p1860e3b2eb)" d="M 416.547768 187.303744 
L 526.016529 242.958875 
" style="fill:none;stroke:#000000;stroke-width:0.5;"/>
    <path clip-path="url(#p1860e3b2eb)" d="M 416.547768 187.303744 
L 375.547002 127.905159 
" style="fill:none;stroke:#000000;stroke-width:0.5;"/>
    <path clip-path="url(#p1860e3b2eb)" d="M 416.547768 187.303744 
L 355.972607 152.939795 
" style="fill:none;stroke:#000000;stroke-width:0.5;"/>
    <path clip-path="url(#p1860e3b2eb)" d="M 356.072661 132.866967 
L 312.560924 129.394739 
" style="fill:none;stroke:#000000;stroke-width:0.5;"/>
    <path clip-path="url(#p1860e3b2eb)" d="M 356.072661 132.866967 
L 363.065207 173.77638 
" style="fill:none;stroke:#000000;stroke-width:0.5;"/>
    <path clip-path="url(#p1860e3b2eb)" d="M 356.072661 132.866967 
L 378.226689 147.234644 
" style="fill:none;stroke:#000000;stroke-width:0.5;"/>
    <path clip-path="url(#p1860e3b2eb)" d="M 356.072661 132.866967 
L 375.547002 127.905159 
" style="fill:none;stroke:#000000;stroke-width:0.5;"/>
    <path clip-path="url(#p1860e3b2eb)" d="M 356.072661 132.866967 
L 355.972607 152.939795 
" style="fill:none;stroke:#000000;stroke-width:0.5;"/>
    <path clip-path="url(#p1860e3b2eb)" d="M 301.160805 180.813269 
L 312.560924 129.394739 
" style="fill:none;stroke:#000000;stroke-width:0.5;"/>
    <path clip-path="url(#p1860e3b2eb)" d="M 301.160805 180.813269 
L 363.065207 173.77638 
" style="fill:none;stroke:#000000;stroke-width:0.5;"/>
    <path clip-path="url(#p1860e3b2eb)" d="M 301.160805 180.813269 
L 313.537393 195.672396 
" style="fill:none;stroke:#000000;stroke-width:0.5;"/>
    <path clip-path="url(#p1860e3b2eb)" d="M 246.775406 98.349549 
L 265.204947 96.321215 
" style="fill:none;stroke:#000000;stroke-width:0.5;"/>
    <path clip-path="url(#p1860e3b2eb)" d="M 246.775406 98.349549 
L 312.560924 129.394739 
" style="fill:none;stroke:#000000;stroke-width:0.5;"/>
    <path clip-path="url(#p1860e3b2eb)" d="M 246.775406 98.349549 
L 213.795532 98.895226 
" style="fill:none;stroke:#000000;stroke-width:0.5;"/>
    <path clip-path="url(#p1860e3b2eb)" d="M 246.775406 98.349549 
L 270.315259 75.588362 
" style="fill:none;stroke:#000000;stroke-width:0.5;"/>
    <path clip-path="url(#p1860e3b2eb)" d="M 375.547002 127.905159 
L 312.560924 129.394739 
" style="fill:none;stroke:#000000;stroke-width:0.5;"/>
    <path clip-path="url(#p1860e3b2eb)" d="M 375.547002 127.905159 
L 363.065207 173.77638 
" style="fill:none;stroke:#000000;stroke-width:0.5;"/>
    <path clip-path="url(#p1860e3b2eb)" d="M 375.547002 127.905159 
L 378.226689 147.234644 
" style="fill:none;stroke:#000000;stroke-width:0.5;"/>
    <path clip-path="url(#p1860e3b2eb)" d="M 375.547002 127.905159 
L 355.972607 152.939795 
" style="fill:none;stroke:#000000;stroke-width:0.5;"/>
    <path clip-path="url(#p1860e3b2eb)" d="M 213.795532 98.895226 
L 142.145136 69.219755 
" style="fill:none;stroke:#000000;stroke-width:0.5;"/>
    <path clip-path="url(#p1860e3b2eb)" d="M 213.795532 98.895226 
L 265.204947 96.321215 
" style="fill:none;stroke:#000000;stroke-width:0.5;"/>
    <path clip-path="url(#p1860e3b2eb)" d="M 213.795532 98.895226 
L 312.560924 129.394739 
" style="fill:none;stroke:#000000;stroke-width:0.5;"/>
    <path clip-path="url(#p1860e3b2eb)" d="M 213.795532 98.895226 
L 153.557443 57.827894 
" style="fill:none;stroke:#000000;stroke-width:0.5;"/>
    <path clip-path="url(#p1860e3b2eb)" d="M 213.795532 98.895226 
L 139.646607 96.648758 
" style="fill:none;stroke:#000000;stroke-width:0.5;"/>
    <path clip-path="url(#p1860e3b2eb)" d="M 265.204947 96.321215 
L 312.560924 129.394739 
" style="fill:none;stroke:#000000;stroke-width:0.5;"/>
    <path clip-path="url(#p1860e3b2eb)" d="M 265.204947 96.321215 
L 270.315259 75.588362 
" style="fill:none;stroke:#000000;stroke-width:0.5;"/>
    <path clip-path="url(#p1860e3b2eb)" d="M 270.315259 75.588362 
L 327.489959 65.806352 
" style="fill:none;stroke:#000000;stroke-width:0.5;"/>
    <path clip-path="url(#p1860e3b2eb)" d="M 270.315259 75.588362 
L 312.560924 129.394739 
" style="fill:none;stroke:#000000;stroke-width:0.5;"/>
    <path clip-path="url(#p1860e3b2eb)" d="M 312.560924 129.394739 
L 327.489959 65.806352 
" style="fill:none;stroke:#000000;stroke-width:0.5;"/>
    <path clip-path="url(#p1860e3b2eb)" d="M 312.560924 129.394739 
L 363.065207 173.77638 
" style="fill:none;stroke:#000000;stroke-width:0.5;"/>
    <path clip-path="url(#p1860e3b2eb)" d="M 312.560924 129.394739 
L 378.226689 147.234644 
" style="fill:none;stroke:#000000;stroke-width:0.5;"/>
    <path clip-path="url(#p1860e3b2eb)" d="M 312.560924 129.394739 
L 313.537393 195.672396 
" style="fill:none;stroke:#000000;stroke-width:0.5;"/>
    <path clip-path="url(#p1860e3b2eb)" d="M 355.972607 152.939795 
L 378.226689 147.234644 
" style="fill:none;stroke:#000000;stroke-width:0.5;"/>
    <path clip-path="url(#p1860e3b2eb)" d="M 80.877387 24.991736 
L 142.145136 69.219755 
" style="fill:none;stroke:#000000;stroke-width:0.5;"/>
    <path clip-path="url(#p1860e3b2eb)" d="M 80.877387 24.991736 
L 49.983471 73.819028 
" style="fill:none;stroke:#000000;stroke-width:0.5;"/>
    <path clip-path="url(#p1860e3b2eb)" d="M 80.877387 24.991736 
L 153.557443 57.827894 
" style="fill:none;stroke:#000000;stroke-width:0.5;"/>
    <path clip-path="url(#p1860e3b2eb)" d="M 80.877387 24.991736 
L 65.105123 93.456549 
" style="fill:none;stroke:#000000;stroke-width:0.5;"/>
    <path clip-path="url(#p1860e3b2eb)" d="M 80.877387 24.991736 
L 139.646607 96.648758 
" style="fill:none;stroke:#000000;stroke-width:0.5;"/>
    <path clip-path="url(#p1860e3b2eb)" d="M 481.118448 241.093634 
L 471.403433 263.008264 
" style="fill:none;stroke:#000000;stroke-width:0.5;"/>
    <path clip-path="url(#p1860e3b2eb)" d="M 481.118448 241.093634 
L 526.016529 242.958875 
" style="fill:none;stroke:#000000;stroke-width:0.5;"/>
    <path clip-path="url(#p1860e3b2eb)" d="M 142.145136 69.219755 
L 49.983471 73.819028 
" style="fill:none;stroke:#000000;stroke-width:0.5;"/>
    <path clip-path="url(#p1860e3b2eb)" d="M 142.145136 69.219755 
L 153.557443 57.827894 
" style="fill:none;stroke:#000000;stroke-width:0.5;"/>
    <path clip-path="url(#p1860e3b2eb)" d="M 142.145136 69.219755 
L 65.105123 93.456549 
" style="fill:none;stroke:#000000;stroke-width:0.5;"/>
    <path clip-path="url(#p1860e3b2eb)" d="M 142.145136 69.219755 
L 139.646607 96.648758 
" style="fill:none;stroke:#000000;stroke-width:0.5;"/>
    <path clip-path="url(#p1860e3b2eb)" d="M 505.811717 216.831755 
L 515.898368 197.688714 
" style="fill:none;stroke:#000000;stroke-width:0.5;"/>
    <path clip-path="url(#p1860e3b2eb)" d="M 505.811717 216.831755 
L 526.016529 242.958875 
" style="fill:none;stroke:#000000;stroke-width:0.5;"/>
    <path clip-path="url(#p1860e3b2eb)" d="M 515.898368 197.688714 
L 526.016529 242.958875 
" style="fill:none;stroke:#000000;stroke-width:0.5;"/>
    <path clip-path="url(#p1860e3b2eb)" d="M 49.983471 73.819028 
L 153.557443 57.827894 
" style="fill:none;stroke:#000000;stroke-width:0.5;"/>
    <path clip-path="url(#p1860e3b2eb)" d="M 49.983471 73.819028 
L 65.105123 93.456549 
" style="fill:none;stroke:#000000;stroke-width:0.5;"/>
    <path clip-path="url(#p1860e3b2eb)" d="M 49.983471 73.819028 
L 139.646607 96.648758 
" style="fill:none;stroke:#000000;stroke-width:0.5;"/>
    <path clip-path="url(#p1860e3b2eb)" d="M 363.065207 173.77638 
L 378.226689 147.234644 
" style="fill:none;stroke:#000000;stroke-width:0.5;"/>
    <path clip-path="url(#p1860e3b2eb)" d="M 363.065207 173.77638 
L 313.537393 195.672396 
" style="fill:none;stroke:#000000;stroke-width:0.5;"/>
    <path clip-path="url(#p1860e3b2eb)" d="M 65.105123 93.456549 
L 153.557443 57.827894 
" style="fill:none;stroke:#000000;stroke-width:0.5;"/>
    <path clip-path="url(#p1860e3b2eb)" d="M 65.105123 93.456549 
L 139.646607 96.648758 
" style="fill:none;stroke:#000000;stroke-width:0.5;"/>
    <path clip-path="url(#p1860e3b2eb)" d="M 153.557443 57.827894 
L 139.646607 96.648758 
" style="fill:none;stroke:#000000;stroke-width:0.5;"/>
    <path clip-path="url(#p1860e3b2eb)" d="M 526.016529 242.958875 
L 471.403433 263.008264 
" style="fill:none;stroke:#000000;stroke-width:0.5;"/>
   </g>
   <g id="PathCollection_1">
    <path clip-path="url(#p1860e3b2eb)" d="M 251.232082 88.567018 
C 253.884113 88.567018 256.427881 87.513354 258.30315 85.638085 
C 260.178419 83.762816 261.232082 81.219049 261.232082 78.567018 
C 261.232082 75.914987 260.178419 73.371219 258.30315 71.49595 
C 256.427881 69.620681 253.884113 68.567018 251.232082 68.567018 
C 248.580051 68.567018 246.036283 69.620681 244.161014 71.49595 
C 242.285745 73.371219 241.232082 75.914987 241.232082 78.567018 
C 241.232082 81.219049 242.285745 83.762816 244.161014 85.638085 
C 246.036283 87.513354 248.580051 88.567018 251.232082 88.567018 
z
" style="fill:#f6bfa6;stroke:#ffffff;"/>
    <path clip-path="url(#p1860e3b2eb)" d="M 293.740961 141.547106 
C 297.719008 141.547106 301.534659 139.966611 304.347563 137.153707 
C 307.160467 134.340804 308.740961 130.525152 308.740961 126.547106 
C 308.740961 122.569059 307.160467 118.753408 304.347563 115.940504 
C 301.534659 113.1276 297.719008 111.547106 293.740961 111.547106 
C 289.762915 111.547106 285.947263 113.1276 283.13436 115.940504 
C 280.321456 118.753408 278.740961 122.569059 278.740961 126.547106 
C 278.740961 130.525152 280.321456 134.340804 283.13436 137.153707 
C 285.947263 139.966611 289.762915 141.547106 293.740961 141.547106 
z
" style="fill:#f6bda2;stroke:#ffffff;"/>
    <path clip-path="url(#p1860e3b2eb)" d="M 52.136887 54.45425 
C 54.788918 54.45425 57.332685 53.400587 59.207955 51.525318 
C 61.083224 49.650049 62.136887 47.106281 62.136887 44.45425 
C 62.136887 41.802219 61.083224 39.258452 59.207955 37.383183 
C 57.332685 35.507914 54.788918 34.45425 52.136887 34.45425 
C 49.484856 34.45425 46.941088 35.507914 45.065819 37.383183 
C 43.19055 39.258452 42.136887 41.802219 42.136887 44.45425 
C 42.136887 47.106281 43.19055 49.650049 45.065819 51.525318 
C 46.941088 53.400587 49.484856 54.45425 52.136887 54.45425 
z
" style="fill:#e0dbd8;stroke:#ffffff;"/>
    <path clip-path="url(#p1860e3b2eb)" d="M 502.781056 270.1491 
C 505.077782 270.1491 507.280749 269.236601 508.90478 267.61257 
C 510.528811 265.988539 511.44131 263.785572 511.44131 261.488846 
C 511.44131 259.192119 510.528811 256.989152 508.90478 255.365121 
C 507.280749 253.741091 505.077782 252.828592 502.781056 252.828592 
C 500.484329 252.828592 498.281362 253.741091 496.657331 255.365121 
C 495.033301 256.989152 494.120802 259.192119 494.120802 261.488846 
C 494.120802 263.785572 495.033301 265.988539 496.657331 267.61257 
C 498.281362 269.236601 500.484329 270.1491 502.781056 270.1491 
z
" style="fill:#e57058;stroke:#ffffff;"/>
    <path clip-path="url(#p1860e3b2eb)" d="M 147.058541 93.741788 
C 150.023601 93.741788 152.86762 92.563757 154.964235 90.467142 
C 157.060849 88.370528 158.23888 85.526509 158.23888 82.561448 
C 158.23888 79.596387 157.060849 76.752369 154.964235 74.655754 
C 152.86762 72.559139 150.023601 71.381108 147.058541 71.381108 
C 144.09348 71.381108 141.249461 72.559139 139.152846 74.655754 
C 137.056232 76.752369 135.878201 79.596387 135.878201 82.561448 
C 135.878201 85.526509 137.056232 88.370528 139.152846 90.467142 
C 141.249461 92.563757 144.09348 93.741788 147.058541 93.741788 
z
" style="fill:#e0dbd8;stroke:#ffffff;"/>
    <path clip-path="url(#p1860e3b2eb)" d="M 248.301506 125.398404 
C 250.953537 125.398404 253.497304 124.344741 255.372573 122.469472 
C 257.247842 120.594203 258.301506 118.050435 258.301506 115.398404 
C 258.301506 112.746373 257.247842 110.202606 255.372573 108.327337 
C 253.497304 106.452068 250.953537 105.398404 248.301506 105.398404 
C 245.649475 105.398404 243.105707 106.452068 241.230438 108.327337 
C 239.355169 110.202606 238.301506 112.746373 238.301506 115.398404 
C 238.301506 118.050435 239.355169 120.594203 241.230438 122.469472 
C 243.105707 124.344741 245.649475 125.398404 248.301506 125.398404 
z
" style="fill:#f6bfa6;stroke:#ffffff;"/>
    <path clip-path="url(#p1860e3b2eb)" d="M 77.177828 63.409482 
C 79.829859 63.409482 82.373627 62.355819 84.248896 60.48055 
C 86.124165 58.605281 87.177828 56.061513 87.177828 53.409482 
C 87.177828 50.757451 86.124165 48.213684 84.248896 46.338415 
C 82.373627 44.463145 79.829859 43.409482 77.177828 43.409482 
C 74.525797 43.409482 71.982029 44.463145 70.10676 46.338415 
C 68.231491 48.213684 67.177828 50.757451 67.177828 53.409482 
C 67.177828 56.061513 68.231491 58.605281 70.10676 60.48055 
C 71.982029 62.355819 74.525797 63.409482 77.177828 63.409482 
z
" style="fill:#e0dbd8;stroke:#ffffff;"/>
    <path clip-path="url(#p1860e3b2eb)" d="M 205.96336 97.684062 
C 209.211422 97.684062 212.326888 96.393593 214.623614 94.096867 
C 216.920341 91.800141 218.210809 88.684675 218.210809 85.436613 
C 218.210809 82.188552 216.920341 79.073085 214.623614 76.776359 
C 212.326888 74.479633 209.211422 73.189164 205.96336 73.189164 
C 202.715299 73.189164 199.599832 74.479633 197.303106 76.776359 
C 195.00638 79.073085 193.715912 82.188552 193.715912 85.436613 
C 193.715912 88.684675 195.00638 91.800141 197.303106 94.096867 
C 199.599832 96.393593 202.715299 97.684062 205.96336 97.684062 
z
" style="fill:#f6bfa6;stroke:#ffffff;"/>
    <path clip-path="url(#p1860e3b2eb)" d="M 346.268669 194.618288 
C 349.23373 194.618288 352.077749 193.440257 354.174364 191.343642 
C 356.270978 189.247027 357.449009 186.403009 357.449009 183.437948 
C 357.449009 180.472887 356.270978 177.628868 354.174364 175.532254 
C 352.077749 173.435639 349.23373 172.257608 346.268669 172.257608 
C 343.303609 172.257608 340.45959 173.435639 338.362975 175.532254 
C 336.266361 177.628868 335.08833 180.472887 335.08833 183.437948 
C 335.08833 186.403009 336.266361 189.247027 338.362975 191.343642 
C 340.45959 193.440257 343.303609 194.618288 346.268669 194.618288 
z
" style="fill:#ead5c9;stroke:#ffffff;"/>
    <path clip-path="url(#p1860e3b2eb)" d="M 416.547768 200.532501 
C 420.056076 200.532501 423.421164 199.138636 425.901912 196.657888 
C 428.38266 194.17714 429.776525 190.812052 429.776525 187.303744 
C 429.776525 183.795437 428.38266 180.430349 425.901912 177.949601 
C 423.421164 175.468853 420.056076 174.074988 416.547768 174.074988 
C 413.039461 174.074988 409.674373 175.468853 407.193625 177.949601 
C 404.712877 180.430349 403.319012 183.795437 403.319012 187.303744 
C 403.319012 190.812052 404.712877 194.17714 407.193625 196.657888 
C 409.674373 199.138636 413.039461 200.532501 416.547768 200.532501 
z
" style="fill:#f39577;stroke:#ffffff;"/>
    <path clip-path="url(#p1860e3b2eb)" d="M 356.072661 142.866967 
C 358.724692 142.866967 361.26846 141.813304 363.143729 139.938035 
C 365.018998 138.062765 366.072661 135.518998 366.072661 132.866967 
C 366.072661 130.214936 365.018998 127.671168 363.143729 125.795899 
C 361.26846 123.92063 358.724692 122.866967 356.072661 122.866967 
C 353.42063 122.866967 350.876862 123.92063 349.001593 125.795899 
C 347.126324 127.671168 346.072661 130.214936 346.072661 132.866967 
C 346.072661 135.518998 347.126324 138.062765 349.001593 139.938035 
C 350.876862 141.813304 353.42063 142.866967 356.072661 142.866967 
z
" style="fill:#f4c5ad;stroke:#ffffff;"/>
    <path clip-path="url(#p1860e3b2eb)" d="M 301.160805 188.718963 
C 303.257419 188.718963 305.268444 187.885969 306.750975 186.403438 
C 308.233505 184.920908 309.066499 182.909883 309.066499 180.813269 
C 309.066499 178.716654 308.233505 176.705629 306.750975 175.223099 
C 305.268444 173.740568 303.257419 172.907574 301.160805 172.907574 
C 299.06419 172.907574 297.053165 173.740568 295.570635 175.223099 
C 294.088105 176.705629 293.255111 178.716654 293.255111 180.813269 
C 293.255111 182.909883 294.088105 184.920908 295.570635 186.403438 
C 297.053165 187.885969 299.06419 188.718963 301.160805 188.718963 
z
" style="fill:#c5d6f2;stroke:#ffffff;"/>
    <path clip-path="url(#p1860e3b2eb)" d="M 246.775406 108.349549 
C 249.427437 108.349549 251.971204 107.295886 253.846474 105.420617 
C 255.721743 103.545348 256.775406 101.00158 256.775406 98.349549 
C 256.775406 95.697518 255.721743 93.153751 253.846474 91.278481 
C 251.971204 89.403212 249.427437 88.349549 246.775406 88.349549 
C 244.123375 88.349549 241.579607 89.403212 239.704338 91.278481 
C 237.829069 93.153751 236.775406 95.697518 236.775406 98.349549 
C 236.775406 101.00158 237.829069 103.545348 239.704338 105.420617 
C 241.579607 107.295886 244.123375 108.349549 246.775406 108.349549 
z
" style="fill:#f6bfa6;stroke:#ffffff;"/>
    <path clip-path="url(#p1860e3b2eb)" d="M 375.547002 137.905159 
C 378.199033 137.905159 380.742801 136.851496 382.61807 134.976227 
C 384.493339 133.100957 385.547002 130.55719 385.547002 127.905159 
C 385.547002 125.253128 384.493339 122.70936 382.61807 120.834091 
C 380.742801 118.958822 378.199033 117.905159 375.547002 117.905159 
C 372.894971 117.905159 370.351204 118.958822 368.475934 120.834091 
C 366.600665 122.70936 365.547002 125.253128 365.547002 127.905159 
C 365.547002 130.55719 366.600665 133.100957 368.475934 134.976227 
C 370.351204 136.851496 372.894971 137.905159 375.547002 137.905159 
z
" style="fill:#f4c5ad;stroke:#ffffff;"/>
    <path clip-path="url(#p1860e3b2eb)" d="M 213.795532 110.621265 
C 216.905314 110.621265 219.888146 109.385735 222.087094 107.186787 
C 224.286042 104.98784 225.521571 102.005008 225.521571 98.895226 
C 225.521571 95.785444 224.286042 92.802611 222.087094 90.603664 
C 219.888146 88.404716 216.905314 87.169186 213.795532 87.169186 
C 210.68575 87.169186 207.702918 88.404716 205.50397 90.603664 
C 203.305022 92.802611 202.069492 95.785444 202.069492 98.895226 
C 202.069492 102.005008 203.305022 104.98784 205.50397 107.186787 
C 207.702918 109.385735 210.68575 110.621265 213.795532 110.621265 
z
" style="fill:#adc9fd;stroke:#ffffff;"/>
    <path clip-path="url(#p1860e3b2eb)" d="M 265.204947 106.321215 
C 267.856978 106.321215 270.400746 105.267552 272.276015 103.392283 
C 274.151284 101.517014 275.204947 98.973246 275.204947 96.321215 
C 275.204947 93.669184 274.151284 91.125417 272.276015 89.250147 
C 270.400746 87.374878 267.856978 86.321215 265.204947 86.321215 
C 262.552916 86.321215 260.009148 87.374878 258.133879 89.250147 
C 256.25861 91.125417 255.204947 93.669184 255.204947 96.321215 
C 255.204947 98.973246 256.25861 101.517014 258.133879 103.392283 
C 260.009148 105.267552 262.552916 106.321215 265.204947 106.321215 
z
" style="fill:#f6bfa6;stroke:#ffffff;"/>
    <path clip-path="url(#p1860e3b2eb)" d="M 270.315259 85.588362 
C 272.96729 85.588362 275.511058 84.534699 277.386327 82.65943 
C 279.261596 80.784161 280.315259 78.240393 280.315259 75.588362 
C 280.315259 72.936331 279.261596 70.392564 277.386327 68.517294 
C 275.511058 66.642025 272.96729 65.588362 270.315259 65.588362 
C 267.663228 65.588362 265.11946 66.642025 263.244191 68.517294 
C 261.368922 70.392564 260.315259 72.936331 260.315259 75.588362 
C 260.315259 78.240393 261.368922 80.784161 263.244191 82.65943 
C 265.11946 84.534699 267.663228 85.588362 270.315259 85.588362 
z
" style="fill:#bb1b2c;stroke:#ffffff;"/>
    <path clip-path="url(#p1860e3b2eb)" d="M 312.560924 143.972118 
C 316.42689 143.972118 320.135037 142.436154 322.868688 139.702503 
C 325.602339 136.968852 327.138304 133.260705 327.138304 129.394739 
C 327.138304 125.528772 325.602339 121.820625 322.868688 119.086974 
C 320.135037 116.353323 316.42689 114.817359 312.560924 114.817359 
C 308.694958 114.817359 304.986811 116.353323 302.25316 119.086974 
C 299.519509 121.820625 297.983544 125.528772 297.983544 129.394739 
C 297.983544 133.260705 299.519509 136.968852 302.25316 139.702503 
C 304.986811 142.436154 308.694958 143.972118 312.560924 143.972118 
z
" style="fill:#f2c9b4;stroke:#ffffff;"/>
    <path clip-path="url(#p1860e3b2eb)" d="M 355.972607 161.600049 
C 358.269334 161.600049 360.472301 160.68755 362.096332 159.063519 
C 363.720362 157.439489 364.632861 155.236521 364.632861 152.939795 
C 364.632861 150.643069 363.720362 148.440101 362.096332 146.816071 
C 360.472301 145.19204 358.269334 144.279541 355.972607 144.279541 
C 353.675881 144.279541 351.472914 145.19204 349.848883 146.816071 
C 348.224852 148.440101 347.312353 150.643069 347.312353 152.939795 
C 347.312353 155.236521 348.224852 157.439489 349.848883 159.063519 
C 351.472914 160.68755 353.675881 161.600049 355.972607 161.600049 
z
" style="fill:#d4dbe6;stroke:#ffffff;"/>
    <path clip-path="url(#p1860e3b2eb)" d="M 327.489959 71.930077 
C 329.11399 71.930077 330.671723 71.284843 331.820086 70.136479 
C 332.968449 68.988116 333.613684 67.430383 333.613684 65.806352 
C 333.613684 64.182322 332.968449 62.624588 331.820086 61.476225 
C 330.671723 60.327862 329.11399 59.682628 327.489959 59.682628 
C 325.865929 59.682628 324.308195 60.327862 323.159832 61.476225 
C 322.011469 62.624588 321.366235 64.182322 321.366235 65.806352 
C 321.366235 67.430383 322.011469 68.988116 323.159832 70.136479 
C 324.308195 71.284843 325.865929 71.930077 327.489959 71.930077 
z
" style="fill:#b40426;stroke:#ffffff;"/>
    <path clip-path="url(#p1860e3b2eb)" d="M 80.877387 34.991736 
C 83.529418 34.991736 86.073186 33.938072 87.948455 32.062803 
C 89.823724 30.187534 90.877387 27.643767 90.877387 24.991736 
C 90.877387 22.339705 89.823724 19.795937 87.948455 17.920668 
C 86.073186 16.045399 83.529418 14.991736 80.877387 14.991736 
C 78.225356 14.991736 75.681589 16.045399 73.80632 17.920668 
C 71.931051 19.795937 70.877387 22.339705 70.877387 24.991736 
C 70.877387 27.643767 71.931051 30.187534 73.80632 32.062803 
C 75.681589 33.938072 78.225356 34.991736 80.877387 34.991736 
z
" style="fill:#e0dbd8;stroke:#ffffff;"/>
    <path clip-path="url(#p1860e3b2eb)" d="M 481.118448 248.164702 
C 482.993717 248.164702 484.792433 247.419649 486.118448 246.093634 
C 487.444464 244.767618 488.189516 242.968903 488.189516 241.093634 
C 488.189516 239.218365 487.444464 237.419649 486.118448 236.093634 
C 484.792433 234.767618 482.993717 234.022566 481.118448 234.022566 
C 479.243179 234.022566 477.444464 234.767618 476.118448 236.093634 
C 474.792433 237.419649 474.04738 239.218365 474.04738 241.093634 
C 474.04738 242.968903 474.792433 244.767618 476.118448 246.093634 
C 477.444464 247.419649 479.243179 248.164702 481.118448 248.164702 
z
" style="fill:#f59f80;stroke:#ffffff;"/>
    <path clip-path="url(#p1860e3b2eb)" d="M 142.145136 80.400095 
C 145.110197 80.400095 147.954215 79.222063 150.05083 77.125449 
C 152.147445 75.028834 153.325476 72.184815 153.325476 69.219755 
C 153.325476 66.254694 152.147445 63.410675 150.05083 61.314061 
C 147.954215 59.217446 145.110197 58.039415 142.145136 58.039415 
C 139.180075 58.039415 136.336056 59.217446 134.239442 61.314061 
C 132.142827 63.410675 130.964796 66.254694 130.964796 69.219755 
C 130.964796 72.184815 132.142827 75.028834 134.239442 77.125449 
C 136.336056 79.222063 139.180075 80.400095 142.145136 80.400095 
z
" style="fill:#e0dbd8;stroke:#ffffff;"/>
    <path clip-path="url(#p1860e3b2eb)" d="M 505.811717 223.902823 
C 507.686987 223.902823 509.485702 223.157771 510.811717 221.831755 
C 512.137733 220.50574 512.882785 218.707025 512.882785 216.831755 
C 512.882785 214.956486 512.137733 213.157771 510.811717 211.831755 
C 509.485702 210.50574 507.686987 209.760688 505.811717 209.760688 
C 503.936448 209.760688 502.137733 210.50574 500.811717 211.831755 
C 499.485702 213.157771 498.74065 214.956486 498.74065 216.831755 
C 498.74065 218.707025 499.485702 220.50574 500.811717 221.831755 
C 502.137733 223.157771 503.936448 223.902823 505.811717 223.902823 
z
" style="fill:#de614d;stroke:#ffffff;"/>
    <path clip-path="url(#p1860e3b2eb)" d="M 515.898368 204.759782 
C 517.773638 204.759782 519.572353 204.01473 520.898368 202.688714 
C 522.224384 201.362699 522.969436 199.563983 522.969436 197.688714 
C 522.969436 195.813445 522.224384 194.01473 520.898368 192.688714 
C 519.572353 191.362699 517.773638 190.617646 515.898368 190.617646 
C 514.023099 190.617646 512.224384 191.362699 510.898368 192.688714 
C 509.572353 194.01473 508.827301 195.813445 508.827301 197.688714 
C 508.827301 199.563983 509.572353 201.362699 510.898368 202.688714 
C 512.224384 204.01473 514.023099 204.759782 515.898368 204.759782 
z
" style="fill:#de614d;stroke:#ffffff;"/>
    <path clip-path="url(#p1860e3b2eb)" d="M 49.983471 83.819028 
C 52.635502 83.819028 55.17927 82.765365 57.054539 80.890096 
C 58.929808 79.014827 59.983471 76.471059 59.983471 73.819028 
C 59.983471 71.166997 58.929808 68.62323 57.054539 66.747961 
C 55.17927 64.872691 52.635502 63.819028 49.983471 63.819028 
C 47.33144 63.819028 44.787672 64.872691 42.912403 66.747961 
C 41.037134 68.62323 39.983471 71.166997 39.983471 73.819028 
C 39.983471 76.471059 41.037134 79.014827 42.912403 80.890096 
C 44.787672 82.765365 47.33144 83.819028 49.983471 83.819028 
z
" style="fill:#e0dbd8;stroke:#ffffff;"/>
    <path clip-path="url(#p1860e3b2eb)" d="M 363.065207 184.382982 
C 365.878111 184.382982 368.576184 183.265404 370.565207 181.27638 
C 372.554231 179.287357 373.671809 176.589284 373.671809 173.77638 
C 373.671809 170.963477 372.554231 168.265404 370.565207 166.27638 
C 368.576184 164.287357 365.878111 163.169779 363.065207 163.169779 
C 360.252304 163.169779 357.554231 164.287357 355.565207 166.27638 
C 353.576184 168.265404 352.458606 170.963477 352.458606 173.77638 
C 352.458606 176.589284 353.576184 179.287357 355.565207 181.27638 
C 357.554231 183.265404 360.252304 184.382982 363.065207 184.382982 
z
" style="fill:#e8d6cc;stroke:#ffffff;"/>
    <path clip-path="url(#p1860e3b2eb)" d="M 65.105123 103.456549 
C 67.757154 103.456549 70.300922 102.402886 72.176191 100.527616 
C 74.05146 98.652347 75.105123 96.10858 75.105123 93.456549 
C 75.105123 90.804518 74.05146 88.26075 72.176191 86.385481 
C 70.300922 84.510212 67.757154 83.456549 65.105123 83.456549 
C 62.453092 83.456549 59.909324 84.510212 58.034055 86.385481 
C 56.158786 88.26075 55.105123 90.804518 55.105123 93.456549 
C 55.105123 96.10858 56.158786 98.652347 58.034055 100.527616 
C 59.909324 102.402886 62.453092 103.456549 65.105123 103.456549 
z
" style="fill:#e0dbd8;stroke:#ffffff;"/>
    <path clip-path="url(#p1860e3b2eb)" d="M 153.557443 69.008234 
C 156.522504 69.008234 159.366523 67.830203 161.463138 65.733588 
C 163.559752 63.636974 164.737783 60.792955 164.737783 57.827894 
C 164.737783 54.862833 163.559752 52.018815 161.463138 49.9222 
C 159.366523 47.825585 156.522504 46.647554 153.557443 46.647554 
C 150.592383 46.647554 147.748364 47.825585 145.651749 49.9222 
C 143.555135 52.018815 142.377104 54.862833 142.377104 57.827894 
C 142.377104 60.792955 143.555135 63.636974 145.651749 65.733588 
C 147.748364 67.830203 150.592383 69.008234 153.557443 69.008234 
z
" style="fill:#e0dbd8;stroke:#ffffff;"/>
    <path clip-path="url(#p1860e3b2eb)" d="M 139.646607 107.829098 
C 142.611668 107.829098 145.455686 106.651067 147.552301 104.554452 
C 149.648916 102.457838 150.826947 99.613819 150.826947 96.648758 
C 150.826947 93.683697 149.648916 90.839679 147.552301 88.743064 
C 145.455686 86.646449 142.611668 85.468418 139.646607 85.468418 
C 136.681546 85.468418 133.837527 86.646449 131.740913 88.743064 
C 129.644298 90.839679 128.466267 93.683697 128.466267 96.648758 
C 128.466267 99.613819 129.644298 102.457838 131.740913 104.554452 
C 133.837527 106.651067 136.681546 107.829098 139.646607 107.829098 
z
" style="fill:#e0dbd8;stroke:#ffffff;"/>
    <path clip-path="url(#p1860e3b2eb)" d="M 526.016529 251.619129 
C 528.313255 251.619129 530.516223 250.70663 532.140253 249.082599 
C 533.764284 247.458569 534.676783 245.255601 534.676783 242.958875 
C 534.676783 240.662149 533.764284 238.459181 532.140253 236.835151 
C 530.516223 235.21112 528.313255 234.298621 526.016529 234.298621 
C 523.719803 234.298621 521.516835 235.21112 519.892805 236.835151 
C 518.268774 238.459181 517.356275 240.662149 517.356275 242.958875 
C 517.356275 245.255601 518.268774 247.458569 519.892805 249.082599 
C 521.516835 250.70663 523.719803 251.619129 526.016529 251.619129 
z
" style="fill:#d65244;stroke:#ffffff;"/>
    <path clip-path="url(#p1860e3b2eb)" d="M 313.537393 203.57809 
C 315.634008 203.57809 317.645033 202.745096 319.127563 201.262566 
C 320.610094 199.780036 321.443087 197.769011 321.443087 195.672396 
C 321.443087 193.575781 320.610094 191.564756 319.127563 190.082226 
C 317.645033 188.599696 315.634008 187.766702 313.537393 187.766702 
C 311.440779 187.766702 309.429754 188.599696 307.947223 190.082226 
C 306.464693 191.564756 305.631699 193.575781 305.631699 195.672396 
C 305.631699 197.769011 306.464693 199.780036 307.947223 201.262566 
C 309.429754 202.745096 311.440779 203.57809 313.537393 203.57809 
z
" style="fill:#c5d6f2;stroke:#ffffff;"/>
    <path clip-path="url(#p1860e3b2eb)" d="M 378.226689 157.234644 
C 380.87872 157.234644 383.422488 156.180981 385.297757 154.305712 
C 387.173026 152.430443 388.226689 149.886675 388.226689 147.234644 
C 388.226689 144.582613 387.173026 142.038845 385.297757 140.163576 
C 383.422488 138.288307 380.87872 137.234644 378.226689 137.234644 
C 375.574658 137.234644 373.03089 138.288307 371.155621 140.163576 
C 369.280352 142.038845 368.226689 144.582613 368.226689 147.234644 
C 368.226689 149.886675 369.280352 152.430443 371.155621 154.305712 
C 373.03089 156.180981 375.574658 157.234644 378.226689 157.234644 
z
" style="fill:#f4c5ad;stroke:#ffffff;"/>
    <path clip-path="url(#p1860e3b2eb)" d="M 471.403433 270.079332 
C 473.278703 270.079332 475.077418 269.33428 476.403433 268.008264 
C 477.729449 266.682249 478.474501 264.883534 478.474501 263.008264 
C 478.474501 261.132995 477.729449 259.33428 476.403433 258.008264 
C 475.077418 256.682249 473.278703 255.937197 471.403433 255.937197 
C 469.528164 255.937197 467.729449 256.682249 466.403433 258.008264 
C 465.077418 259.33428 464.332366 261.132995 464.332366 263.008264 
C 464.332366 264.883534 465.077418 266.682249 466.403433 268.008264 
C 467.729449 269.33428 469.528164 270.079332 471.403433 270.079332 
z
" style="fill:#f59f80;stroke:#ffffff;"/>
   </g>
   <g id="text_1">
    <!-- S -->
    <g transform="translate(246.911144 81.878268)scale(0.12 -0.12)">
     <defs>
      <path d="M 59.90625 70.609375 
L 59.90625 55.171875 
Q 53.90625 57.859375 48.1875 59.21875 
Q 42.484375 60.59375 37.40625 60.59375 
Q 30.671875 60.59375 27.4375 58.734375 
Q 24.21875 56.890625 24.21875 52.984375 
Q 24.21875 50.046875 26.390625 48.40625 
Q 28.5625 46.78125 34.28125 45.609375 
L 42.28125 44 
Q 54.4375 41.546875 59.5625 36.5625 
Q 64.703125 31.59375 64.703125 22.40625 
Q 64.703125 10.359375 57.546875 4.46875 
Q 50.390625 -1.421875 35.6875 -1.421875 
Q 28.765625 -1.421875 21.78125 -0.09375 
Q 14.796875 1.21875 7.8125 3.8125 
L 7.8125 19.671875 
Q 14.796875 15.96875 21.3125 14.078125 
Q 27.828125 12.203125 33.890625 12.203125 
Q 40.046875 12.203125 43.3125 14.25 
Q 46.578125 16.3125 46.578125 20.125 
Q 46.578125 23.53125 44.359375 25.390625 
Q 42.140625 27.25 35.5 28.71875 
L 28.21875 30.328125 
Q 17.28125 32.671875 12.21875 37.796875 
Q 7.171875 42.921875 7.171875 51.609375 
Q 7.171875 62.5 14.203125 68.359375 
Q 21.234375 74.21875 34.421875 74.21875 
Q 40.4375 74.21875 46.78125 73.3125 
Q 53.125 72.40625 59.90625 70.609375 
z
" id="DejaVuSans-Bold-83"/>
     </defs>
     <use xlink:href="#DejaVuSans-Bold-83"/>
    </g>
   </g>
   <g id="text_2">
    <!-- S -->
    <g transform="translate(243.980568 118.709654)scale(0.12 -0.12)">
     <use xlink:href="#DejaVuSans-Bold-83"/>
    </g>
   </g>
   <g id="text_3">
    <!-- S -->
    <g transform="translate(201.642423 88.747863)scale(0.12 -0.12)">
     <use xlink:href="#DejaVuSans-Bold-83"/>
    </g>
   </g>
   <g id="text_4">
    <!-- S -->
    <g transform="translate(242.454468 101.660799)scale(0.12 -0.12)">
     <use xlink:href="#DejaVuSans-Bold-83"/>
    </g>
   </g>
   <g id="text_5">
    <!-- S -->
    <g transform="translate(209.474594 102.206476)scale(0.12 -0.12)">
     <use xlink:href="#DejaVuSans-Bold-83"/>
    </g>
   </g>
   <g id="text_6">
    <!-- S -->
    <g transform="translate(260.88401 99.632465)scale(0.12 -0.12)">
     <use xlink:href="#DejaVuSans-Bold-83"/>
    </g>
   </g>
  </g>
 </g>
 <defs>
  <clipPath id="p1860e3b2eb">
   <rect height="288" width="576" x="0" y="0"/>
  </clipPath>
 </defs>
</svg>
