<?xml version="1.0" encoding="UTF-8"?> <svg xmlns="http://www.w3.org/2000/svg" viewBox="0 0 137.31 115.91"><defs><style>.cls-1{fill:#fa7413;}</style></defs><g id="Layer_2" data-name="Layer 2"><g id="Layer_1-2" data-name="Layer 1"><path class="cls-1" d="M137.05,66.91c-.08-.12-.34-.26-.31-.55.07-1-.42-.67-.78-.42-1.24.82-2.87,1.12-3.26,3.19-.09.46-.53.63-.87.83-3.22,1.92-6.78-.36-7.65-5a31.63,31.63,0,0,0-2-7,41.49,41.49,0,0,0-2.78-4,1.49,1.49,0,0,1-.2-.68,7.48,7.48,0,0,0-4-6.22h-.07c-4.26-3.09-13.42-6.29-18.34-7.78-1.88-.51-2.38.69-2.42,1.46a1.55,1.55,0,0,0,0,.43c.09.34.3,1,.3,1.06,1.16,4.44,2.66,10.6,1.8,10.36s-3.19-13.11-8.56-16.81l-.1-.08C84.27,32.46,77,30.94,74.54,30.42a1.32,1.32,0,0,1-.8-.5C72.3,28,70,27.41,66.54,26.84c-1.46-.24-2.71-.42-3.77-.54a1.4,1.4,0,0,1-1.22-1.57,2.38,2.38,0,0,1,.05-.26h0c.11-.36.11-1.06-.12-1.15a14.23,14.23,0,0,0-1.77.33,1.85,1.85,0,0,1-1-.26c-.17-.1.24.25.06.08-2-1.91,3-3.68,1.91-3.76H59.54A26.07,26.07,0,0,0,55.4,20a.44.44,0,0,1-.49-.4.48.48,0,0,1,0-.12.41.41,0,0,1,.21-.32c6.63-3.6,9.12-7.72,9.12-7.72s2-3.28-2.66-5.45A16.17,16.17,0,0,0,58.1,4.85,55.4,55.4,0,0,1,47.59,1.43C46.59,1,45.72.58,45,.2c0,0-.22-.1-.38-.15a.75.75,0,0,0-1,.43l0,.09c-.38.9.87,1.37,1.53,1.87C47.89,4.6,51.05,6,53.93,7.85c1.82,1.18,1.87,1.7.21,2.85a35.85,35.85,0,0,1-8,3.63,1,1,0,0,1-.43.08,5.66,5.66,0,0,0-4.25-.9,7,7,0,0,0-5.91,3.72,1.36,1.36,0,0,1-1.3.7H34a2.44,2.44,0,0,0-.54,0c-5.93.46-7.12,2.9-7.35,3.94a.93.93,0,0,1-.54.69C12.78,27.94,3.78,23.9.77,22.13H.7a.46.46,0,0,0-.67.56c2.83,7.22,17.47,7.78,21.56,7.79h.47a.47.47,0,0,1,.47.47.32.32,0,0,1,0,.14,22.73,22.73,0,0,1-3.09,6.07,6.51,6.51,0,0,0-.9,1.76l-.08.27a5.52,5.52,0,0,0,0,3.41,1.31,1.31,0,0,1,0,.83c0,.13-.05.25-.07.38a3,3,0,0,0,0,.6c.77,4.67,3.32,5.68,3.32,5.68a4.44,4.44,0,0,0,2.11.18c4-.19,10.68-1.14,12.35-1.25a1.51,1.51,0,0,1,.52,0h.11a1.48,1.48,0,0,1,.35.13c5.77,3,14.36,12.3,17.43,17.68l.53,1a18,18,0,0,0,5.44,6.63A21.09,21.09,0,0,0,62.86,76a29.83,29.83,0,0,0,3.92,1.85A49.06,49.06,0,0,0,73.57,80c.73.19,1.21.29,1.51.36,1.3.27,2.48.43,4,.63,5.58.73,8.16.44,9.18,2.21a5.86,5.86,0,0,1,.33,1v.08c1.37,4,2.23,4.46,2.85,6.3A2.19,2.19,0,0,0,93,92.11a4,4,0,0,1,2.84,2.39,9.79,9.79,0,0,0,6.25,6.27c3.18.88,4.63.6,6.54-2a2.46,2.46,0,0,0,.17-2.94,6.14,6.14,0,0,0-4.9-3.23A2.14,2.14,0,0,1,101.8,91a6.23,6.23,0,0,0-2.12-3.74,2,2,0,0,1,0-2.83,2.51,2.51,0,0,1,.41-.32c.29-.17,3.68-2.86,5.06-3.55.49-.25,3.41-1.28,3.51-3.33-.43-4.91.37-8.4.74-8.37s-.17,1.63.49,4.69A3.19,3.19,0,0,0,110,74h0c.6,3.53,4.81,9.07,6.88,11.43a1.29,1.29,0,0,1,.23.39,13.52,13.52,0,0,0,1.66,3.06,4.22,4.22,0,0,1,.64,1.53c.67,3.94,2.55,7.42,2.93,11.43.14,1.53.49,3.38.28,4.07a1.33,1.33,0,0,0-.07.48c.1,1.08.45,3.48.86,3.69s2.49.64,3.42-.4a.49.49,0,0,0,.13-.31c.18-1.73.88-1,1.24-.52a.38.38,0,0,0,.45.13,3.64,3.64,0,0,0,1.77-1.29.57.57,0,0,0,.13-.27,6.65,6.65,0,0,0-.34-4.31A20.49,20.49,0,0,0,128,99.68a10.51,10.51,0,0,1-2.24-9,5.14,5.14,0,0,0-.86-4.19,3.1,3.1,0,0,1-.46-2.72,34.91,34.91,0,0,0,.52-10.3c0-.53-.35-1.12.12-1.53s.92,0,1.34.18a5.8,5.8,0,0,0,6-.52,2.73,2.73,0,0,1,1.41-.57,3.25,3.25,0,0,0,3.44-2.44,2.45,2.45,0,0,0-.34-1.63m-41,34.22c1.11,1.34,2.61,2.33,3.73,3.71a34.48,34.48,0,0,1,3.88,7.72c0,1.23-1,1.16-2,1.71-.46.17-.73.66-1.18-.1a.77.77,0,0,0-.8-.1c-.27.12-.25.55-.22,1a.55.55,0,0,1-.37.59,4.27,4.27,0,0,1-2.55,0c-.72-.21-1.23-.24-1.45-1.36a.14.14,0,0,0,0-.09c-1.29-3.46,1.35-1.46-3.74-10.52l-.18-.46a6.32,6.32,0,0,0-2.77-3.89,4.89,4.89,0,0,1-2-2.33,7.83,7.83,0,0,0-4.55-4.45c-1.34-.53-2.7-1-4-1.57a20.63,20.63,0,0,1-9.29-7.58,5.14,5.14,0,0,1-.35-.55c-.22-.43-2.12-2.71-1.69-2.56,4,1.67,13.25,3.3,18.54,3.88a2.14,2.14,0,0,1,1.79,1.31,6.38,6.38,0,0,0,.51.9C88.86,89,89,89.36,89.62,90.27c1,1.43,2.48,2.76,2.73,4.57.38,2.83,2.1,4.53,3.59,6.34"></path></g></g></svg> 