<svg width="60" height="32" viewBox="0 0 60 32" fill="none" xmlns="http://www.w3.org/2000/svg">
<rect x="17" y="6" width="35" height="21" fill="white"/>
<path d="M22.4216 19.9988L24.0309 12.5926C24.3677 12.5926 24.5899 12.6258 24.698 12.6921C24.7498 12.7266 24.792 12.7735 24.8208 12.8285C24.8496 12.8834 24.8643 12.9448 24.8632 13.0068C24.8644 13.1544 24.8115 13.4844 24.7004 13.9923L23.7511 18.368C23.5842 19.1188 23.4351 19.5733 23.2949 19.7458C23.1535 19.9123 22.8636 19.9988 22.4216 19.9988Z" fill="#DC2626"/>
<path d="M42.8038 15.1964L42.6505 15.8613H41.7576L41.9121 15.1964C42.0279 14.6809 42.12 14.3656 42.1984 14.2471C42.2768 14.1345 42.4182 14.0753 42.6303 14.0753C42.8044 14.0753 42.903 14.1434 42.925 14.2779C42.9523 14.4201 42.9089 14.7253 42.8038 15.1964Z" fill="#DC2626"/>
<path d="M47.7458 11.453H47.4862V11.0258H47.779C47.8889 11.0258 47.9715 11.043 48.025 11.0779C48.0514 11.0943 48.073 11.1175 48.0874 11.145C48.1018 11.1725 48.1086 11.2034 48.1069 11.2344C48.1069 11.312 48.079 11.3677 48.025 11.4021C47.9691 11.4358 47.8765 11.453 47.7458 11.453Z" fill="#DC2626"/>
<path fill-rule="evenodd" clip-rule="evenodd" d="M46.9705 10.7218C47.1968 10.4824 47.4921 10.3621 47.8568 10.3621C48.0256 10.3621 48.2032 10.4095 48.3879 10.5043C48.5758 10.6021 48.7327 10.75 48.8412 10.9316C48.9588 11.1218 49.0176 11.3304 49.0176 11.5556C49.0176 11.8833 48.9012 12.1636 48.6671 12.397C48.4331 12.6299 48.1521 12.7467 47.8254 12.7467C47.4974 12.7467 47.2159 12.6299 46.9818 12.397C46.7483 12.1636 46.6313 11.8833 46.6313 11.5556C46.6295 11.2439 46.7514 10.9441 46.9705 10.7218ZM47.1683 10.7733V12.3467L47.4867 12.3461V11.7013H47.5699C47.6561 11.6978 47.7403 11.7276 47.8052 11.7843C47.8652 11.8388 47.9347 11.9419 48.0137 12.0924L48.1456 12.3461H48.5388L48.3547 12.0308C48.2721 11.8916 48.2115 11.8009 48.1741 11.7588C48.1312 11.7138 48.0783 11.6797 48.0196 11.6593C48.1616 11.6338 48.2679 11.584 48.3386 11.5105C48.4087 11.437 48.4438 11.3399 48.4438 11.2184C48.4451 11.16 48.4346 11.1019 48.413 11.0476C48.3914 10.9934 48.359 10.9441 48.3178 10.9025C48.2341 10.8166 48.0992 10.7733 47.9151 10.7733H47.1683Z" fill="#DC2626"/>
<path fill-rule="evenodd" clip-rule="evenodd" d="M8.77129 0H56.4576C57.3971 0.000314215 58.298 0.372789 58.9623 1.03553C59.6263 1.69828 60 2.59704 60 3.53422V28.4652C60 29.4024 59.6263 30.3013 58.9624 30.9641C58.2981 31.6269 57.3972 31.9995 56.4576 32H0C2.99584 31.2865 5.22832 28.6015 5.22832 25.3973C5.22832 25.3659 5.22653 25.3351 5.22238 25.3037L5.22832 3.53422C5.22847 2.59694 5.6018 1.69809 6.2662 1.03532C6.93059 0.372562 7.83166 0.000157118 8.77129 0ZM23.7071 10.6667H21.4604L19.0099 21.9259H22.797C23.517 21.9259 24.0618 21.888 24.4337 21.8145C24.8103 21.7345 25.137 21.6041 25.4228 21.411C25.7079 21.219 25.9355 20.9493 26.1077 20.6074C26.2764 20.2661 26.4761 19.5935 26.6929 18.5784L27.5525 14.6335C27.7824 13.5668 27.9065 12.8575 27.9202 12.4901C27.9303 12.1244 27.8388 11.7973 27.6351 11.4963C27.4319 11.2024 27.0903 10.989 26.6085 10.8599C26.125 10.7307 25.1566 10.6667 23.7071 10.6667ZM31.7632 12.1274L32.0792 10.6667H29.1523L28.8374 12.1274H31.7632ZM29.6584 21.9259L31.6402 12.6933H28.7145L26.7327 21.9259H29.6584ZM35.1832 16.0652H37.822C38.0044 15.203 38.062 14.5428 37.9895 14.0735C37.9206 13.6065 37.6592 13.2142 37.2077 12.9061C36.758 12.5979 36.1687 12.4444 35.4392 12.4444C34.7067 12.4444 34.0527 12.5997 33.4759 12.9096C32.8984 13.2201 32.4903 13.5769 32.2479 13.968C32.0085 14.3662 31.806 14.9517 31.639 15.7292L31.0883 18.3313C30.8947 19.2196 30.8448 19.9123 30.9339 20.3953C31.0194 20.8806 31.2654 21.2581 31.6705 21.5224C32.0733 21.7932 32.6685 21.9259 33.4586 21.9259C34.0764 21.9259 34.6129 21.8299 35.0745 21.6356C35.5358 21.4389 35.947 21.1416 36.278 20.7656C36.6202 20.3828 36.8549 20.0095 36.9796 19.6421C37.1097 19.2753 37.2523 18.7241 37.4109 17.9953H34.9188L34.6871 19.0833C34.5885 19.5538 34.4852 19.8744 34.3806 20.0474C34.2796 20.2145 34.1317 20.3004 33.9428 20.3004C33.7836 20.3004 33.6778 20.2163 33.6303 20.0551C33.5828 19.8939 33.5947 19.6492 33.6624 19.3262L34.5784 15.0157C34.661 14.6163 34.7465 14.3621 34.8256 14.2453C34.9046 14.1345 35.0269 14.0753 35.1856 14.0753C35.3442 14.0753 35.441 14.141 35.4766 14.2702C35.5075 14.3982 35.4826 14.6459 35.4054 15.0133L35.1832 16.0652ZM41.4238 17.3464H45.2721L45.5483 16.1327C45.7479 15.2492 45.7943 14.5564 45.685 14.0723C45.5798 13.5816 45.2875 13.1858 44.8129 12.8924C44.3412 12.5938 43.6865 12.4444 42.8561 12.4444C42.177 12.4444 41.5444 12.5683 40.9652 12.8148C40.386 13.0601 39.9327 13.411 39.5947 13.8744C39.2614 14.3378 39.003 14.973 38.8254 15.7677L38.2206 18.4385C38.0691 19.1194 38.0026 19.6391 38.024 19.9929C38.0454 20.3442 38.1602 20.6836 38.3566 20.976C38.5545 21.2699 38.8788 21.5046 39.3208 21.6711C39.758 21.8453 40.2957 21.9259 40.9224 21.9259C41.5687 21.9259 42.1265 21.8447 42.5917 21.6687C43.053 21.4969 43.4741 21.2328 43.8291 20.8924C44.182 20.5481 44.4333 20.2258 44.5782 19.9206C44.7232 19.6142 44.8592 19.1787 44.9869 18.6157L45.1402 17.9366H42.3256L42.0523 19.1437C41.9495 19.5947 41.8414 19.9034 41.7315 20.0599C41.6186 20.2246 41.4505 20.3004 41.2236 20.3004C41.0406 20.3004 40.9295 20.24 40.8939 20.1203C40.8582 19.9988 40.8885 19.7363 40.9782 19.3244L41.4238 17.3464ZM48.8774 10.515C48.5911 10.221 48.2264 10.0741 47.7832 10.0741C47.586 10.0741 47.3709 10.1292 47.141 10.2382C46.9111 10.3484 46.7198 10.5233 46.5666 10.7633C46.4133 11.0044 46.3366 11.2681 46.3366 11.5556C46.3336 11.7504 46.3705 11.9438 46.4452 12.1239C46.5199 12.304 46.6307 12.4669 46.7709 12.6027C46.9069 12.7429 47.0704 12.8539 47.2512 12.9286C47.432 13.0033 47.6262 13.0402 47.8218 13.037C48.2299 13.037 48.5792 12.8918 48.8703 12.6015C49.1614 12.3117 49.3069 11.9627 49.3069 11.5556C49.3069 11.1561 49.1638 10.8089 48.8774 10.515Z" fill="#DC2626"/>
</svg>
